<svg width="28" height="28" viewBox="0 0 28 28" fill="none" xmlns="http://www.w3.org/2000/svg">
<path fill-rule="evenodd" clip-rule="evenodd" d="M15.6115 3.18126L22.1115 6.0424C22.5145 6.21982 22.8779 6.4587 23.1926 6.7452L13.9999 10.8927L4.80735 6.74524C5.12203 6.45873 5.48543 6.21983 5.88851 6.0424L12.3885 3.18126C13.4153 2.72929 14.5847 2.72929 15.6115 3.18126ZM3.8914 7.97759C3.63847 8.50622 3.5 9.09375 3.5 9.70342V18.3496C3.5 19.9356 4.43697 21.3717 5.88851 22.0106L12.3885 24.8718C12.667 24.9944 12.9561 25.0837 13.2499 25.1398V12.2L3.8914 7.97759ZM14.7499 25.1398C15.0438 25.0838 15.3329 24.9944 15.6115 24.8718L22.1115 22.0106C23.563 21.3717 24.5 19.9356 24.5 18.3496V9.70342C24.5 9.09373 24.3615 8.50617 24.1086 7.97753L14.7499 12.2V25.1398Z" fill="white"/>
</svg>
