<svg width="22" height="24" viewBox="0 0 22 24" fill="none" xmlns="http://www.w3.org/2000/svg">
<path d="M21.125 14.8924C21.125 17.0231 18.3552 18.75 14.9375 18.75C11.5197 18.75 8.75 17.0231 8.75 14.8924C8.75 12.7616 11.5197 11.0359 14.9375 11.0359C18.3552 11.0359 21.125 12.7627 21.125 14.8924ZM14.9375 20.8391C11.5197 20.8391 8.75 19.1123 8.75 16.9826V19.3924C8.75 21.5231 11.5197 23.25 14.9375 23.25C18.3552 23.25 21.125 21.5231 21.125 19.3924V16.9826C21.125 19.1123 18.3552 20.8391 14.9375 20.8391ZM7.0625 8.46413C10.4803 8.46413 13.25 6.73725 13.25 4.60763C13.25 2.478 10.4803 0.75 7.0625 0.75C3.64475 0.75 0.875 2.47687 0.875 4.60763C0.875 6.73837 3.64475 8.46413 7.0625 8.46413ZM6.92188 12.9641C7.45644 11.8456 8.31019 10.9105 9.3755 10.2765C8.61897 10.4649 7.84212 10.5593 7.0625 10.5578C3.64475 10.5533 0.875 8.82638 0.875 6.69675V9.1065C0.875 11.2125 3.575 12.9124 6.92188 12.9596V12.9641ZM7.0625 23.25C7.46828 23.2497 7.87367 23.2245 8.27638 23.1746C7.56951 22.5383 7.03868 21.7304 6.73512 20.829C3.47037 20.7221 0.875 19.0436 0.875 16.9826V19.3924C0.875 21.5231 3.64475 23.25 7.0625 23.25ZM6.5 18.2505V15.825C3.35 15.645 0.875 14.0104 0.875 12V14.4109C0.875 16.4224 3.35 18.075 6.5 18.2505Z" fill="white"/>
</svg>
