<svg width="28" height="28" viewBox="0 0 28 28" fill="none" xmlns="http://www.w3.org/2000/svg">
<path fill-rule="evenodd" clip-rule="evenodd" d="M14.8438 2.46875C14.8438 2.00276 14.466 1.625 14 1.625C13.5341 1.625 13.1563 2.00276 13.1563 2.46875V3.59375C13.1563 4.05974 13.5341 4.4375 14 4.4375C14.466 4.4375 14.8438 4.05974 14.8438 3.59375V2.46875ZM11.4348 6.96875C10.7402 6.96875 10.1365 7.44562 9.97563 8.12132L8.81491 12.9963C8.59049 13.9389 9.30521 14.8438 10.2741 14.8438H5.80983C5.11524 14.8438 4.51151 15.3206 4.35062 15.9963L3.18991 20.8713C2.96549 21.8139 3.68021 22.7188 4.64912 22.7188H12.101C13.0699 22.7188 13.7846 21.8139 13.5602 20.8713L12.3995 15.9963C12.2386 15.3206 11.6348 14.8438 10.9403 14.8438H17.0598C16.3652 14.8438 15.7615 15.3206 15.6006 15.9963L14.4399 20.8713C14.2155 21.8139 14.9302 22.7188 15.8991 22.7188H23.351C24.3199 22.7188 25.0346 21.8139 24.8102 20.8713L23.6495 15.9963C23.4886 15.3206 22.8848 14.8438 22.1903 14.8438H17.726C18.6949 14.8438 19.4096 13.9389 19.1852 12.9963L18.0245 8.12132C17.8636 7.44562 17.2598 6.96875 16.5653 6.96875H11.4348ZM21.3467 4.19037L20.2217 5.31537C19.8922 5.64488 19.3579 5.64488 19.0284 5.31537C18.6989 4.98587 18.6989 4.45163 19.0284 4.12213L20.1534 2.99713C20.4829 2.66762 21.0172 2.66762 21.3467 2.99713C21.6762 3.32663 21.6762 3.86087 21.3467 4.19037ZM7.84667 2.99713C7.51716 2.66762 6.98293 2.66762 6.65343 2.99713C6.32392 3.32663 6.32392 3.86087 6.65343 4.19037L7.77843 5.31537C8.10793 5.64488 8.64216 5.64488 8.97167 5.31537C9.30117 4.98587 9.30117 4.45163 8.97167 4.12213L7.84667 2.99713Z" fill="white"/>
</svg>
