<svg width="28" height="28" viewBox="0 0 28 28" fill="none" xmlns="http://www.w3.org/2000/svg">
<path d="M22.7383 1.43652V4.62576H26.1865L22.7383 1.43652Z" fill="white"/>
<path d="M8.03467 7.51208C6.83593 8.67358 6.17578 10.2178 6.17578 11.8601C6.17578 12.8735 6.42746 13.8494 6.90162 14.7212C6.91074 14.7367 6.91932 14.7523 6.92724 14.7682C7.21779 15.2913 7.58891 15.7762 8.03467 16.2081C10.5103 18.6069 14.5387 18.6069 17.0144 16.2081C17.1589 16.0681 17.2954 15.9224 17.424 15.7718L15.2386 12.1691L14.0989 13.1177C13.9145 13.2711 13.6694 13.3367 13.4301 13.2965C13.1908 13.2563 12.9825 13.1145 12.8621 12.9099L9.16887 6.63867C8.76567 6.88191 8.38462 7.17295 8.03467 7.51208Z" fill="white"/>
<path d="M14.9172 10.3534C15.1002 10.2011 15.3432 10.1356 15.5809 10.1737C15.8185 10.2122 16.0265 10.3508 16.1488 10.5525L18.3837 14.2367C18.705 13.4938 18.8736 12.6893 18.8736 11.8597C18.8736 10.2173 18.2135 8.67311 17.0147 7.51161C15.2977 5.84798 12.834 5.33853 10.6592 5.98257L13.7872 11.294L14.9172 10.3534Z" fill="white"/>
<path d="M21.924 6.20761C21.4743 6.20761 21.1097 5.85357 21.1097 5.41686V0.5H8.36732C7.73948 0.5 7.23047 0.99427 7.23047 1.60394V6.07677C10.3592 3.38333 15.1675 3.48823 18.1648 6.39228C19.6719 7.85263 20.5019 9.79439 20.5019 11.8599C20.5019 13.9254 19.6719 15.8671 18.1648 17.3274C17.9777 17.5085 17.7836 17.6786 17.5833 17.838L19.674 21.4749L23.0737 17.4814C23.3603 17.1448 23.8736 17.0977 24.2202 17.3758C24.5668 17.654 24.6155 18.1525 24.329 18.4891L20.1708 23.3735C20.0154 23.5561 19.7847 23.6604 19.5433 23.6604C19.5187 23.6604 19.494 23.6593 19.4693 23.6571C19.2016 23.6335 18.9632 23.483 18.8321 23.2551L16.2204 18.7118C15.0667 19.2954 13.7956 19.5874 12.5245 19.5874C11.4701 19.5874 10.416 19.3861 9.42877 18.9847L7.23047 21.1147V26.396C7.23047 27.0056 7.73948 27.4999 8.36732 27.4999H26.1133C26.7411 27.4999 27.2501 27.0057 27.2501 26.396V6.20761H21.924Z" fill="white"/>
<path d="M6.88342 17.3277C6.57517 17.029 6.29575 16.7099 6.04548 16.374L4.75977 17.6198L6.64548 19.447L7.94259 18.1901C7.5705 17.937 7.21578 17.6497 6.88342 17.3277Z" fill="white"/>
<path d="M2.52838 23.4363L5.49329 20.5635L3.60758 18.7363L0.640171 21.6116C0.388544 21.8554 0.25 22.1794 0.25 22.524C0.25 22.8685 0.388544 23.1926 0.640171 23.4364C1.16074 23.9407 2.00781 23.9407 2.52838 23.4363Z" fill="white"/>
</svg>
