<svg width="28" height="28" viewBox="0 0 28 28" fill="none" xmlns="http://www.w3.org/2000/svg">
<rect x="0.5" y="0.5" width="27" height="27" rx="13" fill="#007AC3"/>
<path fill-rule="evenodd" clip-rule="evenodd" d="M6.18055 6.89364L12.3034 4.17239C13.3376 3.71272 14.5182 3.71272 15.5525 4.17239L21.6555 6.88484C23.1112 7.53182 24.0629 8.98266 23.9736 10.5732C23.5689 17.7767 21.5754 20.9055 15.994 24.6355C14.7444 25.4706 13.1128 25.4687 11.8625 24.6345C6.30214 20.9248 4.22946 17.8441 3.86398 10.5528C3.78478 8.97285 4.73493 7.53614 6.18055 6.89364ZM17.8674 12.9442C18.1401 12.6325 18.1085 12.1587 17.7968 11.8859C17.4851 11.6132 17.0113 11.6448 16.7385 11.9565L13.4311 15.7364C13.343 15.8371 13.1912 15.8505 13.0868 15.767L11.0214 14.1147C10.698 13.856 10.226 13.9084 9.96727 14.2318C9.70852 14.5553 9.76096 15.0273 10.0844 15.286L12.1497 16.9383C12.881 17.5233 13.9433 17.4289 14.56 16.7241L17.8674 12.9442Z" fill="white"/>
</svg>
