<svg width="28" height="28" viewBox="0 0 28 28" fill="none" xmlns="http://www.w3.org/2000/svg">
<path fill-rule="evenodd" clip-rule="evenodd" d="M11.2538 8.91758C11.2538 8.33889 10.783 7.86816 10.2041 7.86816C9.62529 7.86816 9.1543 8.33889 9.1543 8.91758C9.1543 9.49619 9.62529 9.96699 10.2041 9.96699C10.7829 9.96692 11.2538 9.49619 11.2538 8.91758Z" fill="white"/>
<path fill-rule="evenodd" clip-rule="evenodd" d="M10.2066 5.91699C8.55052 5.91699 7.20312 7.26384 7.20312 8.91926C7.20312 10.3873 8.06407 11.8388 8.7863 12.7978C9.34874 13.5447 9.91754 14.1179 10.2066 14.3932C10.4957 14.1179 11.0645 13.5447 11.6269 12.7978C12.3491 11.8387 13.2101 10.3872 13.2101 8.91926C13.2101 7.26384 11.8628 5.91699 10.2066 5.91699ZM10.2066 10.5621C9.30038 10.5621 8.56312 9.82512 8.56312 8.91926C8.56312 8.0134 9.30038 7.27644 10.2066 7.27644C11.1127 7.27644 11.8499 8.0134 11.8499 8.91926C11.8499 9.82512 11.1128 10.5621 10.2066 10.5621Z" fill="white"/>
<path fill-rule="evenodd" clip-rule="evenodd" d="M17.0734 3.34326C15.2393 1.50979 12.8007 0.5 10.2067 0.5C7.61275 0.5 5.17405 1.50972 3.33984 3.34326C-0.446614 7.1282 -0.446614 13.2867 3.33984 17.0716C5.209 18.94 7.70991 19.9064 10.2255 19.9065C12.0575 19.9065 13.8972 19.394 15.5066 18.3439L15.5067 18.3438C16.0676 17.9781 16.5947 17.55 17.0735 17.0715C17.5523 16.5928 17.9805 16.0658 18.3463 15.505C18.3464 15.5049 18.3464 15.5048 18.3464 15.5048C18.3468 15.5042 18.3471 15.5037 18.3474 15.5032C20.8389 11.6854 20.3032 6.57178 17.0734 3.34326ZM17.5739 13.1973C17.1739 14.1832 16.5864 15.0677 15.8277 15.8261C15.0689 16.5845 14.1842 17.1718 13.1979 17.5716C12.2454 17.9576 11.239 18.1534 10.2067 18.1534C9.17438 18.1534 8.168 17.9576 7.21547 17.5716C6.22916 17.1718 5.34433 16.5846 4.58553 15.8261C3.8268 15.0677 3.23931 14.1833 2.83932 13.1974C2.45311 12.2453 2.25725 11.2394 2.25725 10.2074C2.25725 9.17554 2.45311 8.16956 2.83932 7.21748C3.23931 6.23157 3.8268 5.34717 4.58553 4.58875C5.34433 3.83025 6.22916 3.24299 7.21547 2.84316C8.168 2.45703 9.17438 2.26126 10.2067 2.26126C11.239 2.26126 12.2454 2.45703 13.1979 2.84316C14.1841 3.24299 15.0689 3.83025 15.8277 4.58875C16.5864 5.34717 17.1739 6.23164 17.5738 7.21748C17.96 8.16956 18.1559 9.17554 18.1559 10.2074C18.1559 11.2393 17.9601 12.2453 17.5739 13.1973Z" fill="white"/>
<path fill-rule="evenodd" clip-rule="evenodd" d="M16.1328 18.6356L23.1199 25.62L25.6265 23.1144L18.6392 16.1299C18.2989 16.6128 17.9147 17.0694 17.4935 17.4904C17.0725 17.9113 16.616 18.2953 16.1328 18.6356Z" fill="white"/>
<path fill-rule="evenodd" clip-rule="evenodd" d="M24.4802 26.9825C24.815 27.317 25.2601 27.5013 25.7335 27.5013C26.1854 27.5013 26.6154 27.3316 26.9444 27.0236C27.2945 26.6959 27.4916 26.2498 27.4995 25.7674C27.5075 25.2737 27.3189 24.8087 26.9681 24.4582L26.0457 23.5361L23.5391 26.0417L24.4802 26.9825Z" fill="white"/>
</svg>
