<svg width="28" height="28" viewBox="0 0 28 28" fill="none" xmlns="http://www.w3.org/2000/svg">
<path fill-rule="evenodd" clip-rule="evenodd" d="M12.3466 5.97438L13.1562 5.16475V9.21875C13.1562 9.68474 13.534 10.0625 14 10.0625C14.466 10.0625 14.8438 9.68474 14.8438 9.21875L14.8437 5.16475L15.6534 5.97438C15.9829 6.30389 16.5171 6.30389 16.8466 5.97438C17.1761 5.64488 17.1761 5.11064 16.8466 4.78114L15.3921 3.32663C14.6233 2.55779 13.3767 2.55779 12.6079 3.32663L11.1534 4.78114C10.8239 5.11064 10.8239 5.64488 11.1534 5.97438C11.4829 6.30389 12.0171 6.30389 12.3466 5.97438ZM7.25 12.5937C6.00736 12.5937 5 13.6011 5 14.8437C5 16.0864 6.00736 17.0937 7.25 17.0937C6.00736 17.0937 5 18.1011 5 19.3437C5 20.5864 6.00736 21.5937 7.25 21.5937H12.3125C12.3125 18.4834 14.6059 15.9116 17.5944 15.4723C17.8909 15.4287 18.1933 15.4062 18.5 15.4062C18.851 15.4062 19.1952 15.4355 19.5303 15.4916C19.5919 15.2865 19.625 15.069 19.625 14.8437C19.625 13.6011 18.6176 12.5937 17.375 12.5937H7.25ZM23 21.5937C23 19.1085 20.9853 17.0937 18.5 17.0937C18.2757 17.0937 18.0553 17.1102 17.8399 17.1418C15.6675 17.4612 14 19.3327 14 21.5937C14 24.079 16.0147 26.0937 18.5 26.0937C20.9853 26.0937 23 24.079 23 21.5937Z" fill="white"/>
</svg>
