<svg width="28" height="28" viewBox="0 0 28 28" fill="none" xmlns="http://www.w3.org/2000/svg">
<path fill-rule="evenodd" clip-rule="evenodd" d="M4.46875 2.75C3.36418 2.75 2.46875 3.64543 2.46875 4.75V9.75C2.46875 10.8546 3.36418 11.75 4.46875 11.75H11.7188C12.8233 11.75 13.7188 10.8546 13.7188 9.75V4.75C13.7188 3.64543 12.8233 2.75 11.7188 2.75H4.46875ZM15.7188 16.25C14.6142 16.25 13.7188 17.1454 13.7188 18.25V23.25C13.7188 24.3546 14.6142 25.25 15.7188 25.25H22.9688C24.0733 25.25 24.9688 24.3546 24.9688 23.25V18.25C24.9688 17.1454 24.0733 16.25 22.9688 16.25H15.7188ZM23.3977 8.09375L22.5881 8.90338C22.2586 9.23288 22.2586 9.76712 22.5881 10.0966C22.9176 10.4261 23.4519 10.4261 23.7814 10.0966L25.2359 8.64212C26.0047 7.87327 26.0047 6.62673 25.2359 5.85788L23.7814 4.40338C23.4519 4.07387 22.9176 4.07387 22.5881 4.40338C22.2586 4.73288 22.2586 5.26712 22.5881 5.59662L23.3977 6.40625H18.2188C17.7528 6.40625 17.375 6.78401 17.375 7.25C17.375 7.71599 17.7528 8.09375 18.2188 8.09375H23.3977ZM4.84938 22.4034L4.03975 21.5938H9.21875C9.68474 21.5938 10.0625 21.216 10.0625 20.75C10.0625 20.284 9.68474 19.9062 9.21875 19.9062H4.03975L4.84938 19.0966C5.17889 18.7671 5.17889 18.2329 4.84938 17.9034C4.51988 17.5739 3.98564 17.5739 3.65614 17.9034L2.20163 19.3579C1.43279 20.1267 1.43279 21.3733 2.20163 22.1421L3.65614 23.5966C3.98564 23.9261 4.51988 23.9261 4.84938 23.5966C5.17889 23.2671 5.17889 22.7329 4.84938 22.4034Z" fill="white"/>
</svg>
