<svg width="259" height="37" viewBox="0 0 259 37" fill="none" xmlns="http://www.w3.org/2000/svg">
<path d="M16.8981 0.282227C16.3503 0.54735 15.8215 0.831411 15.3115 1.15335C14.7354 1.50369 14.1877 1.88244 13.6588 2.29906C11.4773 4.00343 9.69242 6.20963 8.48361 8.72831C8.42695 8.86087 8.37028 8.98396 8.31362 9.11652C7.40701 11.1144 6.85927 13.3017 6.7365 15.6121C6.7365 15.9245 6.71761 16.2275 6.71761 16.54C6.71761 17.0986 6.74594 17.6573 6.79316 18.2065C6.77427 18.2538 6.75538 18.2822 6.7365 18.3201C6.51929 17.9129 6.32097 17.4869 6.14153 17.0608C5.39547 15.3375 4.91383 13.4721 4.75329 11.5216C4.70607 11.1049 4.68718 10.6883 4.68718 10.2622C4.67773 10.1581 4.67773 10.0445 4.67773 9.93083C4.67773 9.29643 4.71551 8.67149 4.77217 8.04656C4.93272 6.47476 5.70712 5.03551 6.94426 4.06971C7.85087 3.35955 8.83303 2.73462 9.87186 2.21384C11.1751 1.54156 12.5728 1.02079 14.046 0.698849C14.9715 0.481069 15.9254 0.339039 16.8981 0.282227V0.282227Z" fill="#007AC3"/>
<path d="M12.1383 27.8836C11.6 27.8363 11.0711 27.77 10.5517 27.6753C8.66294 27.3439 6.86861 26.7189 5.23482 25.8478C5.05539 25.7531 4.8854 25.6585 4.71541 25.5543C3.82768 25.043 2.98718 24.4559 2.20334 23.8121C1.00397 22.8084 0.229571 21.3881 0.097357 19.8352C0.0501377 19.3334 0.03125 18.8221 0.03125 18.3013C0.03125 18.1592 0.03125 18.0172 0.0406939 17.8752C0.0784693 16.2182 0.333454 14.6274 0.796203 13.1124C1.04174 12.2413 1.36283 11.3986 1.75003 10.5938C1.74059 10.8967 1.73115 11.1997 1.73115 11.5122C1.73115 11.7584 1.73115 12.0046 1.75003 12.2508C1.77836 13.0177 1.85392 13.7752 1.98613 14.5138C2.43944 17.2692 3.52548 19.8163 5.09316 22.0035C5.14038 22.0698 5.1876 22.1456 5.23482 22.2118C6.47196 23.8973 7.98298 25.3365 9.71121 26.5106C10.4762 27.0219 11.2883 27.4764 12.1288 27.8647L12.1383 27.8836Z" fill="#007AC3"/>
<path d="M32.9335 8.16971C32.4708 7.85724 31.9891 7.57318 31.4886 7.30806C30.9503 7.024 30.3931 6.75887 29.8265 6.54109C27.7394 5.67944 25.4446 5.20601 23.0458 5.20601C22.517 5.20601 21.9881 5.22495 21.4687 5.28176C21.4687 5.28176 21.4624 5.2786 21.4498 5.27229C21.4498 5.27229 21.412 5.24388 21.4026 5.23441C21.412 5.24388 21.4309 5.26282 21.4404 5.28176C19.0511 5.49007 16.794 6.17182 14.7635 7.23231C14.263 7.48796 13.7719 7.77203 13.2997 8.08449C12.9314 8.31174 12.5726 8.5674 12.2231 8.83252C12.3742 8.57686 12.5348 8.33068 12.7048 8.09396C12.8464 7.87618 13.007 7.66787 13.1581 7.45956C14.4047 5.83094 15.9251 4.41064 17.6439 3.29333C17.9083 3.11343 18.1728 2.95246 18.4467 2.80096C19.1738 2.37487 19.9388 1.99612 20.7321 1.67418C22.1581 1.09659 23.7541 1.11553 25.1707 1.72153C26.2284 2.17602 27.2389 2.73468 28.1738 3.37855C29.3071 4.15498 30.3459 5.05451 31.262 6.06766C31.8758 6.721 32.433 7.43115 32.9335 8.16971Z" fill="#007AC3"/>
<path d="M23.3291 28.2053C23.0552 28.603 22.7719 28.9818 22.4602 29.351C21.1947 30.8944 19.6743 32.2295 17.9649 33.2805C17.8327 33.3563 17.71 33.432 17.5777 33.5078C16.6806 34.0286 15.7267 34.4831 14.7446 34.8429C13.3091 35.3637 11.732 35.2784 10.3532 34.6251C9.58823 34.2653 8.85161 33.8487 8.16221 33.3942C7.08561 32.6745 6.08456 31.8508 5.18739 30.9323C4.37522 30.1085 3.64804 29.1995 3.00586 28.2337C3.60082 28.6409 4.22412 29.0102 4.87574 29.351H4.88519C5.37627 29.6067 5.85791 29.8339 6.37732 30.0423C8.46441 30.8944 10.7593 31.3679 13.158 31.3679C13.5735 31.3679 13.9891 31.3489 14.4046 31.3205C14.5557 31.3111 14.6974 31.3016 14.8485 31.2827C17.0867 31.0838 19.2021 30.4589 21.1192 29.5025C21.8936 29.1238 22.6302 28.6882 23.3385 28.2053H23.3291Z" fill="#007AC3"/>
<path d="M31.2433 26.1412C31.2433 27.1354 31.1677 28.1107 31.0072 29.0576C30.7616 30.5536 29.9683 31.8982 28.7595 32.7977C27.8529 33.4794 26.8802 34.0665 25.8508 34.5589C24.8026 35.0702 23.6882 35.4773 22.536 35.7803C21.5633 36.036 20.5528 36.2064 19.5234 36.2822C20.0901 35.9981 20.6378 35.6762 21.1667 35.3258C21.5916 35.0512 22.0072 34.7577 22.4038 34.4453C24.6798 32.6651 26.5119 30.3548 27.7207 27.6941C27.8057 27.5331 27.8718 27.3627 27.9379 27.2017C28.7123 25.3648 29.194 23.3669 29.3167 21.2838C29.3356 20.9239 29.3451 20.5641 29.3451 20.2043C29.3451 19.7593 29.3262 19.3237 29.2978 18.8882C29.2695 18.4905 29.2317 18.0928 29.1656 17.7046C29.2978 17.9508 29.43 18.197 29.5434 18.4526C29.7228 18.8314 29.8834 19.2196 30.0345 19.6078C30.7427 21.4163 31.1583 23.3669 31.2338 25.4026C31.2433 25.5352 31.2433 25.6678 31.2433 25.8098C31.2527 25.914 31.2527 26.0276 31.2527 26.1412H31.2433Z" fill="#007AC3"/>
<path d="M36.0313 18.3011C36.0313 18.6135 36.0218 18.926 36.0124 19.229C35.9463 20.3842 35.7858 21.5015 35.5213 22.5809C35.2663 23.632 34.9169 24.6546 34.4825 25.6204C34.4919 25.4783 34.4919 25.3363 34.4919 25.1943C34.4919 24.664 34.4731 24.1338 34.4164 23.613C34.3786 23.1396 34.322 22.6661 34.237 22.2022C33.7837 19.4089 32.6787 16.8429 31.1016 14.6462C31.111 14.5609 31.111 14.4663 31.1205 14.3716C31.1016 14.4473 31.0827 14.5231 31.0544 14.5893C29.7322 12.7619 28.0796 11.1995 26.1813 9.98756C25.5297 9.56146 24.8498 9.18272 24.1415 8.86078C24.132 8.81344 24.1037 8.76609 24.0659 8.71875C24.5003 8.74716 24.9253 8.7945 25.3408 8.86078C27.3429 9.15431 29.2317 9.77924 30.9599 10.6882C31.196 10.8019 31.4227 10.925 31.6399 11.0575C32.2821 11.4268 33.1226 12.0612 33.8592 12.6577C35.0586 13.6235 35.8046 15.0344 35.9463 16.5683C36.003 17.1364 36.0313 17.714 36.0313 18.3011Z" fill="#007AC3"/>
<path d="M18.0691 26.1886C22.4189 26.1886 25.9452 22.653 25.9452 18.2917C25.9452 13.9303 22.4189 10.3948 18.0691 10.3948C13.7192 10.3948 10.1929 13.9303 10.1929 18.2917C10.1929 22.653 13.7192 26.1886 18.0691 26.1886Z" fill="#007AC3"/>
<path d="M58.6999 25.4716C62.4111 25.4716 65.4786 22.7071 64.8727 18.0491H59.1354V20.2266H62.3543C61.9567 22.3094 60.4608 23.0858 58.8135 23.0858C56.3709 23.0858 54.4585 21.3059 54.4585 18.5603C54.4585 15.7958 56.4088 14.1106 58.8135 14.1106C60.1768 14.1106 61.4455 14.6219 62.3354 15.8716L64.2099 14.5651C62.7898 12.2929 60.5744 11.6491 58.7756 11.6491C54.9886 11.6491 51.8076 14.3757 51.8076 18.5603C51.8076 22.7449 54.9697 25.4716 58.6999 25.4716ZM68.7617 25.2822H76.544V22.8964H71.3558V19.6964H75.5783V17.3485H71.3558V14.2242H76.3736V11.8384H68.7617V25.2822ZM84.4972 28.6716V29.4668C86.2203 29.8645 88.0949 29.1449 88.0949 27.6491C88.0949 26.7591 87.4132 26.0396 86.3528 26.0018L86.7315 25.4526C88.4546 25.339 90.4049 24.6195 91.6925 22.5556L89.799 21.2491C88.928 22.4988 87.6783 23.01 86.3339 23.01C83.9481 23.01 81.9599 21.3059 81.9599 18.5603C81.9599 15.8337 83.9292 14.1106 86.315 14.1106C87.6215 14.1106 88.928 14.6219 89.799 15.8716L91.6925 14.5651C90.2724 12.2929 88.0759 11.6491 86.2392 11.6491C82.4712 11.6491 79.3091 14.3757 79.3091 18.5603C79.3091 22.2716 81.7895 24.8467 84.9895 25.3769L84.3457 26.4751L84.5919 27.0432C85.8795 26.8728 86.296 27.3461 86.296 27.8574C86.296 28.5012 85.5765 28.6905 84.4972 28.6716ZM95.3017 25.2822H97.8957V16.8373H97.9904L101.588 25.2822H103.5L107.117 16.8373H107.212V25.2822H109.806V11.8384H106.947L102.554 21.9686L98.1608 11.8384H95.3017V25.2822ZM113.823 25.2822H116.417V11.8384H113.823V25.2822ZM113.842 10.4751H116.398V7.95678H113.842V10.4751ZM123.088 28.6716V29.4668C124.811 29.8645 126.685 29.1449 126.685 27.6491C126.685 26.7591 126.004 26.0396 124.943 26.0018L125.341 25.4337C127.367 25.2065 129.317 23.881 129.317 21.4195C129.317 19.5071 128.143 18.4467 125.795 17.5L124.886 17.1402C123.41 16.5722 123.012 16.0231 123.012 15.3225C123.012 14.4325 123.731 13.9591 124.697 13.9591C125.682 13.9591 126.42 14.4893 126.988 15.5686L128.92 14.4893C128.314 13.0692 126.912 11.6491 124.602 11.6491C122.33 11.6491 120.456 13.0503 120.456 15.3035C120.456 17.3485 121.97 18.371 123.807 19.1094L124.659 19.4313C126.023 19.9805 126.61 20.416 126.61 21.4006C126.61 22.5745 125.701 23.1236 124.64 23.1236C123.277 23.1236 122.425 22.1958 122.046 21.1544L119.944 22.1201C120.342 23.7674 121.762 25.0171 123.58 25.3769L122.936 26.4751L123.182 27.0432C124.47 26.8728 124.886 27.3461 124.886 27.8574C124.886 28.5012 124.167 28.6905 123.088 28.6716ZM143.233 11.8384L138.064 25.2822H140.867L141.757 22.8586H147.475L148.365 25.2822H151.167L145.979 11.8384H143.233ZM142.628 20.4728L144.616 15.0763L146.604 20.4728H142.628ZM154.421 25.2822H157.016V16.0988H157.11L163.283 25.2822H165.877V11.8384H163.283V21.0219H163.188L157.016 11.8384H154.421V25.2822ZM174.304 11.8384L169.135 25.2822H171.937L172.827 22.8586H178.545L179.435 25.2822H182.237L177.049 11.8384H174.304ZM173.698 20.4728L175.686 15.0763L177.674 20.4728H173.698ZM185.492 25.2822H193.331V22.8964H188.086V11.8384H185.492V25.2822ZM196.95 25.2822H199.544V11.8384H196.95V25.2822ZM196.969 10.4751H199.525V7.95678H196.969V10.4751ZM202.882 25.2822H213.163V22.8964H206.896L213.353 11.8384H203.166V14.2242H209.319L202.882 25.2822ZM216.796 25.2822H224.635V22.8964H219.39V11.8384H216.796V25.2822ZM228.254 25.2822H236.036V22.8964H230.848V19.6964H235.07V17.3485H230.848V14.2242H235.865V11.8384H228.254V25.2822ZM247.114 25.2822H249.879L246.735 20.397C248.288 19.7343 249.216 18.3331 249.216 16.4018C249.216 13.6562 247.322 11.8384 244.463 11.8384H239.748V25.2822H242.342V20.8325H244.35L247.114 25.2822ZM242.342 18.5793V14.2242H244.198C245.618 14.2242 246.584 14.8491 246.584 16.4018C246.584 17.9734 245.618 18.5793 244.198 18.5793H242.342Z" fill="#007AC3"/>
</svg>
