<svg width="165" height="61" viewBox="0 0 165 61" fill="none" xmlns="http://www.w3.org/2000/svg">
<g clip-path="url(#clip0_1_2770)">
<path d="M65.1768 49.26H72.5953V50.0635H66.0393V54.4591H71.8107V55.2627H66.0393V60.0533H72.8309V60.8416H65.1768V49.26Z" fill="white"/>
<path d="M90.9927 60.8416H90.2252L82.7287 50.7736V60.8416H81.8662V49.26H82.6356L90.1321 59.3452V49.26H90.9946V60.8416H90.9927Z" fill="white"/>
<path d="M100.481 49.26H104.137C105.026 49.26 105.835 49.3974 106.568 49.6704C107.3 49.9433 107.925 50.3327 108.443 50.8365C108.96 51.3404 109.361 51.9493 109.644 52.665C109.927 53.3788 110.068 54.1767 110.068 55.0604C110.068 55.9441 109.923 56.7571 109.636 57.471C109.35 58.1848 108.943 58.7917 108.421 59.2918C107.898 59.79 107.271 60.1736 106.538 60.4427C105.805 60.7118 104.995 60.8454 104.106 60.8454H100.483V49.2638L100.481 49.26ZM109.171 55.0584C109.171 54.2912 109.051 53.5983 108.81 52.978C108.569 52.3577 108.231 51.8329 107.79 51.4034C107.349 50.974 106.819 50.6419 106.198 50.4109C105.575 50.18 104.889 50.0635 104.135 50.0635H101.342V60.0533H104.102C104.866 60.0533 105.558 59.9388 106.181 59.706C106.802 59.475 107.336 59.1448 107.78 58.7135C108.225 58.2821 108.567 57.7611 108.808 57.1465C109.049 56.5319 109.169 55.8353 109.169 55.0584H109.171Z" fill="white"/>
<path d="M119.02 49.26H126.438V50.0635H119.882V54.4591H125.653V55.2627H119.882V60.0533H126.674V60.8416H119.02V49.26Z" fill="white"/>
<path d="M138.671 54.9802L144.144 60.8416H142.998L137.994 55.4364H136.568V60.8416H135.705V49.26H136.568V54.65H137.869L142.683 49.26H143.781L138.669 54.9802H138.671Z" fill="white"/>
<path d="M158.558 51.1037C158.224 50.7678 157.823 50.4815 157.357 50.2448C156.892 50.0082 156.35 49.8898 155.735 49.8898C155.327 49.8898 154.958 49.9452 154.629 50.0559C154.301 50.1666 154.023 50.3155 153.797 50.5044C153.573 50.6934 153.4 50.9167 153.28 51.1743C153.161 51.432 153.1 51.7069 153.1 52.0008C153.1 52.2947 153.155 52.5371 153.265 52.7566C153.375 52.978 153.524 53.1746 153.712 53.3483C153.9 53.522 154.116 53.6689 154.363 53.7892C154.608 53.9094 154.867 54.0068 155.14 54.0812L156.928 54.6175C157.88 54.9019 158.606 55.3065 159.109 55.8314C159.61 56.3563 159.861 57.0186 159.861 57.8164C159.861 58.2363 159.776 58.639 159.603 59.0226C159.43 59.4063 159.177 59.7441 158.843 60.04C158.509 60.3339 158.094 60.5686 157.604 60.7404C157.112 60.9141 156.554 61 155.927 61C155.467 61 155.03 60.9351 154.618 60.8034C154.204 60.6717 153.828 60.5114 153.489 60.3224C153.149 60.1335 152.859 59.9369 152.619 59.7308C152.378 59.5265 152.196 59.3509 152.07 59.2021L152.682 58.6657C152.798 58.7917 152.956 58.9444 153.161 59.1219C153.364 59.3013 153.603 59.4693 153.875 59.6258C154.147 59.7842 154.455 59.9197 154.8 60.0361C155.146 60.1526 155.522 60.2098 155.929 60.2098C156.43 60.2098 156.873 60.1449 157.255 60.0132C157.637 59.8815 157.956 59.7059 158.212 59.4845C158.469 59.2631 158.662 59.0093 158.792 58.7211C158.923 58.4329 158.987 58.1294 158.987 57.8145C158.987 57.2266 158.807 56.7342 158.446 56.341C158.085 55.9478 157.519 55.6291 156.744 55.3886L154.893 54.8217C154.527 54.7168 154.185 54.5832 153.866 54.4209C153.546 54.2587 153.263 54.0621 153.018 53.8293C152.773 53.5983 152.579 53.333 152.439 53.0333C152.298 52.7337 152.226 52.3844 152.226 51.9855C152.226 51.5866 152.312 51.2106 152.484 50.8594C152.657 50.5082 152.901 50.2028 153.214 49.9452C153.527 49.6875 153.898 49.4833 154.327 49.3306C154.757 49.1779 155.226 49.1016 155.739 49.1016C156.428 49.1016 157.065 49.239 157.644 49.5119C158.224 49.7849 158.714 50.1265 159.111 50.5369L158.562 51.1037H158.558Z" fill="white"/>
<path d="M24.7729 0C18.7792 0.2653 13.3155 2.57857 9.05051 6.2546C9.02392 6.28323 9.00492 6.30613 8.97642 6.33667C5.23389 10.236 6.0109 17.6492 9.47226 25.7475C9.36018 23.7625 9.59385 21.455 9.87881 19.3994C11.2751 9.37331 17.5083 1.63761 24.7729 0Z" fill="white"/>
<path d="M34.0727 1.73116C28.6355 0.967704 22.6779 5.01019 17.5029 11.8393C19.2127 10.7113 21.7432 9.49358 23.6582 8.71104C32.8549 4.96248 42.4962 6.41686 47.6047 11.7267C45.078 7.86742 41.5615 4.7239 37.4124 2.66257C36.341 2.18732 35.2049 1.88767 34.0746 1.73307" fill="white"/>
<path d="M9.59354 26.0205C9.59354 25.9995 9.59354 25.9804 9.59354 25.9613C9.58969 25.9708 9.582 25.9804 9.58008 25.9938L9.59162 26.0205H9.59354Z" fill="white"/>
<path d="M27.4268 52.0237C33.4129 51.6821 38.8462 49.302 43.0656 45.5668C46.3788 41.2208 45.7595 33.9069 42.4292 25.9288C42.5204 27.9749 42.357 30.7291 42.0891 32.6797C40.7137 42.5969 34.5965 50.2773 27.4268 52.0237Z" fill="white"/>
<path d="M17.3281 12.0702L17.3474 12.0549H17.3377C17.3377 12.0549 17.332 12.0645 17.3281 12.0702Z" fill="white"/>
<path d="M51.1449 21.077C49.1616 16.1585 42.8658 13.1047 34.6797 11.95C36.3762 12.8451 38.2322 14.1563 39.7577 15.3492C47.5525 21.4473 51.124 30.5057 49.1635 37.5848C50.8866 34.0997 51.8611 30.1736 51.8611 26.0185C51.8611 25.0546 51.8041 24.108 51.7054 23.1708C51.5857 22.4398 51.4109 21.7279 51.1449 21.077Z" fill="white"/>
<path d="M17.7062 50.178C22.8754 50.9071 28.5538 47.0745 33.573 40.6825C31.9924 41.6941 30.0793 42.6465 28.3126 43.368C18.9391 47.1833 9.11548 45.603 4.08301 40.045C6.5356 43.8909 9.96277 47.0459 14.0169 49.1569C15.1852 49.7008 16.4676 50.01 17.7062 50.1799" fill="white"/>
<path d="M17.6773 40.3352C15.9048 39.3981 13.741 37.9284 12.2117 36.7298C4.18707 30.4428 0.64022 21.0294 2.99972 13.8586C1.09046 17.4889 0 21.6287 0 26.0205C0 27.826 0.182377 29.582 0.530033 31.2807C2.76225 36.1458 9.29743 39.2206 17.6773 40.3352Z" fill="white"/>
<path d="M37.5318 26.0376C37.5318 32.4755 32.3341 37.6918 25.9319 37.6918C19.5297 37.6918 14.3281 32.4755 14.3281 26.0376C14.3281 19.5998 19.5221 14.3873 25.9319 14.3873C32.3417 14.3873 37.5318 19.6036 37.5318 26.0376Z" fill="white"/>
<path d="M98.4819 28.4558V34.01H110.205C110.54 34.01 110.834 34.3058 110.834 34.6379V38.1937C110.834 38.5277 110.538 38.8216 110.205 38.8216H93.9092C93.5767 38.8216 93.2842 38.5258 93.2842 38.1937V13.5246C93.2842 13.1906 93.5786 12.8928 93.9092 12.8928H110.205C110.54 12.8928 110.834 13.1925 110.834 13.5246V17.0785C110.834 17.4144 110.538 17.7083 110.205 17.7083H98.4819V23.6346H109.493C109.823 23.6346 110.118 23.9305 110.118 24.2645V27.8203C110.118 28.1543 109.822 28.4539 109.493 28.4539H98.4819V28.4558Z" fill="white"/>
<path d="M129.094 23.1174C133.118 24.4878 138.242 26.1178 137.909 31.6758C137.649 35.8996 133.887 39.1194 128.505 39.1194C124.856 39.1194 122.016 38.3083 119.065 36.7871C118.771 36.6401 118.663 36.2317 118.809 35.9377L120.503 32.7121C120.652 32.4144 121.056 32.2693 121.353 32.4144C123.638 33.489 125.925 34.2677 128.247 34.2677C130.568 34.2677 132.117 33.3019 132.379 31.7826C132.673 29.9313 130.757 28.9311 128.247 28.1543C124.341 26.9309 119.103 25.6731 119.103 20.0445C119.103 15.3035 122.607 12.4863 127.476 12.4863C128.872 12.4863 132.229 12.7822 136.321 14.5973C136.619 14.7442 136.765 15.1183 136.619 15.4485L135.257 18.6741C135.109 19.0062 134.738 19.1532 134.406 19.0463C132.894 18.4146 130.092 17.3743 127.844 17.3743C126.036 17.3743 124.417 17.9641 124.341 19.783C124.417 21.5218 126.552 22.2261 129.096 23.1155" fill="white"/>
<path d="M156.174 23.1174C160.196 24.4878 165.319 26.1178 164.985 31.6758C164.729 35.8996 160.965 39.1194 155.581 39.1194C151.934 39.1194 149.094 38.3083 146.141 36.7871C145.845 36.6401 145.741 36.2317 145.887 35.9377L147.581 32.7121C147.73 32.4144 148.132 32.2693 148.429 32.4144C150.718 33.489 153.001 34.2677 155.323 34.2677C157.644 34.2677 159.197 33.3019 159.457 31.7826C159.751 29.9313 157.836 28.9311 155.323 28.1543C151.419 26.9309 146.181 25.6731 146.181 20.0445C146.181 15.3035 149.683 12.4863 154.552 12.4863C155.95 12.4863 159.309 12.7822 163.401 14.5973C163.697 14.7442 163.845 15.1183 163.697 15.4485L162.331 18.6741C162.185 19.0062 161.816 19.1532 161.482 19.0463C159.974 18.4146 157.17 17.3743 154.922 17.3743C153.114 17.3743 151.497 17.9641 151.419 19.783C151.497 21.5218 153.632 22.2261 156.176 23.1155" fill="white"/>
<path d="M71.423 32.025C71.1571 32.317 70.8265 32.317 70.5586 32.025L64.4376 24.9077V37.8387C64.4376 38.3674 64.2058 38.7739 63.9095 38.7739H59.8934C59.5989 38.7739 59.3652 38.3674 59.3652 37.8387V13.3795C59.3652 12.91 59.5628 12.5626 59.8269 12.5626C60.127 12.5626 60.4291 12.7344 60.6913 12.9692L70.9899 24.4362L81.355 12.9692C81.5886 12.6771 81.8907 12.5626 82.1529 12.5626C82.415 12.5626 82.6183 12.91 82.6183 13.3204V37.8387C82.6183 38.3674 82.3827 38.7739 82.0883 38.7739H78.0019C77.7036 38.7739 77.47 38.3674 77.47 37.8387V24.9516L71.423 32.0231V32.025Z" fill="white"/>
<path d="M88.4911 12.8909H87.5469V38.7739H88.4911V12.8909Z" fill="white"/>
<path d="M115.47 12.8909H114.527V38.7739H115.47V12.8909Z" fill="white"/>
<path d="M142.418 12.8909H141.474V38.7739H142.418V12.8909Z" fill="white"/>
</g>
<defs>
<clipPath id="clip0_1_2770">
<rect width="165" height="61" fill="white"/>
</clipPath>
</defs>
</svg>
