<svg width="44" height="23" viewBox="0 0 44 23" fill="none" xmlns="http://www.w3.org/2000/svg">
<path fill-rule="evenodd" clip-rule="evenodd" d="M31.5401 0.970395C31.077 1.44356 31.077 2.20802 31.5433 2.67796L36.8351 8.02598L36.9573 8.13401C37.4246 8.49399 38.0916 8.4565 38.516 8.02276C38.7476 7.78618 38.8633 7.47879 38.8633 7.17139C38.8633 6.86078 38.7476 6.55178 38.5129 6.3152L33.2226 0.967177L33.1004 0.859514C32.6329 0.500765 31.9646 0.538139 31.5401 0.970395ZM1.04023 10.3202C0.454009 10.3947 0 10.9028 0 11.5178C0 12.1841 0.53283 12.7249 1.18935 12.7249H39.0966L31.5434 20.3582L31.4366 20.4815C31.0804 20.9536 31.1158 21.6321 31.5402 22.0658C32.0033 22.5374 32.7565 22.539 33.2212 22.069L42.8153 12.3724L42.9211 12.251C43.0821 12.0387 43.1658 11.7794 43.1658 11.5178C43.1658 11.3617 43.1356 11.2056 43.0754 11.0576C42.8914 10.6053 42.4585 10.3108 41.9764 10.3108H1.18935L1.04023 10.3202Z" fill="white"/>
</svg>
