<svg width="15" height="15" viewBox="0 0 15 15" fill="none" xmlns="http://www.w3.org/2000/svg">
<path d="M12.4999 6.87437H13.7499C13.7499 3.66812 11.3293 1.25 8.11865 1.25V2.5C10.6574 2.5 12.4999 4.33937 12.4999 6.87437Z" fill="white"/>
<path d="M8.12518 5.00003C9.43955 5.00003 10.0002 5.56065 10.0002 6.87503H11.2502C11.2502 4.8594 10.1408 3.75003 8.12518 3.75003V5.00003ZM10.2639 8.4019C10.1438 8.29275 9.98602 8.23453 9.8238 8.23955C9.66159 8.24456 9.50768 8.31241 9.39455 8.42878L7.89893 9.9669C7.53893 9.89815 6.81518 9.67253 6.07018 8.9294C5.32518 8.18378 5.09955 7.45815 5.03268 7.10065L6.56955 5.6044C6.68606 5.49136 6.75401 5.33742 6.75903 5.17516C6.76404 5.0129 6.70573 4.85505 6.59643 4.73503L4.28705 2.19565C4.1777 2.07525 4.02573 2.00222 3.8634 1.99206C3.70107 1.98191 3.54118 2.03544 3.41768 2.14128L2.06143 3.3044C1.95337 3.41285 1.88888 3.55718 1.88018 3.71003C1.8708 3.86628 1.69205 7.56753 4.56205 10.4388C7.0658 12.9419 10.2021 13.125 11.0658 13.125C11.1921 13.125 11.2696 13.1213 11.2902 13.12C11.443 13.1115 11.5873 13.0467 11.6952 12.9382L12.8577 11.5813C12.9636 11.4579 13.0172 11.298 13.0072 11.1357C12.9972 10.9734 12.9242 10.8213 12.8039 10.7119L10.2639 8.4019Z" fill="white"/>
</svg>
