<svg width="18" height="14" viewBox="0 0 18 14" fill="none" xmlns="http://www.w3.org/2000/svg">
<path d="M1 0.25C0.585786 0.25 0.25 0.585786 0.25 1C0.25 1.41421 0.585786 1.75 1 1.75V0.25ZM9 1.75C9.41421 1.75 9.75 1.41421 9.75 1C9.75 0.585786 9.41421 0.25 9 0.25V1.75ZM1 6.25C0.585786 6.25 0.25 6.58579 0.25 7C0.25 7.41421 0.585786 7.75 1 7.75V6.25ZM17 7.75C17.4142 7.75 17.75 7.41421 17.75 7C17.75 6.58579 17.4142 6.25 17 6.25V7.75ZM9 12.25C8.58579 12.25 8.25 12.5858 8.25 13C8.25 13.4142 8.58579 13.75 9 13.75V12.25ZM17 13.75C17.4142 13.75 17.75 13.4142 17.75 13C17.75 12.5858 17.4142 12.25 17 12.25V13.75ZM1 1.75H9V0.25H1V1.75ZM1 7.75H17V6.25H1V7.75ZM9 13.75H17V12.25H9V13.75Z" fill="white"/>
</svg>
