<svg width="34" height="34" viewBox="0 0 34 34" fill="none" xmlns="http://www.w3.org/2000/svg">
<path d="M16.7389 3.32788C9.10017 3.32788 2.88541 9.54623 2.88541 17.1896C2.88541 24.833 9.10017 31.0514 16.7389 31.0514C24.3779 31.0514 30.5927 24.833 30.5927 17.1896C30.5927 9.54623 24.3777 3.32788 16.7389 3.32788ZM16.7389 29.6842C9.8535 29.6842 4.25179 24.079 4.25179 17.1896C4.25179 10.3002 9.8535 4.69505 16.7389 4.69505C23.6244 4.69505 29.2263 10.3002 29.2263 17.1896C29.2263 24.079 23.6244 29.6842 16.7389 29.6842Z" fill="#273349" fill-opacity="0.75"/>
<path d="M21.0738 10.5137H12.4041C11.1254 10.5137 10.0849 11.5545 10.0849 12.8342V21.5488C10.0849 22.8282 11.1252 23.8693 12.4041 23.8693H21.0736C22.3523 23.8693 23.3928 22.8285 23.3928 21.5488V12.834C23.3928 11.5545 22.3525 10.5137 21.0738 10.5137ZM18.7444 17.1668C18.7444 18.2733 17.8448 19.1733 16.739 19.1733C15.6331 19.1733 14.7336 18.2733 14.7336 17.1668C14.7336 16.6179 14.9554 16.1202 15.3134 15.7577H18.1643C18.5228 16.1202 18.7444 16.6179 18.7444 17.1668ZM19.3258 12.3703H21.3571V14.4641H19.3258V12.3703ZM21.0738 22.5019H12.4041C11.8787 22.5019 11.4513 22.0742 11.4513 21.5486V15.7577H13.6794C13.481 16.1872 13.3672 16.6634 13.3672 17.1668C13.3672 19.0273 14.8798 20.5405 16.739 20.5405C18.5982 20.5405 20.1107 19.027 20.1107 17.1668C20.1107 16.6634 19.9969 16.1872 19.7985 15.7577H22.0264V21.5486C22.0264 22.0742 21.599 22.5019 21.0738 22.5019Z" fill="#273349" fill-opacity="0.75"/>
</svg>
