<svg width="34" height="34" viewBox="0 0 34 34" fill="none" xmlns="http://www.w3.org/2000/svg">
<path d="M17.0174 3.32788C9.37866 3.32788 3.16389 9.54623 3.16389 17.1896C3.16389 24.8332 9.37866 31.0514 17.0174 31.0514C24.6564 31.0514 30.8714 24.8332 30.8714 17.1896C30.8712 9.54623 24.6562 3.32788 17.0174 3.32788ZM17.0174 29.6842C10.132 29.6842 4.53028 24.0793 4.53028 17.1896C4.53028 10.3002 10.132 4.69505 17.0174 4.69505C23.9029 4.69505 29.505 10.3002 29.505 17.1896C29.5048 24.0793 23.9029 29.6842 17.0174 29.6842Z" fill="#273349" fill-opacity="0.75"/>
<path d="M13.187 14.2527H9.98102V22.623H13.187V14.2527Z" fill="#273349" fill-opacity="0.75"/>
<path d="M11.5521 12.9173C12.4483 12.9173 13.1747 12.2542 13.1747 11.4362C13.1747 10.6182 12.4483 9.95508 11.5521 9.95508C10.656 9.95508 9.92955 10.6182 9.92955 11.4362C9.92955 12.2542 10.656 12.9173 11.5521 12.9173Z" fill="#273349" fill-opacity="0.75"/>
<path d="M21.2457 14.0635C20.5892 14.0635 20.0328 14.1831 19.5755 14.4221C19.1187 14.6614 18.6673 15.0592 18.2208 15.6161V14.2526H15.2352V22.6229H18.4412V18.6032C18.4412 17.8412 18.5621 17.3135 18.8038 17.0191C19.0454 16.7249 19.3601 16.5777 19.7488 16.5777C20.1007 16.5777 20.3737 16.6868 20.5682 16.9049C20.7627 17.123 20.8595 17.4946 20.8595 18.0203V22.6229H24.0814V17.303C24.0814 16.1995 23.8304 15.3837 23.3288 14.8555C22.8278 14.3273 22.1329 14.0635 21.2457 14.0635Z" fill="#273349" fill-opacity="0.75"/>
</svg>
