<svg width="49" height="48" viewBox="0 0 49 48" fill="none" xmlns="http://www.w3.org/2000/svg">
<g clip-path="url(#clip0_22_314)">
<path d="M1.31871 30.709H6.66678C7.40519 30.709 8.00404 31.3057 8.00404 32.042V45.3755C8.00404 46.1118 7.40519 46.709 6.66678 46.709H1.31871C0.5803 46.709 -0.0185547 46.1118 -0.0185547 45.3755V32.042C-0.0185547 31.3057 0.5803 30.709 1.31871 30.709Z" fill="#0E536C"/>
<path d="M14.6893 20.0419H20.0379C20.7763 20.0419 21.3751 20.6391 21.3751 21.3754V45.3754C21.3751 46.1118 20.7763 46.7089 20.0379 46.7089H14.6893C13.9509 46.7089 13.3525 46.1118 13.3525 45.3754V21.3754C13.3525 20.6391 13.9509 20.0419 14.6893 20.0419Z" fill="#0E536C"/>
<path d="M28.0599 25.3755H33.4085C34.1469 25.3755 34.7453 25.9727 34.7453 26.709V45.3755C34.7453 46.1118 34.1469 46.709 33.4085 46.709H28.0599C27.3215 46.709 26.7227 46.1118 26.7227 45.3755V26.709C26.7227 25.9727 27.3215 25.3755 28.0599 25.3755Z" fill="#0E536C"/>
<path d="M41.4315 17.3746H46.7796C47.518 17.3746 48.1168 17.9718 48.1168 18.7081V45.3746C48.1168 46.111 47.518 46.7081 46.7796 46.7081H41.4315C40.6931 46.7081 40.0942 46.111 40.0942 45.3746V18.7081C40.0942 17.9718 40.6931 17.3746 41.4315 17.3746Z" fill="#0E536C"/>
<path d="M44.1057 1.37585C41.8915 1.3783 40.0969 3.16785 40.0944 5.37585C40.0998 5.8114 40.1772 6.24304 40.3236 6.6532L33.6299 10.621C32.7515 9.69177 31.4779 9.24158 30.2087 9.41101C28.939 9.58045 27.8294 10.349 27.2266 11.476L21.3228 8.55994C21.3517 8.38855 21.3688 8.2157 21.3752 8.04236C21.3781 6.42322 20.4022 4.96228 18.9029 4.3407C17.4036 3.7196 15.6765 4.06091 14.5283 5.20544C13.3795 6.34998 13.0363 8.07166 13.6586 9.56726L6.00035 15.2665C5.39317 14.9056 4.69981 14.7133 3.99274 14.7094C1.77752 14.7094 -0.0185547 16.4999 -0.0185547 18.7094C-0.0185547 20.9183 1.77752 22.7094 3.99274 22.7094C6.20797 22.7094 8.00404 20.9183 8.00404 18.7094C8.00062 18.2279 7.90954 17.7518 7.73522 17.3031L15.4699 11.5468C16.9829 12.3881 18.8701 12.1415 20.1143 10.9393L26.8281 14.2553C27.2756 16.243 29.1515 17.577 31.1821 17.3514C33.2127 17.1259 34.7483 15.4135 34.7459 13.3759C34.7459 13.2743 34.7233 13.1786 34.716 13.079L41.9963 8.76306C42.6274 9.16101 43.3585 9.37341 44.1057 9.37586C46.321 9.37586 48.117 7.58484 48.117 5.37585C48.117 3.16687 46.321 1.37585 44.1057 1.37585Z" fill="#0E536C"/>
</g>
<defs>
<clipPath id="clip0_22_314">
<rect width="48.1356" height="48" fill="white" transform="translate(-0.0185547)"/>
</clipPath>
</defs>
</svg>
