<svg width="34" height="34" viewBox="0 0 34 34" fill="none" xmlns="http://www.w3.org/2000/svg">
<path d="M17.2959 3.32788C9.65715 3.32788 3.44238 9.54623 3.44238 17.1896C3.44238 24.8332 9.65715 31.0514 17.2959 31.0514C24.9349 31.0514 31.1499 24.8332 31.1499 17.1896C31.1497 9.54623 24.9347 3.32788 17.2959 3.32788ZM17.2959 29.6842C10.4105 29.6842 4.80877 24.0793 4.80877 17.1896C4.80877 10.3002 10.4105 4.69505 17.2959 4.69505C24.1813 4.69505 29.7835 10.3002 29.7835 17.1896C29.7833 24.0793 24.1813 29.6842 17.2959 29.6842Z" fill="#273349" fill-opacity="0.75"/>
<path d="M23.4827 12.6735C23.8011 12.509 24.5635 12.0202 24.9229 10.9712C24.9229 10.9712 24.0568 11.5978 22.8781 11.6716L22.8567 11.6834C22.2536 11.0249 21.3867 10.6118 20.4227 10.6118C18.599 10.6118 17.1208 12.0911 17.1208 13.9158C17.1208 14.1927 17.1552 14.4615 17.2196 14.7186L17.2037 14.6946C17.2037 14.6946 13.667 14.8974 10.3328 11.2478C10.3328 11.2478 8.85874 13.7545 11.3827 15.6715C10.83 15.7635 9.85392 15.2659 9.85392 15.2659C9.85392 15.2659 9.90903 17.9013 12.5247 18.5466C12.1012 18.6574 11.3089 18.6938 11.0511 18.5836C11.0511 18.5836 11.4378 20.5924 14.1091 20.9428C13.4275 21.33 12.1565 22.5094 9.28255 22.2881C9.28255 22.2881 11.3462 23.9836 15.1778 23.7444C19.0094 23.5051 21.7911 20.9242 22.9147 18.1964C24.0384 15.4687 23.7257 13.9156 23.7257 13.9156C23.7257 13.9156 24.6646 13.4225 25.31 12.2431C25.0119 12.3324 23.9063 12.6026 23.4948 12.7027C23.4907 12.6931 23.4866 12.6833 23.4827 12.6735Z" fill="#273349" fill-opacity="0.75"/>
</svg>
