<svg width="173" height="36" viewBox="0 0 173 36" fill="none" xmlns="http://www.w3.org/2000/svg">
<path d="M58.529 11.5562L53.284 25H55.5941L56.6355 22.2544H62.6568L63.6982 25H66.0083L60.7444 11.5562H58.529ZM57.374 20.2663L59.6462 14.2639L61.9183 20.2663H57.374ZM76.9176 25H79.2087L75.9898 20.058C77.6371 19.4331 78.6217 17.9941 78.6217 16.0438C78.6217 13.374 76.804 11.5562 73.9638 11.5562H69.4194V25H71.559V20.3988H73.9638H73.9827L76.9176 25ZM71.559 18.5243V13.5444H73.7176C75.3649 13.5444 76.4442 14.3207 76.4442 16.0438C76.4442 17.7669 75.3649 18.5243 73.7176 18.5243H71.559ZM87.2879 11.5562L82.0429 25H84.353L85.3944 22.2544H91.4157L92.4571 25H94.7672L89.5033 11.5562H87.2879ZM86.1328 20.2663L88.405 14.2639L90.6772 20.2663H86.1328ZM100.497 28.3704V29.1089C102.107 29.4686 103.811 28.787 103.811 27.3669C103.811 26.458 103.129 25.7763 102.107 25.7574L102.523 25.1704C104.568 24.9621 106.443 23.6367 106.443 21.2509C106.443 19.2817 105.174 18.2402 102.883 17.3314L101.974 16.9716C100.459 16.3657 99.967 15.7408 99.967 14.9266C99.967 13.8852 100.838 13.2982 101.936 13.2982C103.091 13.2982 103.905 13.9231 104.455 15.0592L106.064 14.1882C105.496 12.7491 104.152 11.3669 101.861 11.3669C99.6451 11.3669 97.8463 12.7302 97.8463 14.9077C97.8463 16.8201 99.2096 17.8615 101.122 18.6189L101.993 18.9598C103.451 19.5467 104.227 20.058 104.227 21.232C104.227 22.5763 103.167 23.2201 101.936 23.2201C100.459 23.2201 99.4558 22.2923 99.0771 21.0805L97.3351 21.8757C97.7516 23.5609 99.1528 24.7917 101.008 25.1136L100.365 26.174L100.63 26.6852C101.823 26.5337 102.258 26.9882 102.258 27.5183C102.258 28.2189 101.52 28.4083 100.497 28.3704ZM112.478 25H114.618V13.5444H118.007V11.5562H109.089V13.5444H112.478V25ZM121.686 25H123.825V11.5562H121.686V25ZM135.464 25H137.755L134.536 20.058C136.184 19.4331 137.168 17.9941 137.168 16.0438C137.168 13.374 135.351 11.5562 132.51 11.5562H127.966V25H130.106V20.3988H132.51H132.529L135.464 25ZM130.106 18.5243V13.5444H132.264C133.912 13.5444 134.991 14.3207 134.991 16.0438C134.991 17.7669 133.912 18.5243 132.264 18.5243H130.106ZM141.532 25H143.671V15.7219H143.766L147.875 25H149.466L153.593 15.7219H153.688V25H155.828V11.5562H153.461L148.67 22.2544L143.899 11.5562H141.532V25ZM164.467 11.5562L159.222 25H161.532L162.573 22.2544H168.595L169.636 25H171.946L166.682 11.5562H164.467ZM163.312 20.2663L165.584 14.2639L167.856 20.2663H163.312Z" fill="white"/>
<path d="M16.8668 0C16.3191 0.265124 15.7902 0.549185 15.2803 0.87112C14.7042 1.22146 14.1565 1.60021 13.6276 2.01683C11.4461 3.7212 9.66117 5.92741 8.45236 8.44608C8.3957 8.57864 8.33903 8.70173 8.28237 8.8343C7.37576 10.8322 6.82802 13.0195 6.70525 15.3298C6.70525 15.6423 6.68636 15.9453 6.68636 16.2578C6.68636 16.8164 6.71469 17.3751 6.76191 17.9242C6.74302 17.9716 6.72413 18 6.70525 18.0379C6.48804 17.6307 6.28972 17.2046 6.11028 16.7785C5.36422 15.0552 4.88258 13.1899 4.72204 11.2393C4.67482 10.8227 4.65593 10.4061 4.65593 9.98001C4.64648 9.87585 4.64648 9.76223 4.64648 9.6486C4.64648 9.0142 4.68426 8.38927 4.74092 7.76433C4.90147 6.19253 5.67587 4.75329 6.91301 3.78748C7.81962 3.07733 8.80178 2.45239 9.84061 1.93161C11.1439 1.25934 12.5416 0.738558 14.0148 0.416623C14.9403 0.198843 15.8941 0.0568122 16.8668 0V0Z" fill="white"/>
<path d="M12.107 27.6012C11.5687 27.5539 11.0399 27.4876 10.5205 27.3929C8.63169 27.0615 6.83736 26.4366 5.20357 25.5655C5.02414 25.4708 4.85415 25.3761 4.68416 25.2719C3.79643 24.7606 2.95593 24.1736 2.17209 23.5297C0.972718 22.526 0.198321 21.1057 0.066107 19.5529C0.0188877 19.051 0 18.5397 0 18.0189C0 17.8769 0 17.7349 0.00944386 17.5928C0.0472193 15.9358 0.302204 14.3451 0.764953 12.8301C1.01049 11.959 1.33158 11.1162 1.71878 10.3114C1.70934 10.6144 1.6999 10.9174 1.6999 11.2299C1.6999 11.4761 1.6999 11.7222 1.71878 11.9684C1.74711 12.7354 1.82267 13.4929 1.95488 14.2314C2.40819 16.9868 3.49423 19.5339 5.06191 21.7212C5.10913 21.7875 5.15635 21.8632 5.20357 21.9295C6.44071 23.6149 7.95173 25.0542 9.67996 26.2283C10.4449 26.7396 11.2571 27.1941 12.0976 27.5823L12.107 27.6012Z" fill="white"/>
<path d="M32.9028 7.88742C32.44 7.57496 31.9584 7.2909 31.4579 7.02577C30.9196 6.74171 30.3624 6.47659 29.7957 6.25881C27.7086 5.39716 25.4138 4.92372 23.015 4.92372C22.4862 4.92372 21.9573 4.94266 21.4379 4.99947C21.4379 4.99947 21.4316 4.99631 21.419 4.99C21.419 4.99 21.3813 4.9616 21.3718 4.95213C21.3813 4.9616 21.4001 4.98053 21.4096 4.99947C19.0203 5.20778 16.7632 5.88953 14.7328 6.95002C14.2323 7.20568 13.7412 7.48974 13.269 7.80221C12.9007 8.02945 12.5418 8.28511 12.1924 8.55023C12.3435 8.29458 12.504 8.04839 12.674 7.81167C12.8157 7.59389 12.9762 7.38558 13.1273 7.17727C14.3739 5.54865 15.8944 4.12835 17.6132 3.01104C17.8776 2.83114 18.142 2.67017 18.4159 2.51867C19.1431 2.09258 19.908 1.71383 20.7013 1.3919C22.1273 0.814305 23.7233 0.833243 25.1399 1.43924C26.1976 1.89374 27.2081 2.45239 28.1431 3.09626C29.2763 3.8727 30.3152 4.77222 31.2312 5.78537C31.8451 6.43871 32.4022 7.14886 32.9028 7.88742Z" fill="white"/>
<path d="M23.2978 27.9232C23.0239 28.3209 22.7406 28.6997 22.429 29.0689C21.1635 30.6123 19.643 31.9474 17.9337 32.9984C17.8015 33.0742 17.6787 33.1499 17.5465 33.2257C16.6493 33.7465 15.6955 34.201 14.7133 34.5608C13.2779 35.0816 11.7007 34.9963 10.3219 34.343C9.55698 33.9832 8.82036 33.5666 8.13096 33.1121C7.05436 32.3924 6.05331 31.5687 5.15614 30.6502C4.34397 29.8264 3.61679 28.9174 2.97461 27.9516C3.56957 28.3588 4.19287 28.7281 4.84449 29.0689H4.85394C5.34502 29.3246 5.82666 29.5518 6.34607 29.7601C8.43316 30.6123 10.728 31.0858 13.1268 31.0858C13.5423 31.0858 13.9578 31.0668 14.3734 31.0384C14.5245 31.0289 14.6661 31.0195 14.8172 31.0005C17.0554 30.8017 19.1708 30.1768 21.0879 29.2204C21.8623 28.8417 22.599 28.4061 23.3072 27.9232H23.2978Z" fill="white"/>
<path d="M31.212 25.859C31.212 26.8532 31.1365 27.8285 30.9759 28.7754C30.7304 30.2715 29.9371 31.616 28.7283 32.5155C27.8217 33.1973 26.849 33.7843 25.8196 34.2767C24.7713 34.788 23.6569 35.1952 22.5048 35.4982C21.5321 35.7538 20.5216 35.9243 19.4922 36C20.0588 35.716 20.6066 35.394 21.1354 35.0437C21.5604 34.7691 21.9759 34.4756 22.3726 34.1631C24.6485 32.383 26.4806 30.0726 27.6895 27.4119C27.7745 27.2509 27.8406 27.0805 27.9067 26.9195C28.6811 25.0826 29.1627 23.0847 29.2855 21.0016C29.3044 20.6418 29.3138 20.282 29.3138 19.9222C29.3138 19.4771 29.2949 19.0416 29.2666 18.606C29.2383 18.2083 29.2005 17.8106 29.1344 17.4224C29.2666 17.6686 29.3988 17.9148 29.5121 18.1705C29.6916 18.5492 29.8521 18.9374 30.0032 19.3256C30.7115 21.1342 31.127 23.0847 31.2026 25.1205C31.212 25.253 31.212 25.3856 31.212 25.5276C31.2215 25.6318 31.2215 25.7454 31.2215 25.859H31.212Z" fill="white"/>
<path d="M35.9995 18.0189C35.9995 18.3314 35.9901 18.6438 35.9807 18.9468C35.9146 20.102 35.754 21.2193 35.4896 22.2988C35.2346 23.3498 34.8852 24.3724 34.4508 25.3382C34.4602 25.1962 34.4602 25.0542 34.4602 24.9121C34.4602 24.3819 34.4413 23.8516 34.3847 23.3308C34.3469 22.8574 34.2902 22.384 34.2052 21.92C33.7519 19.1267 32.647 16.5607 31.0699 14.364C31.0793 14.2788 31.0793 14.1841 31.0887 14.0894C31.0699 14.1651 31.051 14.2409 31.0226 14.3072C29.7005 12.4797 28.0478 10.9174 26.1496 9.70539C25.498 9.2793 24.818 8.90055 24.1097 8.57862C24.1003 8.53127 24.072 8.48393 24.0342 8.43658C24.4686 8.46499 24.8936 8.51233 25.3091 8.57862C27.3112 8.87215 29.2 9.49708 30.9282 10.4061C31.1643 10.5197 31.3909 10.6428 31.6082 10.7754C32.2503 11.1446 33.0908 11.779 33.8275 12.3756C35.0268 13.3414 35.7729 14.7522 35.9146 16.2861C35.9712 16.8543 35.9995 17.4319 35.9995 18.0189Z" fill="white"/>
<path d="M18.0373 25.9063C22.3872 25.9063 25.9135 22.3708 25.9135 18.0094C25.9135 13.6481 22.3872 10.1125 18.0373 10.1125C13.6874 10.1125 10.1611 13.6481 10.1611 18.0094C10.1611 22.3708 13.6874 25.9063 18.0373 25.9063Z" fill="white"/>
</svg>
