<svg width="416" height="392" viewBox="0 0 416 392" fill="none" xmlns="http://www.w3.org/2000/svg">
<g opacity="0.4">
<path d="M194.904 0C188.575 3.06365 182.464 6.34613 176.571 10.0663C169.914 14.1147 163.584 18.4913 157.473 23.3056C132.264 43.0005 111.639 68.4945 97.6704 97.5992C97.0157 99.131 96.3609 100.553 95.7061 102.085C85.2297 125.172 78.9002 150.447 77.4815 177.145C77.4815 180.755 77.2633 184.257 77.2633 187.867C77.2633 194.323 77.5907 200.779 78.1363 207.125C77.9181 207.672 77.6998 208 77.4815 208.438C74.9716 203.733 72.6799 198.809 70.6064 193.885C61.9852 173.972 56.4196 152.417 54.5644 129.877C54.0188 125.063 53.8005 120.248 53.8005 115.325C53.6914 114.121 53.6914 112.808 53.6914 111.495C53.6914 104.164 54.1279 96.9426 54.7827 89.7212C56.6379 71.5581 65.5865 54.9269 79.8824 43.7664C90.3588 35.5602 101.708 28.3388 113.712 22.3209C128.772 14.5523 144.923 8.53445 161.947 4.81431C172.642 2.29774 183.664 0.656496 194.904 0V0Z" fill="#08A3FF" fill-opacity="0.12"/>
<path d="M139.903 318.948C133.683 318.401 127.572 317.635 121.57 316.541C99.744 312.711 79.0094 305.49 60.1301 295.423C58.0567 294.329 56.0923 293.235 54.128 292.031C43.8699 286.123 34.1574 279.339 25.0997 271.899C11.2403 260.301 2.29171 243.888 0.763903 225.944C0.218258 220.145 0 214.237 0 208.219C0 206.578 0 204.936 0.109129 203.295C0.545645 184.147 3.49213 165.765 8.83945 148.259C11.6768 138.192 15.3872 128.454 19.8615 119.154C19.7524 122.655 19.6432 126.157 19.6432 129.767C19.6432 132.612 19.6432 135.457 19.8615 138.302C20.1889 147.165 21.0619 155.918 22.5897 164.452C27.8279 196.292 40.3778 225.725 58.4932 251C59.0388 251.766 59.5845 252.642 60.1301 253.408C74.426 272.884 91.8867 289.515 111.857 303.083C120.697 308.991 130.082 314.243 139.794 318.729L139.903 318.948Z" fill="#08A3FF" fill-opacity="0.12"/>
<path d="M380.206 91.1436C374.858 87.5329 369.293 84.2504 363.509 81.1868C357.289 77.9043 350.85 74.8406 344.302 72.3241C320.185 62.3672 293.666 56.8964 265.948 56.8964C259.836 56.8964 253.725 57.1152 247.723 57.7717C247.723 57.7717 247.65 57.7353 247.505 57.6623C247.505 57.6623 247.068 57.3341 246.959 57.2247C247.068 57.3341 247.287 57.5529 247.396 57.7717C219.786 60.1789 193.704 68.0568 170.241 80.3114C164.458 83.2657 158.783 86.5482 153.326 90.1589C149.07 92.7849 144.924 95.7391 140.886 98.8028C142.632 95.8485 144.487 93.0037 146.451 90.2683C148.088 87.7517 149.943 85.3446 151.69 82.9374C166.095 64.1179 183.664 47.7055 203.526 34.7944C206.581 32.7155 209.637 30.8554 212.802 29.1047C221.205 24.181 230.044 19.8044 239.211 16.0842C255.69 9.40983 274.132 9.62866 290.502 16.6313C302.724 21.8833 314.401 28.3388 325.205 35.7791C338.3 44.7512 350.304 55.1457 360.89 66.8533C367.983 74.403 374.422 82.6092 380.206 91.1436Z" fill="#08A3FF" fill-opacity="0.12"/>
<path d="M269.222 322.668C266.057 327.263 262.783 331.64 259.182 335.907C244.559 353.742 226.989 369.17 207.236 381.315C205.709 382.19 204.29 383.065 202.762 383.941C192.395 389.959 181.373 395.211 170.023 399.368C153.436 405.386 135.211 404.402 119.278 396.852C110.439 392.694 101.927 387.88 93.9604 382.628C81.5197 374.312 69.9521 364.793 59.5848 354.18C50.1997 344.66 41.7968 334.156 34.376 322.996C41.2511 327.701 48.4536 331.968 55.9835 335.907H56.0927C61.7674 338.861 67.333 341.487 73.3351 343.894C97.4526 353.742 123.971 359.213 151.69 359.213C156.491 359.213 161.293 358.994 166.095 358.666C167.841 358.556 169.478 358.447 171.224 358.228C197.087 355.93 221.532 348.709 243.686 337.658C252.634 333.281 261.146 328.248 269.331 322.668H269.222Z" fill="#08A3FF" fill-opacity="0.12"/>
<path d="M360.671 298.815C360.671 310.304 359.798 321.574 357.943 332.516C355.106 349.803 345.939 365.34 331.97 375.735C321.494 383.613 310.254 390.397 298.359 396.086C286.245 401.995 273.368 406.7 260.054 410.201C248.814 413.155 237.137 415.125 225.242 416C231.79 412.718 238.119 408.997 244.231 404.949C249.141 401.776 253.943 398.384 258.527 394.773C284.827 374.203 305.998 347.506 319.966 316.76C320.948 314.9 321.712 312.93 322.476 311.07C331.425 289.843 336.99 266.757 338.409 242.685C338.627 238.527 338.736 234.369 338.736 230.212C338.736 225.069 338.518 220.036 338.191 215.003C337.863 210.407 337.427 205.812 336.663 201.326C338.191 204.171 339.719 207.015 341.028 209.97C343.102 214.346 344.957 218.832 346.703 223.318C354.888 244.217 359.689 266.757 360.562 290.281C360.671 291.813 360.671 293.345 360.671 294.986C360.781 296.189 360.781 297.502 360.781 298.815H360.671Z" fill="#08A3FF" fill-opacity="0.12"/>
<path d="M416 208.219C416 211.829 415.891 215.44 415.782 218.941C415.018 232.29 413.163 245.201 410.107 257.675C407.16 269.82 403.123 281.637 398.103 292.797C398.212 291.156 398.212 289.515 398.212 287.874C398.212 281.746 397.994 275.619 397.339 269.601C396.902 264.13 396.248 258.66 395.265 253.298C390.027 221.02 377.259 191.369 359.035 165.984C359.144 164.999 359.144 163.905 359.253 162.811C359.035 163.686 358.816 164.562 358.489 165.328C343.211 144.21 324.113 126.157 302.178 112.151C294.648 107.228 286.791 102.851 278.606 99.1309C278.497 98.5838 278.17 98.0367 277.733 97.4896C282.753 97.8179 287.664 98.365 292.466 99.1309C315.601 102.523 337.427 109.744 357.398 120.248C360.126 121.561 362.745 122.984 365.255 124.515C372.676 128.783 382.388 136.114 390.9 143.007C404.76 154.167 413.381 170.47 415.018 188.196C415.673 194.761 416 201.435 416 208.219Z" fill="#08A3FF" fill-opacity="0.12"/>
</g>
</svg>
