<svg width="258" height="36" viewBox="0 0 258 36" fill="none" xmlns="http://www.w3.org/2000/svg">
<path d="M62.1889 25H64.3285V15.7219H64.4232L68.5321 25H70.1226L74.2504 15.7219H74.3451V25H76.4847V11.5562H74.1179L69.3273 22.2544L64.5557 11.5562H62.1889V25ZM80.6364 25H88.2293V23.0118H82.776V19.2059H87.2447V17.2746H82.776V13.5444H88.0589V11.5562H80.6364V25ZM96.241 25.1893C98.4942 25.1893 100.729 23.8639 100.729 21.2509C100.729 19.2817 99.4599 18.2402 97.1688 17.3314L96.2599 16.9716C94.7451 16.3657 94.2528 15.7408 94.2528 14.9266C94.2528 13.8852 95.1238 13.2982 96.222 13.2982C97.377 13.2982 98.1912 13.9231 98.7404 15.0592L100.35 14.1882C99.7818 12.7491 98.4374 11.3669 96.1463 11.3669C93.9309 11.3669 92.1321 12.7302 92.1321 14.9077C92.1321 16.8201 93.4954 17.8615 95.4078 18.6189L96.2788 18.9598C97.7368 19.5467 98.5131 20.058 98.5131 21.232C98.5131 22.5763 97.4528 23.2201 96.222 23.2201C94.7451 23.2201 93.7415 22.2923 93.3628 21.0805L91.6208 21.8757C92.0942 23.826 93.9309 25.1893 96.241 25.1893ZM108.568 25.1893C110.821 25.1893 113.055 23.8639 113.055 21.2509C113.055 19.2817 111.787 18.2402 109.496 17.3314L108.587 16.9716C107.072 16.3657 106.58 15.7408 106.58 14.9266C106.58 13.8852 107.451 13.2982 108.549 13.2982C109.704 13.2982 110.518 13.9231 111.067 15.0592L112.677 14.1882C112.109 12.7491 110.764 11.3669 108.473 11.3669C106.258 11.3669 104.459 12.7302 104.459 14.9077C104.459 16.8201 105.822 17.8615 107.735 18.6189L108.606 18.9598C110.064 19.5467 110.84 20.058 110.84 21.232C110.84 22.5763 109.78 23.2201 108.549 23.2201C107.072 23.2201 106.068 22.2923 105.69 21.0805L103.948 21.8757C104.421 23.826 106.258 25.1893 108.568 25.1893ZM131.005 25H133.145V11.5562H131.005V17.3314H124.946V11.5562H122.806V25H124.946V19.3195H131.005V25ZM141.803 11.5562L136.558 25H138.868L139.909 22.2544H145.931L146.972 25H149.282L144.018 11.5562H141.803ZM140.648 20.2663L142.92 14.2639L145.192 20.2663H140.648ZM152.693 25H154.833V21.0615L156.386 19.2249L160.949 25H163.335L157.673 17.7101L162.88 11.5562H160.457L154.833 18.2402V11.5562H152.693V25ZM166.814 25H168.954V21.0615L170.506 19.2249L175.07 25H177.455L171.794 17.7101L177.001 11.5562H174.577L168.954 18.2402V11.5562H166.814V25ZM180.934 25H183.074V11.5562H180.934V25ZM187.215 25H189.354V15.097H189.449L196.247 25H198.405V11.5562H196.266V21.4592H196.171L189.354 11.5562H187.215V25ZM202.574 25H207.043C210.868 25 213.594 22.2544 213.594 18.2781C213.594 14.3018 210.868 11.5562 207.043 11.5562H202.574V25ZM204.714 22.974V13.5822H206.967C209.826 13.5822 211.379 15.4757 211.379 18.2781C211.379 21.0805 209.826 22.974 206.967 22.974H204.714ZM220.609 11.5562L215.364 25H217.674L218.716 22.2544H224.737L225.778 25H228.088L222.825 11.5562H220.609ZM219.454 20.2663L221.726 14.2639L223.998 20.2663H219.454Z" fill="#007AC3"/>
<path d="M19.4593 0C18.8274 0.265124 18.2172 0.549185 17.6289 0.87112C16.9642 1.22146 16.3323 1.60021 15.7221 2.01683C13.2052 3.7212 11.1459 5.92741 9.7513 8.44608C9.68593 8.57864 9.62055 8.70173 9.55518 8.8343C8.5092 10.8322 7.87725 13.0195 7.7356 15.3298C7.7356 15.6423 7.71381 15.9453 7.71381 16.2578C7.71381 16.8164 7.7465 17.3751 7.80098 17.9242C7.77919 17.9716 7.7574 18 7.7356 18.0379C7.485 17.6307 7.2562 17.2046 7.04918 16.7785C6.18842 15.0552 5.63274 13.1899 5.44752 11.2393C5.39304 10.8227 5.37125 10.4061 5.37125 9.98001C5.36035 9.87585 5.36035 9.76223 5.36035 9.6486C5.36035 9.0142 5.40393 8.38927 5.46931 7.76433C5.65453 6.19253 6.54798 4.75329 7.97531 3.78748C9.02129 3.07733 10.1544 2.45239 11.353 1.93161C12.8566 1.25934 14.4691 0.738558 16.1688 0.416623C17.2366 0.198843 18.3371 0.0568122 19.4593 0V0Z" fill="#007AC3"/>
<path d="M13.9682 27.6012C13.3472 27.5539 12.737 27.4876 12.1378 27.3929C9.95863 27.0615 7.88846 26.4366 6.00351 25.5655C5.79649 25.4708 5.60037 25.3761 5.40425 25.2719C4.38006 24.7606 3.41034 24.1736 2.506 23.5297C1.12225 22.526 0.228809 21.1057 0.0762696 19.5529C0.0217913 19.051 0 18.5397 0 18.0189C0 17.8769 0 17.7349 0.0108957 17.5928C0.0544783 15.9358 0.348661 14.3451 0.882548 12.8301C1.16584 11.959 1.53629 11.1162 1.98301 10.3114C1.97211 10.6144 1.96122 10.9174 1.96122 11.2299C1.96122 11.4761 1.96122 11.7222 1.98301 11.9684C2.0157 12.7354 2.10286 13.4929 2.2554 14.2314C2.77839 16.9868 4.03139 19.5339 5.84007 21.7212C5.89455 21.7875 5.94903 21.8632 6.00351 21.9295C7.43084 23.6149 9.17415 25.0542 11.1681 26.2283C12.0506 26.7396 12.9876 27.1941 13.9573 27.5823L13.9682 27.6012V27.6012Z" fill="#007AC3"/>
<path d="M37.9606 7.88748C37.4267 7.57502 36.871 7.29096 36.2936 7.02583C35.6725 6.74177 35.0297 6.47665 34.3759 6.25887C31.968 5.39722 29.3203 4.92378 26.5528 4.92378C25.9427 4.92378 25.3325 4.94272 24.7333 4.99953C24.7333 4.99953 24.726 4.99637 24.7115 4.99006C24.7115 4.99006 24.6679 4.96166 24.657 4.95219C24.6679 4.96166 24.6897 4.98059 24.7006 4.99953C21.944 5.20784 19.3399 5.88959 16.9973 6.95008C16.4199 7.20574 15.8533 7.4898 15.3085 7.80227C14.8836 8.02951 14.4695 8.28517 14.0664 8.55029C14.2407 8.29464 14.426 8.04845 14.6221 7.81173C14.7855 7.59395 14.9707 7.38564 15.1451 7.17733C16.5833 5.54872 18.3375 4.12841 20.3205 3.0111C20.6256 2.8312 20.9307 2.67023 21.2466 2.51873C22.0856 2.09264 22.9682 1.71389 23.8834 1.39196C25.5286 0.814366 27.37 0.833304 29.0044 1.4393C30.2247 1.8938 31.3905 2.45245 32.4692 3.09632C33.7767 3.87276 34.9752 4.77228 36.0321 5.78543C36.7403 6.43877 37.3831 7.14893 37.9606 7.88748V7.88748Z" fill="#007AC3"/>
<path d="M26.8801 27.9232C26.5641 28.3209 26.2372 28.6997 25.8777 29.0689C24.4177 30.6123 22.6635 31.9474 20.6913 32.9984C20.5388 33.0742 20.3972 33.1499 20.2446 33.2257C19.2095 33.7465 18.1091 34.201 16.9759 34.5608C15.3198 35.0816 13.5002 34.9963 11.9094 34.343C11.0269 33.9832 10.177 33.5666 9.38165 33.1121C8.13954 32.3924 6.9846 31.5687 5.94951 30.6502C5.01249 29.8264 4.17352 28.9174 3.43262 27.9516C4.11904 28.3588 4.83816 28.7281 5.58996 29.0689H5.60085C6.16743 29.3246 6.72311 29.5518 7.32237 29.7601C9.73031 30.6123 12.378 31.0858 15.1455 31.0858C15.6249 31.0858 16.1043 31.0668 16.5837 31.0384C16.758 31.0289 16.9214 31.0195 17.0958 31.0005C19.678 30.8017 22.1187 30.1768 24.3305 29.2204C25.2239 28.8417 26.0738 28.4061 26.891 27.9232H26.8801Z" fill="#007AC3"/>
<path d="M36.0098 25.859C36.0098 26.8532 35.9226 27.8285 35.7374 28.7753C35.4541 30.2714 34.5389 31.6159 33.1442 32.5155C32.0983 33.1972 30.976 33.7843 29.7884 34.2766C28.579 34.788 27.2933 35.1951 25.964 35.4981C24.8417 35.7538 23.6759 35.9242 22.4883 36C23.142 35.7159 23.774 35.394 24.3841 35.0436C24.8744 34.769 25.3538 34.4755 25.8115 34.163C28.4373 32.3829 30.5511 30.0725 31.9457 27.4118C32.0438 27.2509 32.12 27.0804 32.1963 26.9195C33.0898 25.0825 33.6454 23.0846 33.7871 21.0015C33.8089 20.6417 33.8198 20.2819 33.8198 19.9221C33.8198 19.4771 33.798 19.0415 33.7653 18.606C33.7326 18.2083 33.689 17.8106 33.6127 17.4224C33.7653 17.6685 33.9178 17.9147 34.0486 18.1704C34.2556 18.5491 34.4408 18.9374 34.6152 19.3256C35.4323 21.1341 35.9117 23.0846 35.9989 25.1204C36.0098 25.253 36.0098 25.3855 36.0098 25.5276C36.0207 25.6317 36.0207 25.7454 36.0207 25.859H36.0098Z" fill="#007AC3"/>
<path d="M41.5343 18.019C41.5343 18.3314 41.5234 18.6439 41.5125 18.9469C41.4362 20.1021 41.251 21.2194 40.9459 22.2988C40.6517 23.3498 40.2486 24.3725 39.7474 25.3383C39.7583 25.1962 39.7583 25.0542 39.7583 24.9122C39.7583 24.3819 39.7365 23.8517 39.6711 23.3309C39.6275 22.8575 39.5622 22.384 39.4641 21.9201C38.9411 19.1268 37.6663 16.5608 35.8468 14.3641C35.8577 14.2788 35.8576 14.1841 35.8685 14.0895C35.8468 14.1652 35.825 14.241 35.7923 14.3072C34.2669 12.4798 32.3601 10.9174 30.1701 9.70545C29.4183 9.27936 28.6338 8.90061 27.8167 8.57868C27.8058 8.53133 27.7731 8.48399 27.7295 8.43665C28.2307 8.46505 28.721 8.5124 29.2004 8.57868C31.5103 8.87221 33.6894 9.49714 35.6833 10.4061C35.9557 10.5198 36.2172 10.6429 36.4678 10.7754C37.2087 11.1447 38.1784 11.7791 39.0283 12.3756C40.412 13.3414 41.2728 14.7523 41.4362 16.2862C41.5016 16.8543 41.5343 17.4319 41.5343 18.019V18.019Z" fill="#007AC3"/>
<path d="M20.8106 25.9063C25.8292 25.9063 29.8976 22.3708 29.8976 18.0094C29.8976 13.6481 25.8292 10.1125 20.8106 10.1125C15.792 10.1125 11.7236 13.6481 11.7236 18.0094C11.7236 22.3708 15.792 25.9063 20.8106 25.9063Z" fill="#007AC3"/>
</svg>
