<svg width="258" height="36" viewBox="0 0 258 36" fill="none" xmlns="http://www.w3.org/2000/svg">
<path d="M62.1889 25H64.3285V15.7219H64.4232L68.5321 25H70.1226L74.2504 15.7219H74.3451V25H76.4847V11.5562H74.1179L69.3273 22.2544L64.5557 11.5562H62.1889V25ZM80.6364 25H88.2293V23.0118H82.776V19.2059H87.2447V17.2746H82.776V13.5444H88.0589V11.5562H80.6364V25ZM100.525 25H103.043L98.385 18.1456L102.854 11.5562H100.354L97.1353 16.2899L93.9353 11.5562H91.417L95.8856 18.1456L91.2466 25H93.746L97.1353 20.0012L100.525 25ZM109.353 25H111.492V13.5444H114.882V11.5562H105.963V13.5444H109.353V25ZM132.817 25H134.957V11.5562H132.817V17.3314H126.758V11.5562H124.619V25H126.758V19.3195H132.817V25ZM143.615 11.5562L138.37 25H140.68L141.722 22.2544H147.743L148.784 25H151.094L145.83 11.5562H143.615ZM142.46 20.2663L144.732 14.2639L147.004 20.2663H142.46ZM154.505 25H156.645V21.0615L158.198 19.2249L162.761 25H165.147L159.485 17.7101L164.692 11.5562H162.269L156.645 18.2402V11.5562H154.505V25ZM168.626 25H170.766V21.0615L172.318 19.2249L176.882 25H179.267L173.606 17.7101L178.813 11.5562H176.389L170.766 18.2402V11.5562H168.626V25ZM182.747 25H184.886V11.5562H182.747V25ZM189.027 25H191.167V15.097H191.261L198.059 25H200.217V11.5562H198.078V21.4592H197.983L191.167 11.5562H189.027V25ZM204.386 25H208.855C212.68 25 215.406 22.2544 215.406 18.2781C215.406 14.3018 212.68 11.5562 208.855 11.5562H204.386V25ZM206.526 22.974V13.5822H208.779C211.638 13.5822 213.191 15.4757 213.191 18.2781C213.191 21.0805 211.638 22.974 208.779 22.974H206.526ZM222.421 11.5562L217.176 25H219.486L220.528 22.2544H226.549L227.591 25H229.901L224.637 11.5562H222.421ZM221.266 20.2663L223.538 14.2639L225.811 20.2663H221.266Z" fill="#007AC3"/>
<path d="M19.4593 0C18.8274 0.265124 18.2172 0.549185 17.6289 0.87112C16.9642 1.22146 16.3323 1.60021 15.7221 2.01683C13.2052 3.7212 11.1459 5.92741 9.7513 8.44608C9.68593 8.57864 9.62055 8.70173 9.55518 8.8343C8.5092 10.8322 7.87725 13.0195 7.7356 15.3298C7.7356 15.6423 7.71381 15.9453 7.71381 16.2578C7.71381 16.8164 7.7465 17.3751 7.80098 17.9242C7.77919 17.9716 7.7574 18 7.7356 18.0379C7.485 17.6307 7.2562 17.2046 7.04918 16.7785C6.18842 15.0552 5.63274 13.1899 5.44752 11.2393C5.39304 10.8227 5.37125 10.4061 5.37125 9.98001C5.36035 9.87585 5.36035 9.76223 5.36035 9.6486C5.36035 9.0142 5.40393 8.38927 5.46931 7.76433C5.65453 6.19253 6.54798 4.75329 7.97531 3.78748C9.02129 3.07733 10.1544 2.45239 11.353 1.93161C12.8566 1.25934 14.4691 0.738558 16.1688 0.416623C17.2366 0.198843 18.3371 0.0568122 19.4593 0V0Z" fill="#007AC3"/>
<path d="M13.9682 27.6012C13.3472 27.5539 12.737 27.4876 12.1378 27.3929C9.95863 27.0615 7.88846 26.4366 6.00351 25.5655C5.79649 25.4708 5.60037 25.3761 5.40425 25.2719C4.38006 24.7606 3.41034 24.1736 2.506 23.5297C1.12225 22.526 0.228809 21.1057 0.0762696 19.5529C0.0217913 19.051 0 18.5397 0 18.0189C0 17.8769 0 17.7349 0.0108957 17.5928C0.0544783 15.9358 0.348661 14.3451 0.882548 12.8301C1.16584 11.959 1.53629 11.1162 1.98301 10.3114C1.97211 10.6144 1.96122 10.9174 1.96122 11.2299C1.96122 11.4761 1.96122 11.7222 1.98301 11.9684C2.0157 12.7354 2.10286 13.4929 2.2554 14.2314C2.77839 16.9868 4.03139 19.5339 5.84007 21.7212C5.89455 21.7875 5.94903 21.8632 6.00351 21.9295C7.43084 23.6149 9.17415 25.0542 11.1681 26.2283C12.0506 26.7396 12.9876 27.1941 13.9573 27.5823L13.9682 27.6012Z" fill="#007AC3"/>
<path d="M37.9606 7.88742C37.4267 7.57496 36.871 7.2909 36.2936 7.02577C35.6725 6.74171 35.0297 6.47659 34.3759 6.25881C31.968 5.39716 29.3203 4.92372 26.5528 4.92372C25.9427 4.92372 25.3325 4.94266 24.7333 4.99947C24.7333 4.99947 24.726 4.99631 24.7115 4.99C24.7115 4.99 24.6679 4.9616 24.657 4.95213C24.6679 4.9616 24.6897 4.98053 24.7006 4.99947C21.944 5.20778 19.3399 5.88953 16.9973 6.95002C16.4199 7.20568 15.8533 7.48974 15.3085 7.80221C14.8836 8.02945 14.4695 8.28511 14.0664 8.55023C14.2407 8.29458 14.426 8.04839 14.6221 7.81167C14.7855 7.59389 14.9707 7.38558 15.1451 7.17727C16.5833 5.54865 18.3375 4.12835 20.3205 3.01104C20.6256 2.83114 20.9307 2.67017 21.2466 2.51867C22.0856 2.09258 22.9682 1.71383 23.8834 1.3919C25.5286 0.814305 27.37 0.833243 29.0044 1.43924C30.2247 1.89374 31.3905 2.45239 32.4692 3.09626C33.7767 3.8727 34.9752 4.77222 36.0321 5.78537C36.7403 6.43871 37.3831 7.14886 37.9606 7.88742Z" fill="#007AC3"/>
<path d="M26.8801 27.9232C26.5641 28.3209 26.2372 28.6997 25.8777 29.0689C24.4177 30.6123 22.6635 31.9474 20.6913 32.9984C20.5388 33.0742 20.3972 33.1499 20.2446 33.2257C19.2095 33.7465 18.1091 34.201 16.9759 34.5608C15.3198 35.0816 13.5002 34.9963 11.9094 34.343C11.0269 33.9832 10.177 33.5666 9.38165 33.1121C8.13954 32.3924 6.9846 31.5687 5.94951 30.6502C5.01249 29.8264 4.17352 28.9174 3.43262 27.9516C4.11904 28.3588 4.83816 28.7281 5.58996 29.0689H5.60085C6.16743 29.3246 6.72311 29.5518 7.32237 29.7601C9.73031 30.6123 12.378 31.0858 15.1455 31.0858C15.6249 31.0858 16.1043 31.0668 16.5837 31.0384C16.758 31.0289 16.9214 31.0195 17.0958 31.0005C19.678 30.8017 22.1187 30.1768 24.3305 29.2204C25.2239 28.8417 26.0738 28.4061 26.891 27.9232H26.8801Z" fill="#007AC3"/>
<path d="M36.0098 25.859C36.0098 26.8532 35.9226 27.8285 35.7374 28.7754C35.4541 30.2715 34.5389 31.616 33.1442 32.5155C32.0983 33.1973 30.976 33.7843 29.7884 34.2767C28.579 34.788 27.2933 35.1952 25.964 35.4982C24.8417 35.7538 23.6759 35.9243 22.4883 36C23.142 35.716 23.774 35.394 24.3841 35.0437C24.8744 34.7691 25.3538 34.4756 25.8115 34.1631C28.4373 32.383 30.5511 30.0726 31.9457 27.4119C32.0438 27.2509 32.12 27.0805 32.1963 26.9195C33.0898 25.0826 33.6454 23.0847 33.7871 21.0016C33.8089 20.6418 33.8198 20.282 33.8198 19.9222C33.8198 19.4771 33.798 19.0416 33.7653 18.606C33.7326 18.2083 33.689 17.8106 33.6128 17.4224C33.7653 17.6686 33.9178 17.9148 34.0486 18.1705C34.2556 18.5492 34.4408 18.9374 34.6152 19.3256C35.4323 21.1342 35.9117 23.0847 35.9989 25.1205C36.0098 25.253 36.0098 25.3856 36.0098 25.5276C36.0207 25.6318 36.0207 25.7454 36.0207 25.859H36.0098Z" fill="#007AC3"/>
<path d="M41.5343 18.0189C41.5343 18.3314 41.5234 18.6438 41.5125 18.9468C41.4362 20.102 41.251 21.2193 40.9459 22.2988C40.6517 23.3498 40.2486 24.3724 39.7474 25.3382C39.7583 25.1962 39.7583 25.0542 39.7583 24.9121C39.7583 24.3819 39.7365 23.8516 39.6711 23.3308C39.6275 22.8574 39.5622 22.384 39.4641 21.92C38.9411 19.1267 37.6663 16.5607 35.8468 14.364C35.8577 14.2788 35.8576 14.1841 35.8685 14.0894C35.8468 14.1651 35.825 14.2409 35.7923 14.3072C34.2669 12.4797 32.3601 10.9174 30.1701 9.70539C29.4183 9.2793 28.6338 8.90055 27.8167 8.57862C27.8058 8.53127 27.7731 8.48393 27.7295 8.43658C28.2307 8.46499 28.721 8.51233 29.2004 8.57862C31.5103 8.87215 33.6894 9.49708 35.6833 10.4061C35.9557 10.5197 36.2172 10.6428 36.4678 10.7754C37.2087 11.1446 38.1784 11.779 39.0283 12.3756C40.412 13.3414 41.2728 14.7522 41.4362 16.2861C41.5016 16.8543 41.5343 17.4319 41.5343 18.0189Z" fill="#007AC3"/>
<path d="M20.8106 25.9063C25.8292 25.9063 29.8976 22.3708 29.8976 18.0094C29.8976 13.6481 25.8292 10.1125 20.8106 10.1125C15.792 10.1125 11.7236 13.6481 11.7236 18.0094C11.7236 22.3708 15.792 25.9063 20.8106 25.9063Z" fill="#007AC3"/>
</svg>
