<svg width="655" height="36" viewBox="0 0 655 36" fill="none" xmlns="http://www.w3.org/2000/svg">
<path d="M62.1889 25H64.3285V15.7219H64.4232L68.5321 25H70.1226L74.2504 15.7219H74.3451V25H76.4847V11.5562H74.1179L69.3273 22.2544L64.5557 11.5562H62.1889V25ZM80.6364 25H88.2293V23.0118H82.776V19.2059H87.2447V17.2746H82.776V13.5444H88.0589V11.5562H80.6364V25ZM100.525 25H103.043L98.385 18.1456L102.854 11.5562H100.354L97.1353 16.2899L93.9353 11.5562H91.417L95.8856 18.1456L91.2466 25H93.746L97.1353 20.0012L100.525 25ZM109.353 25H111.492V13.5444H114.882V11.5562H105.963V13.5444H109.353V25ZM124.619 25H129.258C132.325 25 133.859 23.3905 133.859 21.0994C133.859 19.0923 132.685 17.8994 131.17 17.5207C132.249 17.1041 133.045 16.1006 133.045 14.7562C133.045 12.9953 131.719 11.5562 129.39 11.5562H124.619V25ZM126.758 23.1065V18.5811H129.087C130.886 18.5811 131.738 19.5278 131.738 20.8911C131.738 22.2734 130.886 23.1065 129.125 23.1065H126.758ZM126.758 16.9148V13.4497H128.955C130.299 13.4497 130.981 14.0935 130.981 15.1349C130.981 16.1763 130.299 16.9148 128.955 16.9148H126.758ZM137.63 25H139.769V11.5562H137.63V25ZM143.91 25H151.598V23.0118H146.05V11.5562H143.91V25ZM155.179 20.626H161.048V18.884H155.179V20.626ZM165.032 25H167.172V11.5562H165.032V25ZM165.051 9.83313H167.153V7.75029H165.051V9.83313ZM174.001 28.3704V29.1089C175.611 29.4686 177.315 28.787 177.315 27.3669C177.315 26.458 176.633 25.7763 175.611 25.7574L176.027 25.1704C178.072 24.9621 179.947 23.6367 179.947 21.2509C179.947 19.2817 178.678 18.2402 176.387 17.3314L175.478 16.9716C173.963 16.3657 173.471 15.7408 173.471 14.9266C173.471 13.8852 174.342 13.2982 175.44 13.2982C176.595 13.2982 177.409 13.9231 177.959 15.0592L179.568 14.1882C179 12.7491 177.656 11.3669 175.364 11.3669C173.149 11.3669 171.35 12.7302 171.35 14.9077C171.35 16.8201 172.714 17.8615 174.626 18.6189L175.497 18.9598C176.955 19.5467 177.731 20.058 177.731 21.232C177.731 22.5763 176.671 23.2201 175.44 23.2201C173.963 23.2201 172.96 22.2923 172.581 21.0805L170.839 21.8757C171.256 23.5609 172.657 24.7917 174.512 25.1136L173.869 26.174L174.134 26.6852C175.327 26.5337 175.762 26.9882 175.762 27.5183C175.762 28.2189 175.024 28.4083 174.001 28.3704ZM183.639 25H185.779V11.5562H183.639V25ZM189.92 25H192.059V15.7219H192.154L196.263 25H197.853L201.981 15.7219H202.076V25H204.216V11.5562H201.849L197.058 22.2544L192.287 11.5562H189.92V25ZM214.426 25H222.018V23.0118H216.565V19.2059H221.034V17.2746H216.565V13.5444H221.848V11.5562H214.426V25ZM231.79 25.1893C235.426 25.1893 238.455 22.5006 237.982 17.9562H232.396V19.755H235.899C235.521 22.1976 233.797 23.2012 231.885 23.2012C229.234 23.2012 227.132 21.2509 227.132 18.2781C227.132 15.2864 229.234 13.4118 231.885 13.4118C233.229 13.4118 234.65 13.8852 235.634 15.2485L237.187 14.1503C235.767 11.9538 233.57 11.3669 231.847 11.3669C228.079 11.3669 224.936 14.1314 224.936 18.2781C224.936 22.4249 228.079 25.1893 231.79 25.1893ZM229.045 7.39053C229.026 8.79171 229.859 10.2686 231.999 10.2686C234.138 10.2686 234.971 8.79171 234.953 7.39053H233.532C233.551 8.20473 233.154 9.01893 231.999 9.01893C230.844 9.01893 230.465 8.20473 230.465 7.39053H229.045ZM241.983 25H244.122V11.5562H241.983V25ZM251.179 25H253.318V13.5444H256.708V11.5562H247.789V13.5444H251.179V25ZM260.386 25H262.526V11.5562H260.386V25ZM266.667 25H268.806V15.7219H268.901L273.01 25H274.6L278.728 15.7219H278.823V25H280.963V11.5562H278.596L273.805 22.2544L269.034 11.5562H266.667V25ZM295.755 25H297.97L303.234 11.5562H300.924L296.872 22.2923L292.82 11.5562H290.51L295.755 25ZM306.735 25H314.328V23.0118H308.875V19.2059H313.344V17.2746H308.875V13.5444H314.158V11.5562H306.735V25ZM324.252 25H326.391V11.5562H324.252V25ZM324.271 9.83313H326.372V7.75029H324.271V9.83313ZM334.679 25.1893C336.932 25.1893 339.166 23.8639 339.166 21.2509C339.166 19.2817 337.898 18.2402 335.607 17.3314L334.698 16.9716C333.183 16.3657 332.691 15.7408 332.691 14.9266C332.691 13.8852 333.562 13.2982 334.66 13.2982C335.815 13.2982 336.629 13.9231 337.178 15.0592L338.788 14.1882C338.22 12.7491 336.875 11.3669 334.584 11.3669C332.369 11.3669 330.57 12.7302 330.57 14.9077C330.57 16.8201 331.933 17.8615 333.846 18.6189L334.717 18.9598C336.175 19.5467 336.951 20.058 336.951 21.232C336.951 22.5763 335.891 23.2201 334.66 23.2201C333.183 23.2201 332.179 22.2923 331.801 21.0805L330.059 21.8757C330.532 23.826 332.369 25.1893 334.679 25.1893ZM345.202 25H347.341V13.5444H350.731V11.5562H341.812V13.5444H345.202V25ZM354.409 25H356.549V11.5562H354.409V25ZM368.888 25H371.028V11.5562H368.888V17.3314H362.829V11.5562H360.69V25H362.829V19.3195H368.888V25ZM375.198 25H379.667C383.492 25 386.219 22.2544 386.219 18.2781C386.219 14.3018 383.492 11.5562 379.667 11.5562H375.198V25ZM377.338 22.974V13.5822H379.591C382.451 13.5822 384.003 15.4757 384.003 18.2781C384.003 21.0805 382.451 22.974 379.591 22.974H377.338ZM393.233 11.5562L387.988 25H390.298L391.34 22.2544H397.361L398.403 25H400.713L395.449 11.5562H393.233ZM392.078 20.2663L394.351 14.2639L396.623 20.2663H392.078ZM404.124 25H406.263V15.7219H406.358L410.467 25H412.058L416.185 15.7219H416.28V25H418.42V11.5562H416.053L411.262 22.2544L406.491 11.5562H404.124V25ZM428.63 25H430.769V20.5124H433.212C436.109 20.5124 437.927 18.6947 437.927 16.0438C437.927 13.374 436.109 11.5562 433.212 11.5562H428.63V25ZM430.769 18.5243V13.5444H433.004C434.651 13.5444 435.749 14.3207 435.749 16.0438C435.749 17.7669 434.651 18.5243 433.004 18.5243H430.769ZM449.213 25H451.504L448.285 20.058C449.933 19.4331 450.917 17.9941 450.917 16.0438C450.917 13.374 449.099 11.5562 446.259 11.5562H441.715V25H443.854V20.3988H446.259H446.278L449.213 25ZM443.854 18.5243V13.5444H446.013C447.66 13.5444 448.74 14.3207 448.74 16.0438C448.74 17.7669 447.66 18.5243 446.013 18.5243H443.854ZM461.114 25.1893C464.806 25.1893 467.987 22.4059 467.987 18.2781C467.987 14.1503 464.806 11.3669 461.114 11.3669C457.403 11.3669 454.241 14.1503 454.241 18.2781C454.241 22.4059 457.403 25.1893 461.114 25.1893ZM456.437 18.2781C456.437 15.3243 458.615 13.4118 461.114 13.4118C463.613 13.4118 465.791 15.3243 465.791 18.2781C465.791 21.232 463.613 23.1444 461.114 23.1444C458.615 23.1444 456.437 21.232 456.437 18.2781ZM478.452 25.1893C482.087 25.1893 485.117 22.5006 484.643 17.9562H479.058V19.755H482.561C482.182 22.1976 480.459 23.2012 478.546 23.2012C475.895 23.2012 473.794 21.2509 473.794 18.2781C473.794 15.2864 475.895 13.4118 478.546 13.4118C479.891 13.4118 481.311 13.8852 482.295 15.2485L483.848 14.1503C482.428 11.9538 480.232 11.3669 478.508 11.3669C474.74 11.3669 471.597 14.1314 471.597 18.2781C471.597 22.4249 474.74 25.1893 478.452 25.1893ZM496.142 25H498.433L495.214 20.058C496.862 19.4331 497.846 17.9941 497.846 16.0438C497.846 13.374 496.028 11.5562 493.188 11.5562H488.644V25H490.783V20.3988H493.188H493.207L496.142 25ZM490.783 18.5243V13.5444H492.942C494.589 13.5444 495.669 14.3207 495.669 16.0438C495.669 17.7669 494.589 18.5243 492.942 18.5243H490.783ZM506.512 11.5562L501.267 25H503.577L504.619 22.2544H510.64L511.682 25H513.992L508.728 11.5562H506.512ZM505.357 20.2663L507.629 14.2639L509.902 20.2663H505.357ZM517.403 25H519.542V15.7219H519.637L523.746 25H525.336L529.464 15.7219H529.559V25H531.699V11.5562H529.332L524.541 22.2544L519.77 11.5562H517.403V25ZM535.85 25H537.99V11.5562H535.85V25ZM556.388 25H558.527V11.5562H556.388V17.3314H550.329V11.5562H548.189V25H550.329V19.3195H556.388V25ZM567.185 11.5562L561.94 25H564.25L565.292 22.2544H571.313L572.355 25H574.665L569.401 11.5562H567.185ZM566.03 20.2663L568.302 14.2639L570.575 20.2663H566.03ZM578.076 25H580.215V21.0615L581.768 19.2249L586.331 25H588.717L583.056 17.7101L588.263 11.5562H585.839L580.215 18.2402V11.5562H578.076V25ZM592.196 25H594.336V21.0615L595.889 19.2249L600.452 25H602.838L597.176 17.7101L602.383 11.5562H599.96L594.336 18.2402V11.5562H592.196V25ZM606.317 25H608.457V11.5562H606.317V25ZM612.597 25H614.737V15.097H614.832L621.629 25H623.788V11.5562H621.648V21.4592H621.553L614.737 11.5562H612.597V25ZM627.957 25H632.425C636.25 25 638.977 22.2544 638.977 18.2781C638.977 14.3018 636.25 11.5562 632.425 11.5562H627.957V25ZM630.096 22.974V13.5822H632.35C635.209 13.5822 636.761 15.4757 636.761 18.2781C636.761 21.0805 635.209 22.974 632.35 22.974H630.096ZM645.992 11.5562L640.747 25H643.057L644.098 22.2544H650.119L651.161 25H653.471L648.207 11.5562H645.992ZM644.837 20.2663L647.109 14.2639L649.381 20.2663H644.837Z" fill="#007AC3"/>
<path d="M19.4593 0C18.8274 0.265124 18.2172 0.549185 17.6289 0.87112C16.9642 1.22146 16.3323 1.60021 15.7221 2.01683C13.2052 3.7212 11.1459 5.92741 9.7513 8.44608C9.68593 8.57864 9.62055 8.70173 9.55518 8.8343C8.5092 10.8322 7.87725 13.0195 7.7356 15.3298C7.7356 15.6423 7.71381 15.9453 7.71381 16.2578C7.71381 16.8164 7.7465 17.3751 7.80098 17.9242C7.77919 17.9716 7.7574 18 7.7356 18.0379C7.485 17.6307 7.2562 17.2046 7.04918 16.7785C6.18842 15.0552 5.63274 13.1899 5.44752 11.2393C5.39304 10.8227 5.37125 10.4061 5.37125 9.98001C5.36035 9.87585 5.36035 9.76223 5.36035 9.6486C5.36035 9.0142 5.40393 8.38927 5.46931 7.76433C5.65453 6.19253 6.54798 4.75329 7.97531 3.78748C9.02129 3.07733 10.1544 2.45239 11.353 1.93161C12.8566 1.25934 14.4691 0.738558 16.1688 0.416623C17.2366 0.198843 18.3371 0.0568122 19.4593 0V0Z" fill="#007AC3"/>
<path d="M13.9682 27.6014C13.3472 27.554 12.737 27.4877 12.1378 27.3931C9.95863 27.0617 7.88846 26.4367 6.00351 25.5656C5.79649 25.4709 5.60037 25.3762 5.40425 25.2721C4.38006 24.7608 3.41034 24.1737 2.506 23.5298C1.12225 22.5261 0.228809 21.1058 0.0762696 19.553C0.0217913 19.0511 0 18.5398 0 18.019C0 17.877 0 17.735 0.0108957 17.593C0.0544783 15.9359 0.348661 14.3452 0.882548 12.8302C1.16584 11.9591 1.53629 11.1164 1.98301 10.3115C1.97211 10.6145 1.96122 10.9175 1.96122 11.23C1.96122 11.4762 1.96122 11.7224 1.98301 11.9685C2.0157 12.7355 2.10286 13.493 2.2554 14.2316C2.77839 16.987 4.03139 19.534 5.84007 21.7213C5.89455 21.7876 5.94903 21.8633 6.00351 21.9296C7.43084 23.615 9.17415 25.0543 11.1681 26.2284C12.0506 26.7397 12.9876 27.1942 13.9573 27.5824L13.9682 27.6014V27.6014Z" fill="#007AC3"/>
<path d="M37.9606 7.88724C37.4267 7.57477 36.871 7.29071 36.2936 7.02559C35.6725 6.74153 35.0297 6.4764 34.3759 6.25862C31.968 5.39697 29.3203 4.92354 26.5528 4.92354C25.9427 4.92354 25.3325 4.94248 24.7333 4.99929C24.7333 4.99929 24.726 4.99613 24.7115 4.98982C24.7115 4.98982 24.6679 4.96141 24.657 4.95194C24.6679 4.96141 24.6897 4.98035 24.7006 4.99929C21.944 5.2076 19.3399 5.88934 16.9973 6.94984C16.4199 7.20549 15.8533 7.48955 15.3085 7.80202C14.8836 8.02927 14.4695 8.28493 14.0664 8.55005C14.2407 8.29439 14.426 8.04821 14.6221 7.81149C14.7855 7.59371 14.9707 7.3854 15.1451 7.17709C16.5833 5.54847 18.3375 4.12817 20.3205 3.01086C20.6256 2.83096 20.9307 2.66999 21.2466 2.51849C22.0856 2.0924 22.9682 1.71365 23.8834 1.39171C25.5286 0.814122 27.37 0.83306 29.0044 1.43906C30.2247 1.89355 31.3905 2.45221 32.4692 3.09608C33.7767 3.87251 34.9752 4.77204 36.0321 5.78519C36.7403 6.43853 37.3831 7.14868 37.9606 7.88724V7.88724Z" fill="#007AC3"/>
<path d="M26.8801 27.9233C26.5641 28.321 26.2372 28.6998 25.8777 29.0691C24.4177 30.6125 22.6635 31.9475 20.6913 32.9986C20.5388 33.0743 20.3972 33.1501 20.2446 33.2258C19.2095 33.7466 18.1091 34.2011 16.9759 34.5609C15.3198 35.0817 13.5002 34.9965 11.9094 34.3431C11.0269 33.9833 10.177 33.5667 9.38165 33.1122C8.13954 32.3926 6.9846 31.5688 5.94951 30.6503C5.01249 29.8265 4.17352 28.9176 3.43262 27.9517C4.11904 28.3589 4.83816 28.7282 5.58996 29.0691H5.60085C6.16743 29.3247 6.72311 29.552 7.32237 29.7603C9.73031 30.6125 12.378 31.0859 15.1455 31.0859C15.6249 31.0859 16.1043 31.0669 16.5837 31.0385C16.758 31.0291 16.9214 31.0196 17.0958 31.0007C19.678 30.8018 22.1187 30.1769 24.3305 29.2206C25.2239 28.8418 26.0738 28.4062 26.891 27.9233H26.8801Z" fill="#007AC3"/>
<path d="M36.0098 25.859C36.0098 26.8532 35.9226 27.8285 35.7374 28.7753C35.4541 30.2714 34.5389 31.6159 33.1442 32.5155C32.0983 33.1972 30.976 33.7843 29.7884 34.2766C28.579 34.788 27.2933 35.1951 25.964 35.4981C24.8417 35.7538 23.6759 35.9242 22.4883 36C23.142 35.7159 23.774 35.394 24.3841 35.0436C24.8744 34.769 25.3538 34.4755 25.8115 34.163C28.4373 32.3829 30.5511 30.0725 31.9457 27.4118C32.0438 27.2509 32.12 27.0804 32.1963 26.9195C33.0898 25.0825 33.6454 23.0846 33.7871 21.0015C33.8089 20.6417 33.8198 20.2819 33.8198 19.9221C33.8198 19.4771 33.798 19.0415 33.7653 18.606C33.7326 18.2083 33.689 17.8106 33.6127 17.4224C33.7653 17.6685 33.9178 17.9147 34.0486 18.1704C34.2556 18.5491 34.4408 18.9374 34.6152 19.3256C35.4323 21.1341 35.9117 23.0846 35.9989 25.1204C36.0098 25.253 36.0098 25.3855 36.0098 25.5276C36.0207 25.6317 36.0207 25.7454 36.0207 25.859H36.0098Z" fill="#007AC3"/>
<path d="M41.5343 18.0188C41.5343 18.3313 41.5234 18.6438 41.5125 18.9468C41.4362 20.102 41.251 21.2193 40.9459 22.2987C40.6517 23.3497 40.2486 24.3723 39.7474 25.3382C39.7583 25.1961 39.7583 25.0541 39.7583 24.9121C39.7583 24.3818 39.7365 23.8516 39.6711 23.3308C39.6275 22.8574 39.5622 22.3839 39.4641 21.92C38.9411 19.1267 37.6663 16.5607 35.8468 14.3639C35.8577 14.2787 35.8576 14.184 35.8685 14.0893C35.8468 14.1651 35.825 14.2408 35.7923 14.3071C34.2669 12.4797 32.3601 10.9173 30.1701 9.70533C29.4183 9.27924 28.6338 8.90049 27.8167 8.57855C27.8058 8.53121 27.7731 8.48387 27.7295 8.43652C28.2307 8.46493 28.721 8.51227 29.2004 8.57855C31.5103 8.87208 33.6894 9.49702 35.6833 10.406C35.9557 10.5196 36.2172 10.6427 36.4678 10.7753C37.2087 11.1446 38.1784 11.779 39.0283 12.3755C40.412 13.3413 41.2728 14.7521 41.4362 16.2861C41.5016 16.8542 41.5343 17.4318 41.5343 18.0188V18.0188Z" fill="#007AC3"/>
<path d="M20.8106 25.9066C25.8292 25.9066 29.8976 22.371 29.8976 18.0097C29.8976 13.6484 25.8292 10.1128 20.8106 10.1128C15.792 10.1128 11.7236 13.6484 11.7236 18.0097C11.7236 22.371 15.792 25.9066 20.8106 25.9066Z" fill="#007AC3"/>
</svg>
