<svg width="244" height="36" viewBox="0 0 244 36" fill="none" xmlns="http://www.w3.org/2000/svg">
<path d="M16.8668 -9.15527e-05C16.3191 0.265032 15.7902 0.549093 15.2803 0.871029C14.7042 1.22137 14.1565 1.60012 13.6276 2.01674C11.4461 3.72111 9.66117 5.92731 8.45236 8.44599C8.3957 8.57855 8.33903 8.70164 8.28237 8.8342C7.37576 10.8321 6.82802 13.0194 6.70525 15.3297C6.70525 15.6422 6.68636 15.9452 6.68636 16.2577C6.68636 16.8163 6.71469 17.375 6.76191 17.9242C6.74302 17.9715 6.72413 17.9999 6.70525 18.0378C6.48804 17.6306 6.28972 17.2045 6.11028 16.7784C5.36422 15.0551 4.88258 13.1898 4.72204 11.2393C4.67482 10.8226 4.65593 10.406 4.65593 9.97992C4.64648 9.87576 4.64648 9.76214 4.64648 9.64851C4.64648 9.01411 4.68426 8.38918 4.74092 7.76424C4.90147 6.19244 5.67587 4.7532 6.91301 3.78739C7.81962 3.07724 8.80178 2.4523 9.84061 1.93152C11.1439 1.25925 12.5416 0.738467 14.0148 0.416531C14.9403 0.198751 15.8941 0.0567206 16.8668 -9.15527e-05V-9.15527e-05Z" fill="#007AC3"/>
<path d="M12.107 27.6012C11.5687 27.5538 11.0399 27.4875 10.5205 27.3929C8.63169 27.0615 6.83736 26.4365 5.20357 25.5654C5.02414 25.4707 4.85415 25.376 4.68416 25.2719C3.79643 24.7606 2.95593 24.1735 2.17209 23.5296C0.972718 22.5259 0.198321 21.1056 0.066107 19.5528C0.0188877 19.0509 0 18.5396 0 18.0188C0 17.8768 0 17.7348 0.00944386 17.5928C0.0472193 15.9357 0.302204 14.345 0.764953 12.83C1.01049 11.9589 1.33158 11.1162 1.71878 10.3113C1.70934 10.6143 1.6999 10.9173 1.6999 11.2298C1.6999 11.476 1.6999 11.7222 1.71878 11.9683C1.74711 12.7353 1.82267 13.4928 1.95488 14.2314C2.40819 16.9868 3.49423 19.5338 5.06191 21.7211C5.10913 21.7874 5.15635 21.8631 5.20357 21.9294C6.44071 23.6148 7.95173 25.0541 9.67996 26.2282C10.4449 26.7395 11.2571 27.194 12.0976 27.5822L12.107 27.6012V27.6012Z" fill="#007AC3"/>
<path d="M32.9028 7.88733C32.44 7.57486 31.9584 7.2908 31.4579 7.02568C30.9196 6.74162 30.3624 6.4765 29.7957 6.25872C27.7086 5.39706 25.4138 4.92363 23.0151 4.92363C22.4862 4.92363 21.9573 4.94257 21.4379 4.99938C21.4379 4.99938 21.4316 4.99622 21.419 4.98991C21.419 4.98991 21.3813 4.9615 21.3718 4.95204C21.3813 4.9615 21.4001 4.98044 21.4096 4.99938C19.0203 5.20769 16.7632 5.88944 14.7328 6.94993C14.2323 7.20559 13.7412 7.48965 13.269 7.80211C12.9007 8.02936 12.5418 8.28502 12.1924 8.55014C12.3435 8.29449 12.504 8.0483 12.674 7.81158C12.8157 7.5938 12.9762 7.38549 13.1273 7.17718C14.3739 5.54856 15.8944 4.12826 17.6132 3.01095C17.8776 2.83105 18.142 2.67008 18.4159 2.51858C19.1431 2.09249 19.908 1.71374 20.7013 1.3918C22.1273 0.814214 23.7233 0.833151 25.1399 1.43915C26.1976 1.89365 27.2081 2.4523 28.1431 3.09617C29.2763 3.8726 30.3152 4.77213 31.2312 5.78528C31.8451 6.43862 32.4022 7.14877 32.9028 7.88733V7.88733Z" fill="#007AC3"/>
<path d="M23.2978 27.9231C23.0239 28.3208 22.7406 28.6995 22.429 29.0688C21.1635 30.6122 19.643 31.9473 17.9337 32.9983C17.8015 33.0741 17.6787 33.1498 17.5465 33.2256C16.6493 33.7464 15.6955 34.2009 14.7133 34.5607C13.2779 35.0814 11.7007 34.9962 10.3219 34.3429C9.55698 33.9831 8.82036 33.5665 8.13096 33.112C7.05436 32.3923 6.05331 31.5686 5.15614 30.6501C4.34397 29.8263 3.61679 28.9173 2.97461 27.9515C3.56957 28.3587 4.19287 28.728 4.84449 29.0688H4.85394C5.34502 29.3245 5.82666 29.5517 6.34607 29.76C8.43316 30.6122 10.728 31.0857 13.1268 31.0857C13.5423 31.0857 13.9578 31.0667 14.3734 31.0383C14.5245 31.0288 14.6661 31.0194 14.8172 31.0004C17.0554 30.8016 19.1708 30.1767 21.0879 29.2203C21.8623 28.8416 22.599 28.406 23.3072 27.9231H23.2978Z" fill="#007AC3"/>
<path d="M31.212 25.8589C31.212 26.8531 31.1365 27.8284 30.9759 28.7753C30.7304 30.2713 29.9371 31.6159 28.7283 32.5154C27.8217 33.1972 26.849 33.7842 25.8196 34.2766C24.7713 34.7879 23.6569 35.1951 22.5048 35.4981C21.5321 35.7537 20.5216 35.9242 19.4922 35.9999C20.0588 35.7158 20.6066 35.3939 21.1354 35.0436C21.5604 34.769 21.9759 34.4754 22.3726 34.163C24.6485 32.3829 26.4806 30.0725 27.6895 27.4118C27.7745 27.2508 27.8406 27.0804 27.9067 26.9194C28.6811 25.0825 29.1627 23.0846 29.2855 21.0015C29.3044 20.6417 29.3138 20.2819 29.3138 19.9221C29.3138 19.477 29.2949 19.0415 29.2666 18.6059C29.2383 18.2082 29.2005 17.8105 29.1344 17.4223C29.2666 17.6685 29.3988 17.9147 29.5121 18.1703C29.6916 18.5491 29.8521 18.9373 30.0032 19.3255C30.7115 21.134 31.127 23.0846 31.2026 25.1204C31.212 25.2529 31.212 25.3855 31.212 25.5275C31.2215 25.6317 31.2215 25.7453 31.2215 25.8589H31.212Z" fill="#007AC3"/>
<path d="M35.9996 18.0188C35.9996 18.3313 35.9901 18.6438 35.9807 18.9468C35.9146 20.102 35.754 21.2193 35.4896 22.2987C35.2346 23.3497 34.8852 24.3723 34.4508 25.3382C34.4602 25.1961 34.4602 25.0541 34.4602 24.9121C34.4602 24.3818 34.4413 23.8516 34.3847 23.3308C34.3469 22.8574 34.2902 22.3839 34.2052 21.92C33.7519 19.1267 32.647 16.5607 31.0699 14.3639C31.0793 14.2787 31.0793 14.184 31.0887 14.0893C31.0699 14.1651 31.051 14.2408 31.0226 14.3071C29.7005 12.4797 28.0478 10.9173 26.1496 9.70533C25.498 9.27924 24.818 8.90049 24.1097 8.57855C24.1003 8.53121 24.072 8.48387 24.0342 8.43652C24.4686 8.46493 24.8936 8.51227 25.3091 8.57855C27.3112 8.87208 29.2 9.49702 30.9282 10.406C31.1643 10.5196 31.3909 10.6427 31.6082 10.7753C32.2503 11.1446 33.0908 11.779 33.8275 12.3755C35.0268 13.3413 35.7729 14.7521 35.9146 16.2861C35.9712 16.8542 35.9996 17.4318 35.9996 18.0188V18.0188Z" fill="#007AC3"/>
<path d="M18.0373 25.9063C22.3872 25.9063 25.9135 22.3707 25.9135 18.0094C25.9135 13.648 22.3872 10.1125 18.0373 10.1125C13.6874 10.1125 10.1611 13.648 10.1611 18.0094C10.1611 22.3707 13.6874 25.9063 18.0373 25.9063Z" fill="#007AC3"/>
<path d="M56.226 25.1893C58.4793 25.1893 60.8651 23.8638 60.8651 21.1372C60.8651 19.2248 59.6911 18.1644 57.3432 17.2177L56.4343 16.8579C54.9574 16.2898 54.5598 15.7407 54.5598 15.0401C54.5598 14.1502 55.2793 13.6768 56.245 13.6768C57.2296 13.6768 57.968 14.207 58.5361 15.2863L60.4675 14.207C59.8615 12.7869 58.4604 11.3668 56.1503 11.3668C53.8781 11.3668 52.0036 12.768 52.0036 15.0212C52.0036 17.0662 53.5183 18.0887 55.355 18.8271L56.2071 19.149C57.5704 19.6981 58.1574 20.1336 58.1574 21.1183C58.1574 22.2922 57.2485 22.8413 56.1882 22.8413C54.8249 22.8413 53.9728 21.9135 53.5941 20.8721L51.4923 21.8378C51.9657 23.807 53.8781 25.1893 56.226 25.1893ZM68.2791 11.5561L63.1099 24.9999H65.9123L66.8022 22.5762H72.5206L73.4105 24.9999H76.2129L71.0247 11.5561H68.2791ZM67.6732 20.1904L69.6614 14.794L71.6496 20.1904H67.6732ZM79.4672 24.9999H82.0612V15.8165H82.1559L88.3287 24.9999H90.9228V11.5561H88.3287V20.7396H88.234L82.0612 11.5561H79.4672V24.9999ZM99.3494 11.5561L94.1802 24.9999H96.9825L97.8725 22.5762H103.591L104.481 24.9999H107.283L102.095 11.5561H99.3494ZM98.7435 20.1904L100.732 14.794L102.72 20.1904H98.7435ZM112.099 24.9999H114.693V19.6224L119.559 11.5561H116.624L113.387 17.1798L110.168 11.5561H107.233L112.099 19.6224V24.9999ZM123.012 24.9999H125.606V11.5561H123.012V24.9999ZM123.031 10.1928H125.587V7.67446H123.031V10.1928ZM136.348 25.1893C138.184 25.1893 140.381 24.5455 141.801 22.2733L139.908 20.9668C139.037 22.2165 137.787 22.7277 136.442 22.7277C134.057 22.7277 132.068 21.0236 132.068 18.278C132.068 15.5514 134.038 13.8283 136.424 13.8283C137.73 13.8283 139.037 14.3396 139.908 15.5893L141.801 14.2827C140.381 12.0106 138.184 11.3668 136.348 11.3668C132.58 11.3668 129.418 14.0934 129.418 18.278C129.418 22.4626 132.561 25.1893 136.348 25.1893ZM145.41 24.9999H148.004V11.5561H145.41V24.9999ZM145.429 10.1928H147.985V7.67446H145.429V10.1928ZM164.692 25.1893C168.404 25.1893 171.471 22.4248 170.865 17.7668H165.128V19.9443H168.347C167.949 22.0271 166.453 22.8035 164.806 22.8035C162.363 22.8035 160.451 21.0236 160.451 18.278C160.451 15.5135 162.401 13.8283 164.806 13.8283C166.169 13.8283 167.438 14.3396 168.328 15.5893L170.202 14.2827C168.782 12.0106 166.567 11.3668 164.768 11.3668C160.981 11.3668 157.8 14.0934 157.8 18.278C157.8 22.4626 160.962 25.1893 164.692 25.1893ZM181.291 25.1893C185.04 25.1893 188.221 22.4058 188.221 18.278C188.221 14.1502 185.04 11.3668 181.291 11.3668C177.542 11.3668 174.38 14.1502 174.38 18.278C174.38 22.4058 177.542 25.1893 181.291 25.1893ZM177.031 18.278C177.031 15.5703 179 13.8283 181.291 13.8283C183.601 13.8283 185.551 15.5703 185.551 18.278C185.551 20.9857 183.601 22.7277 181.291 22.7277C179 22.7277 177.031 20.9857 177.031 18.278ZM177.769 10.1928H180.117V7.67446H177.769V10.1928ZM182.427 10.1928H184.794V7.67446H182.427V10.1928ZM199.384 24.9999H202.148L199.005 20.1147C200.558 19.452 201.486 18.0508 201.486 16.1194C201.486 13.3739 199.592 11.5561 196.733 11.5561H192.018V24.9999H194.612V20.5502H196.619L199.384 24.9999ZM194.612 18.2969V13.9419H196.468C197.888 13.9419 198.854 14.5668 198.854 16.1194C198.854 17.691 197.888 18.2969 196.468 18.2969H194.612ZM210.659 25.1893C213.48 25.1893 215.733 23.3715 215.733 20.0011V11.5561H213.139V20.0011C213.139 22.1029 211.833 22.7467 210.659 22.7467C209.466 22.7467 208.178 22.1029 208.178 20.0011V11.5561H205.584V20.0011C205.584 23.3715 207.837 25.1893 210.659 25.1893ZM207.137 10.1928H209.485V7.67446H207.137V10.1928ZM211.795 10.1928H214.162V7.67446H211.795V10.1928ZM222.393 28.3893V29.1845C224.116 29.5822 225.991 28.8626 225.991 27.3668C225.991 26.4768 225.309 25.7573 224.249 25.7194L224.646 25.1514C226.672 24.9242 228.622 23.5987 228.622 21.1372C228.622 19.2248 227.449 18.1644 225.101 17.2177L224.192 16.8579C222.715 16.2898 222.317 15.7407 222.317 15.0401C222.317 14.1502 223.037 13.6768 224.002 13.6768C224.987 13.6768 225.725 14.207 226.293 15.2863L228.225 14.207C227.619 12.7869 226.218 11.3668 223.908 11.3668C221.636 11.3668 219.761 12.768 219.761 15.0212C219.761 17.0662 221.276 18.0887 223.112 18.8271L223.965 19.149C225.328 19.6981 225.915 20.1336 225.915 21.1183C225.915 22.2922 225.006 22.8413 223.946 22.8413C222.582 22.8413 221.73 21.9135 221.351 20.8721L219.25 21.8378C219.647 23.4851 221.067 24.7348 222.885 25.0946L222.241 26.1928L222.488 26.7609C223.775 26.5904 224.192 27.0638 224.192 27.5751C224.192 28.2188 223.472 28.4082 222.393 28.3893ZM237.217 25.1893C240.038 25.1893 242.292 23.3715 242.292 20.0011V11.5561H239.697V20.0011C239.697 22.1029 238.391 22.7467 237.217 22.7467C236.024 22.7467 234.737 22.1029 234.737 20.0011V11.5561H232.142V20.0011C232.142 23.3715 234.396 25.1893 237.217 25.1893ZM233.695 10.1928H236.043V7.67446H233.695V10.1928ZM238.353 10.1928H240.72V7.67446H238.353V10.1928Z" fill="#007AC3"/>
</svg>
