<svg width="48" height="512" viewBox="0 0 48 512" fill="none" xmlns="http://www.w3.org/2000/svg">
<rect x="0.188477" width="47" height="511.014" fill="url(#paint0_linear_30_2039)"/>
<path d="M8.92873 21H10.8951V8.42223H6.99777V10.2469H8.92873V21ZM19.0199 21.1772C22.4566 21.1772 25.3973 18.573 25.3973 14.7111C25.3973 10.8492 22.4566 8.24508 19.0199 8.24508C15.5831 8.24508 12.6424 10.8492 12.6424 14.7111C12.6424 18.573 15.5831 21.1772 19.0199 21.1772ZM14.6442 14.7111C14.6442 11.9475 16.646 10.0875 19.0199 10.0875C21.376 10.0875 23.3955 11.9475 23.3955 14.7111C23.3955 17.4747 21.376 19.3348 19.0199 19.3348C16.646 19.3348 14.6442 17.4747 14.6442 14.7111ZM32.8342 21.1772C36.271 21.1772 39.2117 18.573 39.2117 14.7111C39.2117 10.8492 36.271 8.24508 32.8342 8.24508C29.3975 8.24508 26.4568 10.8492 26.4568 14.7111C26.4568 18.573 29.3975 21.1772 32.8342 21.1772ZM28.4586 14.7111C28.4586 11.9475 30.4604 10.0875 32.8342 10.0875C35.1904 10.0875 37.2099 11.9475 37.2099 14.7111C37.2099 17.4747 35.1904 19.3348 32.8342 19.3348C30.4604 19.3348 28.4586 17.4747 28.4586 14.7111Z" fill="white"/>
<path d="M23.6165 498.11C27.0533 498.11 29.994 495.505 29.994 491.643C29.994 487.782 27.0533 485.177 23.6165 485.177C20.1798 485.177 17.2391 487.782 17.2391 491.643C17.2391 495.505 20.1798 498.11 23.6165 498.11ZM19.2409 491.643C19.2409 488.88 21.2427 487.02 23.6165 487.02C25.9727 487.02 27.9922 488.88 27.9922 491.643C27.9922 494.407 25.9727 496.267 23.6165 496.267C21.2427 496.267 19.2409 494.407 19.2409 491.643Z" fill="white"/>
<path d="M16.7539 262.96C19.234 262.96 21.2535 261.312 21.2535 258.602C21.2535 255.945 19.3049 254.368 17.1791 254.368C15.9744 254.368 15.1064 254.846 14.8406 255.2L15.319 251.923H20.0135V250.205H13.76L12.9274 256.529L14.4863 257.185C14.8584 256.635 15.6378 255.998 16.7716 255.998C18.1711 255.998 19.3226 257.007 19.3226 258.62C19.3226 260.32 18.0471 261.188 16.7185 261.188C15.3544 261.188 14.4155 260.285 14.1675 259.558L12.644 260.391C13.2286 261.844 14.6989 262.96 16.7539 262.96ZM28.7745 262.96C32.2112 262.96 35.1519 260.356 35.1519 256.494C35.1519 252.632 32.2112 250.028 28.7745 250.028C25.3377 250.028 22.397 252.632 22.397 256.494C22.397 260.356 25.3377 262.96 28.7745 262.96ZM24.3988 256.494C24.3988 253.73 26.4006 251.87 28.7745 251.87C31.1306 251.87 33.1501 253.73 33.1501 256.494C33.1501 259.257 31.1306 261.117 28.7745 261.117C26.4006 261.117 24.3988 259.257 24.3988 256.494Z" fill="white"/>
<path d="M26.0117 433.764L26.0117 432.764L22.4521 432.764L17.7524 429.821L17.7524 430.961L21.5098 433.264L17.7524 435.567L17.7524 436.707L22.4521 433.764L26.0117 433.764ZM26.128 427.838C26.128 426.709 25.5115 425.86 24.8717 425.569L24.8717 425.534L26.0117 425.534L26.0117 424.557L19.9626 424.557L19.9626 425.534L21.1027 425.534L21.1027 425.569C20.4628 425.86 19.8463 426.709 19.8463 427.838C19.8463 429.304 20.9165 430.804 22.9872 430.804C25.0578 430.804 26.128 429.304 26.128 427.838ZM22.9872 429.827C21.4865 429.827 20.742 428.745 20.742 427.675C20.742 426.581 21.4982 425.5 22.9872 425.5C24.4762 425.5 25.2323 426.581 25.2323 427.675C25.2323 428.745 24.4878 429.827 22.9872 429.827ZM26.0815 421.546C26.0815 421.267 26.035 420.941 25.8721 420.731L25.0927 420.731C25.1742 420.952 25.1974 421.139 25.1974 421.278C25.1974 421.732 24.9648 421.918 24.5925 421.918L20.7653 421.918L20.7653 420.72L19.9626 420.72L19.9626 421.918L18.4155 421.918L18.4155 422.895L19.9626 422.895L19.9626 423.709L20.7653 423.709L20.7653 422.895L24.7786 422.895C25.686 422.895 26.0815 422.348 26.0815 421.546ZM26.0117 419.812L26.0117 418.834L19.9626 418.834L19.9626 419.812L26.0117 419.812ZM26.0117 417.693L26.0117 416.715L22.9755 416.715C21.6261 416.715 20.7769 415.89 20.7769 414.761C20.7769 414.622 20.7886 414.529 20.8118 414.424L19.8928 414.424C19.8579 414.517 19.8463 414.633 19.8463 414.773C19.8463 415.89 20.5908 416.494 21.4633 416.715L19.9626 416.715L19.9626 417.693L26.0117 417.693ZM26.0117 413.574L26.0117 412.597L19.9626 412.597L19.9626 413.574L26.0117 413.574ZM26.0117 407.454L26.0117 406.477L22.5219 406.477C21.4167 406.477 20.742 405.895 20.742 404.918C20.742 403.952 21.4167 403.452 22.5219 403.452L26.0117 403.452L26.0117 402.475L22.4521 402.475C20.649 402.475 19.8463 403.406 19.8463 404.662C19.8463 405.779 20.4512 406.43 21.0678 406.721C20.2302 407.081 19.8463 407.779 19.8463 408.629C19.8463 409.594 20.3465 410.187 20.9049 410.478L19.9626 410.478L19.9626 411.455L26.0117 411.455L26.0117 410.478L22.5219 410.478C21.4167 410.478 20.742 409.897 20.742 408.919C20.742 407.954 21.4167 407.454 22.5219 407.454L26.0117 407.454ZM26.128 398.489C26.128 397.442 25.6162 396.453 24.639 395.906L24.197 396.651C24.8484 397.035 25.2323 397.721 25.2323 398.477C25.2323 399.571 24.418 400.653 22.9872 400.653C21.5563 400.653 20.742 399.571 20.742 398.477C20.742 397.721 21.1259 397.035 21.7774 396.651L21.3353 395.906C20.3465 396.453 19.8463 397.442 19.8463 398.489C19.8463 400.059 20.9631 401.63 22.9872 401.63C25.0113 401.63 26.128 400.059 26.128 398.489ZM26.0117 395.062L26.0117 394.085L19.9626 394.085L19.9626 395.062L26.0117 395.062ZM26.128 386.617C26.128 384.43 24.5111 382.603 21.8123 382.813L21.8123 386.128L22.6615 386.128L22.6615 383.79C24.418 383.988 25.1974 385.209 25.1974 386.57C25.1974 388.338 23.8713 389.781 21.8821 389.781C19.8928 389.781 18.6016 388.35 18.6016 386.57C18.6016 385.756 18.8691 384.779 19.7881 384.092L19.253 383.371C17.9734 384.267 17.6361 385.581 17.6361 386.593C17.6361 388.897 19.3577 390.804 21.8821 390.804C24.4064 390.804 26.128 388.897 26.128 386.617ZM19.9626 376.402L19.9626 377.379L23.3827 377.379C24.6041 377.379 25.2323 378.135 25.2323 379.1C25.2323 380.066 24.6041 380.787 23.3827 380.787L19.9626 380.787L19.9626 381.764L23.5223 381.764C25.337 381.764 26.128 380.671 26.128 379.403C26.128 378.356 25.6046 377.693 25.0229 377.379L26.0117 377.379L26.0117 376.402L19.9626 376.402ZM18.6714 380.741L18.6714 379.81L17.6826 379.81L17.6826 380.741L18.6714 380.741ZM18.6714 378.251L18.6714 377.321L17.6826 377.321L17.6826 378.251L18.6714 378.251ZM26.0117 373.097L26.0117 372.189L19.9626 369.619L19.9626 370.631L24.8019 372.643L19.9626 374.656L19.9626 375.668L26.0117 373.097ZM26.128 366.419C26.128 365.441 25.7325 364.569 25.0578 364.022L24.5576 364.511C25.0346 364.953 25.2905 365.604 25.2905 366.314C25.2905 367.477 24.6158 368.443 23.3478 368.594L23.3478 363.615C20.9514 363.371 19.8463 364.976 19.8463 366.512C19.8463 368.035 20.9514 369.524 22.9872 369.524C24.9997 369.524 26.128 368.047 26.128 366.419ZM22.6033 368.594C21.3353 368.443 20.6955 367.5 20.6955 366.5C20.6955 365.488 21.3586 364.546 22.6033 364.476L22.6033 368.594ZM26.0117 362.73L26.0117 361.753L22.5917 361.753C21.3702 361.753 20.742 360.996 20.742 360.031C20.742 359.065 21.3702 358.344 22.5917 358.344L26.0117 358.344L26.0117 357.367L22.4521 357.367C20.6373 357.367 19.8463 358.46 19.8463 359.728C19.8463 360.775 20.3698 361.438 20.9514 361.753L19.9626 361.753L19.9626 362.73L26.0117 362.73ZM26.0117 353.971L26.0117 352.97L23.5688 352.97L22.2659 351.842L26.0117 348.806L26.0117 347.666L21.5563 351.237L17.7524 347.956L17.7524 349.12L22.2427 352.97L17.7524 352.97L17.7524 353.971L26.0117 353.971ZM26.128 345.075C26.128 343.947 25.5115 343.097 24.8717 342.807L24.8717 342.772L26.0117 342.772L26.0117 341.795L19.9626 341.795L19.9626 342.772L21.1027 342.772L21.1027 342.807C20.4628 343.097 19.8463 343.947 19.8463 345.075C19.8463 346.541 20.9165 348.041 22.9872 348.041C25.0578 348.041 26.128 346.541 26.128 345.075ZM22.9872 347.064C21.4865 347.064 20.742 345.982 20.742 344.912C20.742 343.819 21.4982 342.737 22.9872 342.737C24.4762 342.737 25.2323 343.819 25.2323 344.912C25.2323 345.982 24.4878 347.064 22.9872 347.064ZM28.222 339.629L28.222 338.664L26.0117 337.698L19.9626 335.128L19.9626 336.14L24.8019 338.152L19.9626 340.165L19.9626 341.177L25.9536 338.629L28.222 339.629ZM17.7524 334.391L26.0117 334.391L26.0117 333.413L24.8717 333.413L24.8717 333.378C25.5115 333.088 26.128 332.238 26.128 331.11C26.128 329.644 25.0578 328.144 22.9872 328.144C20.9165 328.144 19.8463 329.644 19.8463 331.11C19.8463 332.238 20.4628 333.088 21.1027 333.378L21.1027 333.413L17.7524 333.413L17.7524 334.391ZM22.9872 333.448C21.4982 333.448 20.742 332.366 20.742 331.273C20.742 330.203 21.4865 329.121 22.9872 329.121C24.4878 329.121 25.2323 330.203 25.2323 331.273C25.2323 332.366 24.4762 333.448 22.9872 333.448ZM26.128 324.481C26.128 323.504 25.7325 322.631 25.0578 322.084L24.5576 322.573C25.0346 323.015 25.2905 323.666 25.2905 324.376C25.2905 325.539 24.6158 326.505 23.3478 326.656L23.3478 321.677C20.9514 321.433 19.8463 323.038 19.8463 324.574C19.8463 326.098 20.9514 327.587 22.9872 327.587C24.9997 327.587 26.128 326.109 26.128 324.481ZM22.6033 326.656C21.3353 326.505 20.6955 325.563 20.6955 324.562C20.6955 323.55 21.3586 322.608 22.6033 322.538L22.6033 326.656ZM26.0117 314.836L17.7524 314.836L17.7524 315.813L21.1027 315.813L21.1027 315.848C20.4628 316.139 19.8463 316.988 19.8463 318.116C19.8463 319.582 20.9165 321.083 22.9872 321.083C25.0578 321.083 26.128 319.582 26.128 318.116C26.128 316.988 25.5115 316.139 24.8717 315.848L24.8717 315.813L26.0117 315.813L26.0117 314.836ZM22.9872 320.106C21.4865 320.106 20.742 319.024 20.742 317.954C20.742 316.86 21.4982 315.778 22.9872 315.778C24.4762 315.778 25.2323 316.86 25.2323 317.954C25.2323 319.024 24.4878 320.106 22.9872 320.106ZM26.0117 313.697L26.0117 312.72L19.9626 312.72L19.9626 313.697L26.0117 313.697ZM18.6598 313.697L18.6598 312.72L17.7524 312.72L17.7524 313.697L18.6598 313.697ZM28.222 310.438L28.222 309.473L26.0117 308.507L19.9626 305.936L19.9626 306.948L24.8019 308.961L19.9626 310.973L19.9626 311.985L25.9535 309.438L28.222 310.438ZM26.128 302.701C26.128 301.131 25.0113 299.561 22.9872 299.561C20.9631 299.561 19.8463 301.131 19.8463 302.701C19.8463 304.272 20.9631 305.842 22.9872 305.842C25.0113 305.842 26.128 304.272 26.128 302.701ZM22.9872 304.865C21.5563 304.865 20.742 303.818 20.742 302.701C20.742 301.585 21.5563 300.538 22.9872 300.538C24.418 300.538 25.2323 301.585 25.2323 302.701C25.2323 303.818 24.418 304.865 22.9872 304.865ZM26.0117 298.707L26.0117 297.73L22.9755 297.73C21.6261 297.73 20.7769 296.904 20.7769 295.775C20.7769 295.636 20.7886 295.543 20.8118 295.438L19.8928 295.438C19.8579 295.531 19.8463 295.647 19.8463 295.787C19.8463 296.904 20.5908 297.509 21.4633 297.73L19.9626 297.73L19.9626 298.707L26.0117 298.707Z" fill="white"/>
<path d="M25.0625 208.589L25.0625 207.589L21.5028 207.589L16.8032 204.646L16.8032 205.786L20.5606 208.089L16.8032 210.392L16.8032 211.532L21.5028 208.589L25.0625 208.589ZM25.1788 202.663C25.1788 201.534 24.5623 200.685 23.9225 200.394L23.9225 200.359L25.0625 200.359L25.0625 199.382L19.0134 199.382L19.0134 200.359L20.1534 200.359L20.1534 200.394C19.5136 200.685 18.8971 201.534 18.8971 202.663C18.8971 204.128 19.9673 205.629 22.038 205.629C24.1086 205.629 25.1788 204.128 25.1788 202.663ZM22.038 204.652C20.5373 204.652 19.7928 203.57 19.7928 202.5C19.7928 201.406 20.549 200.324 22.038 200.324C23.527 200.324 24.2831 201.406 24.2831 202.5C24.2831 203.57 23.5386 204.652 22.038 204.652ZM25.1323 196.371C25.1323 196.091 25.0858 195.766 24.9229 195.556L24.1435 195.556C24.2249 195.777 24.2482 195.964 24.2482 196.103C24.2482 196.557 24.0155 196.743 23.6433 196.743L19.8161 196.743L19.8161 195.545L19.0134 195.545L19.0134 196.743L17.4662 196.743L17.4662 197.72L19.0134 197.72L19.0134 198.534L19.8161 198.534L19.8161 197.72L23.8294 197.72C24.7368 197.72 25.1323 197.173 25.1323 196.371ZM25.0625 194.636L25.0625 193.659L19.0134 193.659L19.0134 194.636L25.0625 194.636ZM25.0625 192.518L25.0625 191.54L22.0263 191.54C20.6769 191.54 19.8277 190.714 19.8277 189.586C19.8277 189.446 19.8393 189.353 19.8626 189.249L18.9436 189.249C18.9087 189.342 18.8971 189.458 18.8971 189.598C18.8971 190.714 19.6416 191.319 20.5141 191.54L19.0134 191.54L19.0134 192.518L25.0625 192.518ZM25.0625 188.399L25.0625 187.422L19.0134 187.422L19.0134 188.399L25.0625 188.399ZM25.0625 182.279L25.0625 181.301L21.5726 181.301C20.4675 181.301 19.7928 180.72 19.7928 179.743C19.7928 178.777 20.4675 178.277 21.5726 178.277L25.0625 178.277L25.0625 177.3L21.5028 177.3C19.6998 177.3 18.8971 178.23 18.8971 179.487C18.8971 180.604 19.502 181.255 20.1185 181.546C19.281 181.906 18.8971 182.604 18.8971 183.454C18.8971 184.419 19.3973 185.012 19.9557 185.303L19.0134 185.303L19.0134 186.28L25.0625 186.28L25.0625 185.303L21.5726 185.303C20.4675 185.303 19.7928 184.722 19.7928 183.744C19.7928 182.779 20.4675 182.279 21.5726 182.279L25.0625 182.279ZM25.1788 173.314C25.1788 172.267 24.667 171.278 23.6898 170.731L23.2478 171.476C23.8992 171.86 24.2831 172.546 24.2831 173.302C24.2831 174.396 23.4688 175.478 22.038 175.478C20.6071 175.478 19.7928 174.396 19.7928 173.302C19.7928 172.546 20.1767 171.86 20.8281 171.476L20.3861 170.731C19.3973 171.278 18.8971 172.267 18.8971 173.314C18.8971 174.884 20.0138 176.455 22.038 176.455C24.0621 176.455 25.1788 174.884 25.1788 173.314ZM25.0625 169.887L25.0625 168.91L19.0134 168.91L19.0134 169.887L25.0625 169.887ZM25.1788 161.441C25.1788 159.255 23.5619 157.428 20.863 157.638L20.863 160.953L21.7122 160.953L21.7122 158.615C23.4688 158.812 24.2482 160.034 24.2482 161.395C24.2482 163.163 22.9221 164.606 20.9328 164.606C18.9436 164.606 17.6524 163.175 17.6524 161.395C17.6524 160.581 17.9199 159.604 18.8389 158.917L18.3038 158.196C17.0242 159.092 16.6868 160.406 16.6868 161.418C16.6868 163.722 18.4085 165.629 20.9328 165.629C23.4572 165.629 25.1788 163.722 25.1788 161.441ZM19.0134 151.227L19.0134 152.204L22.4335 152.204C23.6549 152.204 24.2831 152.96 24.2831 153.925C24.2831 154.891 23.6549 155.612 22.4335 155.612L19.0134 155.612L19.0134 156.589L22.5731 156.589C24.3878 156.589 25.1788 155.496 25.1788 154.228C25.1788 153.181 24.6553 152.518 24.0737 152.204L25.0625 152.204L25.0625 151.227L19.0134 151.227ZM17.7222 155.566L17.7222 154.635L16.7334 154.635L16.7334 155.566L17.7222 155.566ZM17.7222 153.076L17.7222 152.146L16.7334 152.146L16.7334 153.076L17.7222 153.076ZM25.0625 147.922L25.0625 147.014L19.0134 144.443L19.0134 145.456L23.8527 147.468L19.0134 149.48L19.0134 150.493L25.0625 147.922ZM25.1788 141.243C25.1788 140.266 24.7833 139.394 24.1086 138.847L23.6084 139.336C24.0853 139.778 24.3413 140.429 24.3413 141.139C24.3413 142.302 23.6666 143.268 22.3986 143.419L22.3986 138.44C20.0022 138.196 18.8971 139.801 18.8971 141.336C18.8971 142.86 20.0022 144.349 22.038 144.349C24.0504 144.349 25.1788 142.872 25.1788 141.243ZM21.6541 143.419C20.3861 143.268 19.7463 142.325 19.7463 141.325C19.7463 140.313 20.4094 139.371 21.6541 139.301L21.6541 143.419ZM25.0625 137.555L25.0625 136.577L21.6424 136.577C20.421 136.577 19.7928 135.821 19.7928 134.856C19.7928 133.89 20.421 133.169 21.6424 133.169L25.0625 133.169L25.0625 132.192L21.5028 132.192C19.6881 132.192 18.8971 133.285 18.8971 134.553C18.8971 135.6 19.4206 136.263 20.0022 136.577L19.0134 136.577L19.0134 137.555L25.0625 137.555ZM25.0625 128.795L25.0625 127.795L22.6196 127.795L21.3167 126.667L25.0625 123.63L25.0625 122.49L20.6071 126.062L16.8032 122.781L16.8032 123.945L21.2935 127.795L16.8032 127.795L16.8032 128.795L25.0625 128.795ZM25.1788 119.9C25.1788 118.772 24.5623 117.922 23.9225 117.632L23.9225 117.597L25.0625 117.597L25.0625 116.619L19.0134 116.619L19.0134 117.597L20.1534 117.597L20.1534 117.632C19.5136 117.922 18.8971 118.772 18.8971 119.9C18.8971 121.366 19.9673 122.866 22.038 122.866C24.1086 122.866 25.1788 121.366 25.1788 119.9ZM22.038 121.889C20.5373 121.889 19.7928 120.807 19.7928 119.737C19.7928 118.644 20.5489 117.562 22.038 117.562C23.527 117.562 24.2831 118.644 24.2831 119.737C24.2831 120.807 23.5386 121.889 22.038 121.889ZM25.0625 115.888L25.0625 110.618L24.19 110.618L24.19 114.271L19.0134 110.444L19.0134 115.551L19.8859 115.551L19.8859 112.061L25.0625 115.888ZM25.1788 107.392C25.1788 106.264 24.5623 105.414 23.9225 105.123L23.9225 105.089L25.0625 105.089L25.0625 104.111L19.0134 104.111L19.0134 105.089L20.1534 105.089L20.1534 105.123C19.5136 105.414 18.8971 106.264 18.8971 107.392C18.8971 108.858 19.9673 110.358 22.038 110.358C24.1086 110.358 25.1788 108.858 25.1788 107.392ZM22.038 109.381C20.5373 109.381 19.7928 108.299 19.7928 107.229C19.7928 106.136 20.5489 105.054 22.038 105.054C23.527 105.054 24.2831 106.136 24.2831 107.229C24.2831 108.299 23.5386 109.381 22.038 109.381ZM25.0625 102.973L25.0625 101.996L21.6424 101.996C20.421 101.996 19.7928 101.239 19.7928 100.274C19.7928 99.3084 20.421 98.5872 21.6424 98.5872L25.0625 98.5872L25.0625 97.61L21.5028 97.61C19.6881 97.61 18.8971 98.7035 18.8971 99.9715C18.8971 101.018 19.4206 101.682 20.0022 101.996L19.0134 101.996L19.0134 102.973L25.0625 102.973ZM25.0625 96.4688L25.0625 95.4917L19.0134 95.4917L19.0134 96.4688L25.0625 96.4688ZM27.2727 93.2099L27.2727 92.2444L25.0625 91.2789L19.0134 88.708L19.0134 89.7201L23.8527 91.7325L19.0134 93.745L19.0134 94.7571L25.0043 92.2095L27.2727 93.2099ZM25.1788 85.4731C25.1788 83.9026 24.0621 82.3322 22.038 82.3322C20.0138 82.3322 18.8971 83.9026 18.8971 85.4731C18.8971 87.0435 20.0138 88.6139 22.038 88.6139C24.0621 88.6139 25.1788 87.0435 25.1788 85.4731ZM22.038 87.6368C20.6071 87.6368 19.7928 86.5898 19.7928 85.4731C19.7928 84.3563 20.6071 83.3094 22.038 83.3094C23.4688 83.3094 24.2831 84.3563 24.2831 85.4731C24.2831 86.5898 23.4688 87.6368 22.038 87.6368ZM25.0625 81.4784L25.0625 80.5012L22.0263 80.5012C20.6769 80.5012 19.8277 79.6753 19.8277 78.5469C19.8277 78.4073 19.8393 78.3142 19.8626 78.2095L18.9436 78.2095C18.9087 78.3026 18.8971 78.4189 18.8971 78.5585C18.8971 79.6753 19.6416 80.2802 20.514 80.5012L19.0134 80.5012L19.0134 81.4784L25.0625 81.4784Z" fill="white"/>
<path d="M22.1166 471.704C22.441 472.028 22.9672 472.028 23.2916 471.704L28.5796 466.416C28.9041 466.091 28.9041 465.565 28.5796 465.24C28.2551 464.916 27.729 464.916 27.4045 465.24L22.7041 469.941L18.0037 465.24C17.6792 464.916 17.1531 464.916 16.8286 465.24C16.5041 465.565 16.5041 466.091 16.8286 466.416L22.1166 471.704ZM23.535 471.116L23.535 442.034L21.8732 442.034L21.8732 471.116L23.535 471.116Z" fill="white"/>
<path d="M23.2916 36.8038C22.9672 36.4793 22.441 36.4793 22.1166 36.8038L16.8286 42.0917C16.5041 42.4162 16.5041 42.9423 16.8286 43.2668C17.1531 43.5913 17.6792 43.5913 18.0037 43.2668L22.7041 38.5665L27.4045 43.2668C27.729 43.5913 28.2551 43.5913 28.5796 43.2668C28.9041 42.9423 28.9041 42.4162 28.5796 42.0917L23.2916 36.8038ZM21.8732 37.3914L21.8732 66.4735L23.535 66.4735L23.535 37.3914L21.8732 37.3914Z" fill="white"/>
<path d="M22.7041 289.145L22.7041 274.188" stroke="white" stroke-width="1.66184"/>
<path d="M22.7041 237.628L22.7041 222.672" stroke="white" stroke-width="1.66184"/>
<defs>
<linearGradient id="paint0_linear_30_2039" x1="23.6885" y1="0" x2="23.6885" y2="511.014" gradientUnits="userSpaceOnUse">
<stop stop-color="#1382C5"/>
<stop offset="1" stop-color="#ACE0FF" stop-opacity="0.7"/>
</linearGradient>
</defs>
</svg>
