<svg width="113" height="36" viewBox="0 0 113 36" fill="none" xmlns="http://www.w3.org/2000/svg">
<path d="M54.0414 25H56.1811V15.097H56.2757L63.0734 25H65.232V11.5562H63.0923V21.4592H62.9976L56.1811 11.5562H54.0414V25ZM69.4009 25H76.9938V23.0118H71.5405V19.2059H76.0092V17.2746H71.5405V13.5444H76.8234V11.5562H69.4009V25ZM80.8587 25H85.3274C89.1522 25 91.8788 22.2544 91.8788 18.2781C91.8788 14.3018 89.1522 11.5562 85.3274 11.5562H80.8587V25ZM82.9984 22.974V13.5822H85.2516C88.1108 13.5822 89.6635 15.4757 89.6635 18.2781C89.6635 21.0805 88.1108 22.974 85.2516 22.974H82.9984ZM95.645 25H97.7846V11.5562H95.645V25ZM95.6639 9.83313H97.7657V7.75029H95.6639V9.83313ZM109.424 25H111.715L108.496 20.058C110.143 19.4331 111.128 17.9941 111.128 16.0438C111.128 13.374 109.31 11.5562 106.47 11.5562H101.925V25H104.065V20.3988H106.47H106.489L109.424 25ZM104.065 18.5243V13.5444H106.224C107.871 13.5444 108.95 14.3207 108.95 16.0438C108.95 17.7669 107.871 18.5243 106.224 18.5243H104.065Z" fill="#007AC3"/>
<path d="M16.8668 0C16.3191 0.265124 15.7902 0.549185 15.2803 0.87112C14.7042 1.22146 14.1565 1.60021 13.6276 2.01683C11.4461 3.7212 9.66117 5.92741 8.45236 8.44608C8.3957 8.57864 8.33903 8.70173 8.28237 8.8343C7.37576 10.8322 6.82802 13.0195 6.70525 15.3298C6.70525 15.6423 6.68636 15.9453 6.68636 16.2578C6.68636 16.8164 6.71469 17.3751 6.76191 17.9242C6.74302 17.9716 6.72413 18 6.70525 18.0379C6.48804 17.6307 6.28972 17.2046 6.11028 16.7785C5.36422 15.0552 4.88258 13.1899 4.72204 11.2393C4.67482 10.8227 4.65593 10.4061 4.65593 9.98001C4.64648 9.87585 4.64648 9.76223 4.64648 9.6486C4.64648 9.0142 4.68426 8.38927 4.74092 7.76433C4.90147 6.19253 5.67587 4.75329 6.91301 3.78748C7.81962 3.07733 8.80178 2.45239 9.84061 1.93161C11.1439 1.25934 12.5416 0.738558 14.0148 0.416623C14.9403 0.198843 15.8941 0.0568122 16.8668 0V0Z" fill="#007AC3"/>
<path d="M12.107 27.6012C11.5687 27.5539 11.0399 27.4876 10.5205 27.3929C8.63169 27.0615 6.83736 26.4366 5.20357 25.5655C5.02414 25.4708 4.85415 25.3761 4.68416 25.2719C3.79643 24.7606 2.95593 24.1736 2.17209 23.5297C0.972718 22.526 0.198321 21.1057 0.066107 19.5529C0.0188877 19.051 0 18.5397 0 18.0189C0 17.8769 0 17.7349 0.00944386 17.5928C0.0472193 15.9358 0.302204 14.3451 0.764953 12.8301C1.01049 11.959 1.33158 11.1162 1.71878 10.3114C1.70934 10.6144 1.6999 10.9174 1.6999 11.2299C1.6999 11.4761 1.6999 11.7222 1.71878 11.9684C1.74711 12.7354 1.82267 13.4929 1.95488 14.2314C2.40819 16.9868 3.49423 19.5339 5.06191 21.7212C5.10913 21.7875 5.15635 21.8632 5.20357 21.9295C6.44071 23.6149 7.95173 25.0542 9.67996 26.2283C10.4449 26.7396 11.2571 27.1941 12.0976 27.5823L12.107 27.6012Z" fill="#007AC3"/>
<path d="M32.9023 7.88742C32.4395 7.57496 31.9579 7.2909 31.4574 7.02577C30.9191 6.74171 30.3619 6.47659 29.7953 6.25881C27.7082 5.39716 25.4133 4.92372 23.0146 4.92372C22.4857 4.92372 21.9568 4.94266 21.4374 4.99947C21.4374 4.99947 21.4311 4.99631 21.4185 4.99C21.4185 4.99 21.3808 4.9616 21.3713 4.95213C21.3808 4.9616 21.3997 4.98053 21.4091 4.99947C19.0198 5.20778 16.7627 5.88953 14.7323 6.95002C14.2318 7.20568 13.7407 7.48974 13.2685 7.80221C12.9002 8.02945 12.5413 8.28511 12.1919 8.55023C12.343 8.29458 12.5035 8.04839 12.6735 7.81167C12.8152 7.59389 12.9757 7.38558 13.1268 7.17727C14.3734 5.54865 15.8939 4.12835 17.6127 3.01104C17.8771 2.83114 18.1415 2.67017 18.4154 2.51867C19.1426 2.09258 19.9075 1.71383 20.7008 1.3919C22.1268 0.814305 23.7229 0.833243 25.1394 1.43924C26.1971 1.89374 27.2076 2.45239 28.1426 3.09626C29.2758 3.8727 30.3147 4.77222 31.2307 5.78537C31.8446 6.43871 32.4018 7.14886 32.9023 7.88742Z" fill="#007AC3"/>
<path d="M23.2978 27.9232C23.0239 28.3209 22.7406 28.6996 22.429 29.0689C21.1635 30.6123 19.643 31.9474 17.9337 32.9984C17.8015 33.0742 17.6787 33.1499 17.5465 33.2257C16.6493 33.7464 15.6955 34.2009 14.7133 34.5607C13.2779 35.0815 11.7007 34.9963 10.3219 34.343C9.55698 33.9832 8.82036 33.5665 8.13096 33.112C7.05436 32.3924 6.05331 31.5686 5.15614 30.6502C4.34397 29.8264 3.61679 28.9174 2.97461 27.9516C3.56957 28.3587 4.19287 28.728 4.84449 29.0689H4.85394C5.34502 29.3246 5.82666 29.5518 6.34607 29.7601C8.43316 30.6123 10.728 31.0857 13.1268 31.0857C13.5423 31.0857 13.9578 31.0668 14.3734 31.0384C14.5245 31.0289 14.6661 31.0195 14.8172 31.0005C17.0554 30.8017 19.1708 30.1767 21.0879 29.2204C21.8623 28.8417 22.599 28.4061 23.3072 27.9232H23.2978Z" fill="#007AC3"/>
<path d="M31.212 25.859C31.212 26.8532 31.1365 27.8285 30.9759 28.7754C30.7304 30.2715 29.9371 31.616 28.7283 32.5155C27.8217 33.1973 26.849 33.7843 25.8196 34.2767C24.7713 34.788 23.6569 35.1952 22.5048 35.4982C21.5321 35.7538 20.5216 35.9243 19.4922 36C20.0588 35.716 20.6066 35.394 21.1354 35.0437C21.5604 34.7691 21.9759 34.4756 22.3726 34.1631C24.6485 32.383 26.4806 30.0726 27.6895 27.4119C27.7745 27.2509 27.8406 27.0805 27.9067 26.9195C28.6811 25.0826 29.1627 23.0847 29.2855 21.0016C29.3044 20.6418 29.3138 20.282 29.3138 19.9222C29.3138 19.4771 29.2949 19.0416 29.2666 18.606C29.2383 18.2083 29.2005 17.8106 29.1344 17.4224C29.2666 17.6686 29.3988 17.9148 29.5121 18.1705C29.6916 18.5492 29.8521 18.9374 30.0032 19.3256C30.7115 21.1342 31.127 23.0847 31.2026 25.1205C31.212 25.253 31.212 25.3856 31.212 25.5276C31.2215 25.6318 31.2215 25.7454 31.2215 25.859H31.212Z" fill="#007AC3"/>
<path d="M36 18.0189C36 18.3314 35.9906 18.6439 35.9812 18.9469C35.915 20.1021 35.7545 21.2194 35.4901 22.2988C35.2351 23.3498 34.8857 24.3724 34.4512 25.3382C34.4607 25.1962 34.4607 25.0542 34.4607 24.9122C34.4607 24.3819 34.4418 23.8517 34.3851 23.3309C34.3474 22.8574 34.2907 22.384 34.2057 21.92C33.7524 19.1268 32.6475 16.5608 31.0703 14.364C31.0798 14.2788 31.0798 14.1841 31.0892 14.0894C31.0703 14.1652 31.0515 14.2409 31.0231 14.3072C29.701 12.4797 28.0483 10.9174 26.1501 9.70542C25.4985 9.27933 24.8185 8.90058 24.1102 8.57865C24.1008 8.5313 24.0724 8.48396 24.0347 8.43661C24.4691 8.46502 24.8941 8.51237 25.3096 8.57865C27.3117 8.87218 29.2005 9.49711 30.9287 10.4061C31.1648 10.5197 31.3914 10.6428 31.6086 10.7754C32.2508 11.1447 33.0913 11.7791 33.828 12.3756C35.0273 13.3414 35.7734 14.7522 35.915 16.2862C35.9717 16.8543 36 17.4319 36 18.0189Z" fill="#007AC3"/>
<path d="M18.0378 25.9064C22.3877 25.9064 25.914 22.3708 25.914 18.0095C25.914 13.6481 22.3877 10.1126 18.0378 10.1126C13.6879 10.1126 10.1616 13.6481 10.1616 18.0095C10.1616 22.3708 13.6879 25.9064 18.0378 25.9064Z" fill="#007AC3"/>
</svg>
