<svg width="28" height="28" viewBox="0 0 28 28" fill="none" xmlns="http://www.w3.org/2000/svg">
<path fill-rule="evenodd" clip-rule="evenodd" d="M11.75 6.125C11.75 4.88236 12.7574 3.875 14 3.875C15.2426 3.875 16.25 4.88236 16.25 6.125V21.875C16.25 23.1176 15.2426 24.125 14 24.125C12.7574 24.125 11.75 23.1176 11.75 21.875V6.125ZM2.75 11.75C2.75 10.5074 3.75736 9.5 5 9.5C6.24264 9.5 7.25 10.5074 7.25 11.75V21.875C7.25 23.1176 6.24264 24.125 5 24.125C3.75736 24.125 2.75 23.1176 2.75 21.875V11.75ZM23 9.5C21.7574 9.5 20.75 10.5074 20.75 11.75V21.875C20.75 23.1176 21.7574 24.125 23 24.125C24.2426 24.125 25.25 23.1176 25.25 21.875V11.75C25.25 10.5074 24.2426 9.5 23 9.5Z" fill="white"/>
</svg>
