<svg width="128" height="36" viewBox="0 0 128 36" fill="none" xmlns="http://www.w3.org/2000/svg">
<path d="M58.529 11.5562L53.284 25H55.5941L56.6355 22.2544H62.6568L63.6982 25H66.0083L60.7444 11.5562H58.529ZM57.374 20.2663L59.6462 14.2639L61.9183 20.2663H57.374ZM69.4194 25H71.559V15.097H71.6537L78.4513 25H80.6099V11.5562H78.4703V21.4592H78.3756L71.559 11.5562H69.4194V25ZM89.2664 11.5562L84.0215 25H86.3315L87.3729 22.2544H93.3942L94.4357 25H96.7457L91.4818 11.5562H89.2664ZM88.1114 20.2663L90.3836 14.2639L92.6558 20.2663H88.1114ZM100.157 25H107.844V23.0118H102.296V11.5562H100.157V25ZM111.615 25H113.754V11.5562H111.615V25ZM111.634 9.83313H113.735V7.75029H111.634V9.83313ZM117.232 25H127.306V23.0118H120.584L127.476 11.5562H117.554V13.5444H124.125L117.232 25Z" fill="#007AC3"/>
<path d="M16.8668 0C16.3191 0.265124 15.7902 0.549185 15.2803 0.87112C14.7042 1.22146 14.1565 1.60021 13.6276 2.01683C11.4461 3.7212 9.66117 5.92741 8.45236 8.44608C8.3957 8.57864 8.33903 8.70173 8.28237 8.8343C7.37576 10.8322 6.82802 13.0195 6.70525 15.3298C6.70525 15.6423 6.68636 15.9453 6.68636 16.2578C6.68636 16.8164 6.71469 17.3751 6.76191 17.9242C6.74302 17.9716 6.72413 18 6.70525 18.0379C6.48804 17.6307 6.28972 17.2046 6.11028 16.7785C5.36422 15.0552 4.88258 13.1899 4.72204 11.2393C4.67482 10.8227 4.65593 10.4061 4.65593 9.98001C4.64648 9.87585 4.64648 9.76223 4.64648 9.6486C4.64648 9.0142 4.68426 8.38927 4.74092 7.76433C4.90147 6.19253 5.67587 4.75329 6.91301 3.78748C7.81962 3.07733 8.80178 2.45239 9.84061 1.93161C11.1439 1.25934 12.5416 0.738558 14.0148 0.416623C14.9403 0.198843 15.8941 0.0568122 16.8668 0V0Z" fill="#007AC3"/>
<path d="M12.107 27.6012C11.5687 27.5539 11.0399 27.4876 10.5205 27.3929C8.63169 27.0615 6.83736 26.4366 5.20357 25.5655C5.02414 25.4708 4.85415 25.3761 4.68416 25.2719C3.79643 24.7606 2.95593 24.1736 2.17209 23.5297C0.972718 22.526 0.198321 21.1057 0.066107 19.5529C0.0188877 19.051 0 18.5397 0 18.0189C0 17.8769 0 17.7349 0.00944386 17.5928C0.0472193 15.9358 0.302204 14.3451 0.764953 12.8301C1.01049 11.959 1.33158 11.1162 1.71878 10.3114C1.70934 10.6144 1.6999 10.9174 1.6999 11.2299C1.6999 11.4761 1.6999 11.7222 1.71878 11.9684C1.74711 12.7354 1.82267 13.4929 1.95488 14.2314C2.40819 16.9868 3.49423 19.5339 5.06191 21.7212C5.10913 21.7875 5.15635 21.8632 5.20357 21.9295C6.44071 23.6149 7.95173 25.0542 9.67996 26.2283C10.4449 26.7396 11.2571 27.1941 12.0976 27.5823L12.107 27.6012Z" fill="#007AC3"/>
<path d="M32.9028 7.88748C32.44 7.57502 31.9584 7.29096 31.4579 7.02583C30.9196 6.74177 30.3624 6.47665 29.7957 6.25887C27.7086 5.39722 25.4138 4.92378 23.015 4.92378C22.4862 4.92378 21.9573 4.94272 21.4379 4.99953C21.4379 4.99953 21.4316 4.99638 21.419 4.99006C21.419 4.99006 21.3813 4.96166 21.3718 4.95219C21.3813 4.96166 21.4001 4.98059 21.4096 4.99953C19.0203 5.20784 16.7632 5.88959 14.7328 6.95008C14.2323 7.20574 13.7412 7.4898 13.269 7.80227C12.9007 8.02951 12.5418 8.28517 12.1924 8.55029C12.3435 8.29464 12.504 8.04845 12.674 7.81173C12.8157 7.59395 12.9762 7.38564 13.1273 7.17733C14.3739 5.54872 15.8944 4.12841 17.6132 3.0111C17.8776 2.8312 18.142 2.67023 18.4159 2.51873C19.1431 2.09264 19.908 1.71389 20.7013 1.39196C22.1273 0.814366 23.7233 0.833304 25.1399 1.4393C26.1976 1.8938 27.2081 2.45245 28.1431 3.09632C29.2763 3.87276 30.3152 4.77228 31.2312 5.78543C31.8451 6.43877 32.4022 7.14893 32.9028 7.88748Z" fill="#007AC3"/>
<path d="M23.2978 27.9232C23.0239 28.3209 22.7406 28.6997 22.429 29.0689C21.1635 30.6123 19.643 31.9474 17.9337 32.9984C17.8015 33.0742 17.6787 33.1499 17.5465 33.2257C16.6493 33.7465 15.6955 34.201 14.7133 34.5608C13.2779 35.0816 11.7007 34.9963 10.3219 34.343C9.55698 33.9832 8.82036 33.5666 8.13096 33.1121C7.05436 32.3924 6.05331 31.5687 5.15614 30.6502C4.34397 29.8264 3.61679 28.9174 2.97461 27.9516C3.56957 28.3588 4.19287 28.7281 4.84449 29.0689H4.85394C5.34502 29.3246 5.82666 29.5518 6.34607 29.7601C8.43316 30.6123 10.728 31.0858 13.1268 31.0858C13.5423 31.0858 13.9578 31.0668 14.3734 31.0384C14.5245 31.0289 14.6661 31.0195 14.8172 31.0005C17.0554 30.8017 19.1708 30.1768 21.0879 29.2204C21.8623 28.8417 22.599 28.4061 23.3072 27.9232H23.2978Z" fill="#007AC3"/>
<path d="M31.212 25.859C31.212 26.8532 31.1365 27.8285 30.9759 28.7753C30.7304 30.2714 29.9371 31.6159 28.7283 32.5155C27.8217 33.1972 26.849 33.7843 25.8196 34.2766C24.7713 34.788 23.6569 35.1951 22.5048 35.4981C21.5321 35.7538 20.5216 35.9242 19.4922 36C20.0588 35.7159 20.6066 35.394 21.1354 35.0436C21.5604 34.769 21.9759 34.4755 22.3726 34.163C24.6485 32.3829 26.4806 30.0725 27.6895 27.4118C27.7745 27.2509 27.8406 27.0804 27.9067 26.9195C28.6811 25.0825 29.1627 23.0846 29.2855 21.0015C29.3044 20.6417 29.3138 20.2819 29.3138 19.9221C29.3138 19.4771 29.2949 19.0415 29.2666 18.606C29.2383 18.2083 29.2005 17.8106 29.1344 17.4224C29.2666 17.6685 29.3988 17.9147 29.5121 18.1704C29.6916 18.5491 29.8521 18.9374 30.0032 19.3256C30.7115 21.1341 31.127 23.0846 31.2026 25.1204C31.212 25.253 31.212 25.3855 31.212 25.5276C31.2215 25.6317 31.2215 25.7453 31.2215 25.859H31.212Z" fill="#007AC3"/>
<path d="M35.9995 18.019C35.9995 18.3314 35.9901 18.6439 35.9807 18.9469C35.9146 20.1021 35.754 21.2194 35.4896 22.2988C35.2346 23.3498 34.8852 24.3725 34.4508 25.3383C34.4602 25.1962 34.4602 25.0542 34.4602 24.9122C34.4602 24.3819 34.4413 23.8517 34.3847 23.3309C34.3469 22.8575 34.2902 22.384 34.2052 21.9201C33.7519 19.1268 32.647 16.5608 31.0699 14.3641C31.0793 14.2788 31.0793 14.1841 31.0887 14.0895C31.0699 14.1652 31.051 14.241 31.0226 14.3072C29.7005 12.4798 28.0478 10.9174 26.1496 9.70545C25.498 9.27936 24.818 8.90061 24.1097 8.57868C24.1003 8.53133 24.072 8.48399 24.0342 8.43665C24.4686 8.46505 24.8936 8.5124 25.3091 8.57868C27.3112 8.87221 29.2 9.49714 30.9282 10.4061C31.1643 10.5198 31.3909 10.6429 31.6082 10.7754C32.2503 11.1447 33.0908 11.7791 33.8275 12.3756C35.0268 13.3414 35.7729 14.7523 35.9146 16.2862C35.9712 16.8543 35.9995 17.4319 35.9995 18.019Z" fill="#007AC3"/>
<path d="M18.0373 25.9063C22.3872 25.9063 25.9135 22.3708 25.9135 18.0094C25.9135 13.6481 22.3872 10.1125 18.0373 10.1125C13.6874 10.1125 10.1611 13.6481 10.1611 18.0094C10.1611 22.3708 13.6874 25.9063 18.0373 25.9063Z" fill="#007AC3"/>
</svg>
