<svg width="144" height="55" viewBox="0 0 144 55" fill="none" xmlns="http://www.w3.org/2000/svg">
<g clip-path="url(#clip0_101_6784)">
<path d="M56.8817 44.4148H63.3561V45.1393H57.6345V49.1025H62.6714V49.827H57.6345V54.1465H63.5617V54.8572H56.8817V44.4148V44.4148Z" fill="#1382C5"/>
<path d="M79.412 54.8572H78.7421L72.1998 45.7795V54.8572H71.4471V44.4148H72.1185L78.6609 53.508V44.4148H79.4136V54.8572H79.412Z" fill="#1382C5"/>
<path d="M87.6935 44.4148H90.8835C91.6594 44.4148 92.3657 44.5387 93.0057 44.7848C93.644 45.0309 94.1895 45.3819 94.6421 45.8363C95.0931 46.2906 95.4429 46.8395 95.69 47.4849C95.937 48.1285 96.0597 48.8478 96.0597 49.6446C96.0597 50.4414 95.9337 51.1745 95.6833 51.8181C95.433 52.4617 95.0782 53.009 94.6222 53.4599C94.1663 53.909 93.6191 54.2549 92.9792 54.4976C92.3392 54.7402 91.6329 54.8607 90.857 54.8607H87.6952V44.4182L87.6935 44.4148ZM95.2771 49.6429C95.2771 48.9511 95.1727 48.3264 94.9621 47.7671C94.7515 47.2078 94.4564 46.7346 94.0718 46.3474C93.6871 45.9602 93.2245 45.6607 92.6824 45.4525C92.1386 45.2443 91.54 45.1393 90.8818 45.1393H88.4446V54.1465H90.8536C91.5201 54.1465 92.1236 54.0432 92.6675 53.8333C93.2096 53.6251 93.6755 53.3273 94.0635 52.9384C94.4515 52.5495 94.7499 52.0797 94.9604 51.5256C95.171 50.9714 95.2755 50.3433 95.2755 49.6429H95.2771Z" fill="#1382C5"/>
<path d="M103.872 44.4148H110.346V45.1393H104.625V49.1025H109.662V49.827H104.625V54.1465H110.552V54.8572H103.872V44.4148V44.4148Z" fill="#1382C5"/>
<path d="M121.022 49.5723L125.799 54.8572H124.799L120.432 49.9836H119.187V54.8572H118.434V44.4148H119.187V49.2746H120.322L124.524 44.4148H125.482L121.02 49.5723H121.022Z" fill="#1382C5"/>
<path d="M138.378 46.0772C138.086 45.7743 137.736 45.5162 137.33 45.3028C136.924 45.0894 136.451 44.9827 135.914 44.9827C135.558 44.9827 135.236 45.0326 134.949 45.1324C134.662 45.2322 134.42 45.3665 134.223 45.5368C134.027 45.7072 133.876 45.9085 133.772 46.1409C133.668 46.3732 133.614 46.621 133.614 46.886C133.614 47.151 133.663 47.3696 133.759 47.5675C133.855 47.7671 133.984 47.9444 134.148 48.101C134.312 48.2576 134.501 48.3901 134.717 48.4985C134.931 48.6069 135.156 48.6947 135.395 48.7618L136.955 49.2454C137.786 49.5018 138.419 49.8666 138.859 50.3399C139.296 50.8131 139.515 51.4103 139.515 52.1296C139.515 52.5082 139.441 52.8713 139.29 53.2172C139.139 53.5631 138.918 53.8677 138.627 54.1345C138.335 54.3995 137.973 54.6111 137.545 54.766C137.116 54.9226 136.629 55.0001 136.082 55.0001C135.68 55.0001 135.299 54.9416 134.939 54.8228C134.578 54.7041 134.249 54.5595 133.954 54.3891C133.658 54.2188 133.404 54.0415 133.195 53.8557C132.984 53.6715 132.825 53.5132 132.716 53.379L133.25 52.8954C133.351 53.009 133.488 53.1467 133.668 53.3067C133.845 53.4685 134.054 53.6199 134.291 53.761C134.528 53.9039 134.797 54.026 135.098 54.131C135.4 54.236 135.728 54.2876 136.083 54.2876C136.521 54.2876 136.907 54.2291 137.24 54.1104C137.574 53.9916 137.852 53.8333 138.076 53.6337C138.3 53.4341 138.469 53.2052 138.582 52.9453C138.696 52.6855 138.753 52.4118 138.753 52.1279C138.753 51.5978 138.595 51.1539 138.28 50.7993C137.965 50.4448 137.471 50.1575 136.794 49.9406L135.18 49.4295C134.86 49.3349 134.561 49.2144 134.283 49.0681C134.004 48.9218 133.757 48.7446 133.543 48.5346C133.329 48.3264 133.16 48.0872 133.037 47.817C132.915 47.5468 132.852 47.2319 132.852 46.8723C132.852 46.5126 132.926 46.1736 133.077 45.8569C133.228 45.5403 133.44 45.2649 133.714 45.0326C133.987 44.8003 134.311 44.6161 134.685 44.4785C135.06 44.3408 135.47 44.272 135.917 44.272C136.519 44.272 137.075 44.3959 137.58 44.642C138.086 44.8881 138.514 45.1961 138.86 45.5661L138.381 46.0772H138.378Z" fill="#1382C5"/>
<path d="M21.62 0C16.3891 0.239205 11.6207 2.32494 7.89859 5.63939C7.87538 5.66521 7.8588 5.68586 7.83393 5.71339C4.56772 9.22919 5.24583 15.9132 8.26666 23.215C8.16884 21.4252 8.37277 19.3446 8.62147 17.4912C9.84008 8.45135 15.2799 1.47653 21.62 0Z" fill="#1382C5"/>
<path d="M29.7358 1.56098C24.9906 0.872616 19.7912 4.51748 15.2749 10.6749C16.7671 9.65781 18.9755 8.55988 20.6468 7.85431C28.673 4.47446 37.0872 5.78579 41.5455 10.5733C39.3404 7.09367 36.2715 4.25935 32.6505 2.40078C31.7154 1.97227 30.7239 1.70209 29.7374 1.5627" fill="#1382C5"/>
<path d="M8.37291 23.4611C8.37291 23.4421 8.37291 23.4249 8.37291 23.4077C8.36955 23.4163 8.36284 23.4249 8.36116 23.437L8.37123 23.4611H8.37291Z" fill="white"/>
<path d="M23.9362 46.9066C29.1604 46.5985 33.9022 44.4526 37.5846 41.0848C40.4761 37.1663 39.9356 30.5718 37.0292 23.3784C37.1088 25.2232 36.9662 27.7065 36.7324 29.4652C35.532 38.407 30.1934 45.332 23.9362 46.9066" fill="#1382C5"/>
<path d="M15.1224 10.8824L15.1389 10.8691H15.1306C15.1306 10.8691 15.1257 10.8774 15.1224 10.8824Z" fill="white"/>
<path d="M44.636 19.004C42.905 14.5692 37.4105 11.8158 30.2663 10.7747C31.7469 11.5818 33.3667 12.764 34.6981 13.8396C41.5007 19.3379 44.6177 27.5053 42.9067 33.8881C44.4105 30.7457 45.261 27.2058 45.261 23.4594C45.261 22.5904 45.2113 21.7368 45.1251 20.8918C45.0206 20.2327 44.8681 19.5908 44.636 19.004" fill="#1382C5"/>
<path d="M15.4523 45.2425C19.9637 45.8998 24.9193 42.4443 29.2997 36.681C27.9203 37.5931 26.2507 38.4518 24.7088 39.1023C16.5283 42.5424 7.95496 41.1175 3.56299 36.1062C5.70343 39.5738 8.69442 42.4185 12.2325 44.3218C13.2522 44.8122 14.3713 45.091 15.4523 45.2442" fill="#1382C5"/>
<path d="M15.4274 36.3677C13.8806 35.5227 11.9921 34.1976 10.6575 33.1169C3.65417 27.4483 0.558737 18.9608 2.61794 12.4954C0.951677 15.7685 0 19.5011 0 23.4609C0 25.0889 0.159165 26.6721 0.462575 28.2037C2.41069 32.5903 8.11412 35.3627 15.4274 36.3677" fill="#1382C5"/>
<path d="M32.7549 23.4765C32.7549 29.2811 28.2187 33.9844 22.6313 33.9844C17.044 33.9844 12.5044 29.2811 12.5044 23.4765C12.5044 17.6719 17.0373 12.9722 22.6313 12.9722C28.2253 12.9722 32.7549 17.6754 32.7549 23.4765Z" fill="#1382C5"/>
<path d="M85.9477 25.657V30.6648H96.179C96.4708 30.6648 96.7278 30.9315 96.7278 31.231V34.437C96.7278 34.7382 96.4692 35.0032 96.179 35.0032H81.9569C81.6668 35.0032 81.4115 34.7365 81.4115 34.437V12.1944C81.4115 11.8932 81.6685 11.6248 81.9569 11.6248H96.179C96.4708 11.6248 96.7278 11.8949 96.7278 12.1944V15.3987C96.7278 15.7016 96.4692 15.9666 96.179 15.9666H85.9477V21.31H95.5573C95.8458 21.31 96.1028 21.5767 96.1028 21.8779V25.0839C96.1028 25.3851 95.8441 25.6553 95.5573 25.6553H85.9477V25.657Z" fill="#221F1F"/>
<path d="M112.664 20.8435C116.176 22.0791 120.647 23.5487 120.357 28.56C120.13 32.3684 116.847 35.2715 112.15 35.2715C108.965 35.2715 106.487 34.5401 103.912 33.1686C103.655 33.0361 103.56 32.6678 103.688 32.4028L105.167 29.4944C105.296 29.226 105.649 29.0952 105.908 29.226C107.903 30.1949 109.899 30.897 111.925 30.897C113.951 30.897 115.302 30.0262 115.531 28.6564C115.788 26.9871 114.115 26.0853 111.925 25.3849C108.516 24.2818 103.945 23.1478 103.945 18.0728C103.945 13.7981 107.002 11.2581 111.252 11.2581C112.47 11.2581 115.4 11.5248 118.971 13.1614C119.232 13.2939 119.359 13.6312 119.232 13.9289L118.043 16.8372C117.913 17.1367 117.59 17.2692 117.3 17.1728C115.98 16.6032 113.535 15.6653 111.573 15.6653C109.995 15.6653 108.582 16.197 108.516 17.8371C108.582 19.4048 110.446 20.0398 112.666 20.8418" fill="#221F1F"/>
<path d="M136.297 20.8435C139.807 22.0791 144.279 23.5487 143.987 28.56C143.763 32.3684 140.478 35.2715 135.78 35.2715C132.596 35.2715 130.118 34.5401 127.541 33.1686C127.283 33.0361 127.191 32.6678 127.319 32.4028L128.798 29.4944C128.927 29.226 129.279 29.0952 129.537 29.226C131.535 30.1949 133.528 30.897 135.554 30.897C137.58 30.897 138.935 30.0262 139.162 28.6564C139.419 26.9871 137.748 26.0853 135.554 25.3849C132.147 24.2818 127.576 23.1478 127.576 18.0728C127.576 13.7981 130.632 11.2581 134.881 11.2581C136.101 11.2581 139.033 11.5248 142.604 13.1614C142.863 13.2939 142.992 13.6312 142.863 13.9289L141.671 16.8372C141.543 17.1367 141.221 17.2692 140.929 17.1728C139.613 16.6032 137.166 15.6653 135.204 15.6653C133.626 15.6653 132.215 16.197 132.147 17.8371C132.215 19.4048 134.079 20.0398 136.299 20.8418" fill="#221F1F"/>
<path d="M62.3332 28.8749C62.1011 29.1382 61.8126 29.1382 61.5788 28.8749L56.2368 22.4577V34.1168C56.2368 34.5935 56.0345 34.96 55.7759 34.96H52.2709C52.014 34.96 51.81 34.5935 51.81 34.1168V12.0634C51.81 11.6401 51.9825 11.3269 52.2129 11.3269C52.4749 11.3269 52.7385 11.4818 52.9673 11.6935L61.9552 22.0326L71.0011 11.6935C71.205 11.4302 71.4686 11.3269 71.6974 11.3269C71.9262 11.3269 72.1036 11.6401 72.1036 12.0101V34.1168C72.1036 34.5935 71.898 34.96 71.6411 34.96H68.0748C67.8144 34.96 67.6105 34.5935 67.6105 34.1168V22.4973L62.3332 28.8732V28.8749Z" fill="#221F1F"/>
<path d="M77.2284 11.623H76.4044V34.9602H77.2284V11.623Z" fill="#1382C5"/>
<path d="M100.773 11.623H99.951V34.9602H100.773V11.623Z" fill="#1382C5"/>
<path d="M124.292 11.623H123.468V34.9602H124.292V11.623Z" fill="#1382C5"/>
</g>
<defs>
<clipPath id="clip0_101_6784">
<rect width="144" height="55" fill="white"/>
</clipPath>
</defs>
</svg>
