<svg width="28" height="28" viewBox="0 0 28 28" fill="none" xmlns="http://www.w3.org/2000/svg">
<path fill-rule="evenodd" clip-rule="evenodd" d="M5.875 2.75H22.125C23.2296 2.75 24.125 3.64543 24.125 4.75V22.4043C24.125 23.7896 22.7509 24.7553 21.4476 24.2861L19.2608 23.4989C18.7728 23.3232 18.2356 23.344 17.7626 23.5568L14.8207 24.8807C14.2988 25.1155 13.7012 25.1155 13.1793 24.8807L10.2374 23.5568C9.76439 23.344 9.22721 23.3232 8.7392 23.4989L6.55244 24.2861C5.24912 24.7553 3.875 23.7896 3.875 22.4043V4.75C3.875 3.64543 4.77043 2.75 5.875 2.75ZM19.625 9.125C20.0392 9.125 20.375 8.78921 20.375 8.375C20.375 7.96079 20.0392 7.625 19.625 7.625L8.375 7.625C7.96079 7.625 7.625 7.96079 7.625 8.375C7.625 8.78921 7.96079 9.125 8.375 9.125L19.625 9.125ZM20.375 12.875C20.375 13.2892 20.0392 13.625 19.625 13.625L8.375 13.625C7.96079 13.625 7.625 13.2892 7.625 12.875C7.625 12.4608 7.96079 12.125 8.375 12.125L19.625 12.125C20.0392 12.125 20.375 12.4608 20.375 12.875ZM14 18.125C14.4142 18.125 14.75 17.7892 14.75 17.375C14.75 16.9608 14.4142 16.625 14 16.625H8.375C7.96079 16.625 7.625 16.9608 7.625 17.375C7.625 17.7892 7.96079 18.125 8.375 18.125H14Z" fill="white"/>
</svg>
