<svg width="28" height="28" viewBox="0 0 28 28" fill="none" xmlns="http://www.w3.org/2000/svg">
<path fill-rule="evenodd" clip-rule="evenodd" d="M22.4375 10.0625C23.5017 10.0625 24.4796 9.6931 25.25 9.07552V21.25C25.25 23.4591 23.4591 25.25 21.25 25.25H6.75C4.54086 25.25 2.75 23.4591 2.75 21.25V6.75C2.75 4.54086 4.54086 2.75 6.75 2.75H18.9245C18.3069 3.5204 17.9375 4.49831 17.9375 5.5625C17.9375 8.04778 19.9522 10.0625 22.4375 10.0625ZM10.3438 10.625C10.3438 9.84835 10.9733 9.21875 11.75 9.21875C12.5267 9.21875 13.1562 9.84835 13.1562 10.625V17.375C13.1562 19.0836 14.5414 20.4688 16.25 20.4688C17.9586 20.4688 19.3438 19.0836 19.3438 17.375V16.25C19.3438 15.4733 19.9733 14.8438 20.75 14.8438H21.875C22.341 14.8438 22.7188 14.466 22.7188 14C22.7188 13.534 22.341 13.1562 21.875 13.1562H20.75C19.0414 13.1562 17.6562 14.5414 17.6562 16.25V17.375C17.6562 18.1517 17.0267 18.7812 16.25 18.7812C15.4733 18.7812 14.8438 18.1517 14.8438 17.375V10.625C14.8438 8.91637 13.4586 7.53125 11.75 7.53125C10.0414 7.53125 8.65625 8.91637 8.65625 10.625V11.75C8.65625 12.5267 8.02665 13.1562 7.25 13.1562H6.125C5.65901 13.1562 5.28125 13.534 5.28125 14C5.28125 14.466 5.65901 14.8438 6.125 14.8438H7.25C8.95863 14.8438 10.3438 13.4586 10.3438 11.75V10.625ZM22.4375 8.375C23.9908 8.375 25.25 7.1158 25.25 5.5625C25.25 4.0092 23.9908 2.75 22.4375 2.75C20.8842 2.75 19.625 4.0092 19.625 5.5625C19.625 7.1158 20.8842 8.375 22.4375 8.375Z" fill="white"/>
</svg>
