<svg width="21" height="24" viewBox="0 0 21 24" fill="none" xmlns="http://www.w3.org/2000/svg">
<path d="M1.375 17.625H5.74225L3.74313 21.6221C3.67709 21.7543 3.63774 21.8983 3.62733 22.0457C3.61692 22.1932 3.63564 22.3412 3.68245 22.4814C3.72925 22.6216 3.8032 22.7512 3.90009 22.8628C3.99698 22.9744 4.1149 23.0658 4.24713 23.1319C4.37935 23.1979 4.52329 23.2373 4.67072 23.2477C4.81815 23.2581 4.96619 23.2394 5.10638 23.1926C5.24658 23.1458 5.37618 23.0718 5.48779 22.9749C5.5994 22.878 5.69084 22.7601 5.75688 22.6279L8.00688 18.1279C8.08155 17.971 8.11817 17.7987 8.11375 17.625H9.25V21C9.25 21.2984 9.36853 21.5845 9.57951 21.7955C9.79048 22.0065 10.0766 22.125 10.375 22.125C10.6734 22.125 10.9595 22.0065 11.1705 21.7955C11.3815 21.5845 11.5 21.2984 11.5 21V17.625H12.6362C12.6336 17.7992 12.6721 17.9715 12.7487 18.1279L14.9988 22.6279C15.0648 22.7601 15.1562 22.878 15.2678 22.9749C15.3794 23.0718 15.509 23.1458 15.6492 23.1926C15.7894 23.2394 15.9375 23.2581 16.0849 23.2477C16.2323 23.2373 16.3763 23.1979 16.5085 23.1319C16.6407 23.0658 16.7586 22.9744 16.8555 22.8628C16.9524 22.7512 17.0264 22.6216 17.0732 22.4814C17.12 22.3412 17.1387 22.1932 17.1283 22.0457C17.1179 21.8983 17.0785 21.7543 17.0125 21.6221L15.0077 17.625H19.375C19.6734 17.625 19.9595 17.5065 20.1705 17.2955C20.3815 17.0845 20.5 16.7984 20.5 16.5V5.25C20.5 4.95163 20.3815 4.66548 20.1705 4.4545C19.9595 4.24353 19.6734 4.125 19.375 4.125H11.5V1.875C11.5 1.57663 11.3815 1.29048 11.1705 1.0795C10.9595 0.868526 10.6734 0.75 10.375 0.75C10.0766 0.75 9.79048 0.868526 9.57951 1.0795C9.36853 1.29048 9.25 1.57663 9.25 1.875V4.125H1.375C1.07663 4.125 0.790483 4.24353 0.579505 4.4545C0.368526 4.66548 0.25 4.95163 0.25 5.25V16.5C0.25 16.7984 0.368526 17.0845 0.579505 17.2955C0.790483 17.5065 1.07663 17.625 1.375 17.625ZM13.75 8.625C13.75 8.32663 13.8685 8.04048 14.0795 7.82951C14.2905 7.61853 14.5766 7.5 14.875 7.5C15.1734 7.5 15.4595 7.61853 15.6705 7.82951C15.8815 8.04048 16 8.32663 16 8.625V13.125C16 13.4234 15.8815 13.7095 15.6705 13.9205C15.4595 14.1315 15.1734 14.25 14.875 14.25C14.5766 14.25 14.2905 14.1315 14.0795 13.9205C13.8685 13.7095 13.75 13.4234 13.75 13.125V8.625ZM9.25 9.75C9.25 9.45163 9.36853 9.16548 9.57951 8.95451C9.79048 8.74353 10.0766 8.625 10.375 8.625C10.6734 8.625 10.9595 8.74353 11.1705 8.95451C11.3815 9.16548 11.5 9.45163 11.5 9.75V13.125C11.5 13.4234 11.3815 13.7095 11.1705 13.9205C10.9595 14.1315 10.6734 14.25 10.375 14.25C10.0766 14.25 9.79048 14.1315 9.57951 13.9205C9.36853 13.7095 9.25 13.4234 9.25 13.125V9.75ZM4.75 10.875C4.75 10.5766 4.86853 10.2905 5.0795 10.0795C5.29048 9.86853 5.57663 9.75 5.875 9.75C6.17337 9.75 6.45952 9.86853 6.67049 10.0795C6.88147 10.2905 7 10.5766 7 10.875V13.125C7 13.4234 6.88147 13.7095 6.67049 13.9205C6.45952 14.1315 6.17337 14.25 5.875 14.25C5.57663 14.25 5.29048 14.1315 5.0795 13.9205C4.86853 13.7095 4.75 13.4234 4.75 13.125V10.875Z" fill="white"/>
</svg>
