<svg width="28" height="28" viewBox="0 0 28 28" fill="none" xmlns="http://www.w3.org/2000/svg">
<g clip-path="url(#clip0_1_5684)">
<path d="M16.6442 11.0018V14.2751H22.1318C24.0773 14.2751 25.6991 12.8904 26.0662 11.0529H20.3903C19.9537 11.0529 19.5998 10.699 19.5998 10.2624C19.5998 9.8258 19.9537 9.47186 20.3903 9.47186H26.0301C25.591 7.94346 23.9524 6.72832 22.4464 6.36294C22.5106 3.42408 20.3184 0.918646 17.4672 0.530762V4.70183L18.1108 5.34548C18.4195 5.65415 18.4195 6.15466 18.1108 6.46344C17.9565 6.6178 17.7541 6.69501 17.5518 6.69501C17.3495 6.69501 17.1472 6.6178 16.9929 6.46344L16.1176 5.58827C15.9694 5.44008 15.8861 5.23897 15.8861 5.02932V0.532764C13.9566 0.797168 12.3311 2.01489 11.5001 3.69597C10.9001 3.1953 10.1282 2.8938 9.28567 2.8938C7.39136 2.8938 5.23549 4.41666 5.20967 6.30486C3.56859 6.5787 2.26544 7.84859 1.94096 9.47191H5.11512C5.5517 9.47191 5.90565 9.82585 5.90565 10.2624C5.90565 10.699 5.5517 11.053 5.11512 11.053H1.94043C2.3076 12.8905 3.92939 14.2751 5.87487 14.2751H8.05999C8.05872 14.2569 8.05719 14.2388 8.05719 14.2202V10.9185C8.05719 10.7088 8.14046 10.5077 8.28876 10.3595L9.49368 9.15454C9.35413 8.85488 9.27571 8.52128 9.27571 8.16949C9.27571 6.87825 10.3263 5.8277 11.6175 5.8277C12.9087 5.8277 13.9593 6.87825 13.9593 8.16949C13.9593 9.46079 12.9088 10.5113 11.6175 10.5113C11.2546 10.5113 10.9107 10.4283 10.6038 10.2804L9.6383 11.2459V14.2202C9.6383 14.2388 9.63677 14.2569 9.6355 14.2751H15.0631V11.0019C15.0631 10.5653 15.417 10.2114 15.8536 10.2114C16.2902 10.2114 16.6442 10.5653 16.6442 11.0018Z" fill="white"/>
<path d="M11.103 8.7276C11.2387 8.85293 11.4194 8.93024 11.6182 8.93024C12.0376 8.93024 12.3789 8.58894 12.3789 8.16944C12.3789 7.74999 12.0377 7.40869 11.6182 7.40869C11.1987 7.40869 10.8574 7.74999 10.8574 8.16944C10.8574 8.36285 10.9306 8.53904 11.0498 8.67343C11.0574 8.68043 11.0653 8.68676 11.0727 8.69408C11.0835 8.70484 11.093 8.71638 11.103 8.7276Z" fill="white"/>
<path d="M11.6082 25.8885H10.9952L10.9973 21.6746C10.9975 21.2592 10.6608 20.9224 10.2454 20.9224H2.69029C2.27563 20.9224 1.93924 21.2581 1.93839 21.6727L1.9298 25.8885H1.31288C0.887206 25.8885 0.520929 26.2156 0.500903 26.6408C0.479506 27.0948 0.84125 27.4695 1.29053 27.4695H11.6305C12.0798 27.4695 12.4415 27.0948 12.4201 26.6408C12.4001 26.2156 12.0338 25.8885 11.6082 25.8885Z" fill="white"/>
<path d="M26.6873 25.8885H26.0743L26.0764 21.6746C26.0766 21.2592 25.7399 20.9224 25.3245 20.9224H17.7694C17.3548 20.9224 17.0184 21.2581 17.0175 21.6727L17.009 25.8885H16.392C15.9663 25.8885 15.6 26.2156 15.58 26.6408C15.5586 27.0948 15.9204 27.4695 16.3696 27.4695H26.7096C27.1589 27.4695 27.5206 27.0948 27.4992 26.6408C27.4792 26.2156 27.113 25.8885 26.6873 25.8885Z" fill="white"/>
<path d="M20.749 15.8564V19.5711H22.3301V15.8525C22.2644 15.8548 22.1985 15.8564 22.1322 15.8564H20.749Z" fill="white"/>
<path d="M5.87509 15.8566C5.81195 15.8566 5.74913 15.8551 5.68652 15.853V19.5712H7.26757V15.8566H5.87509Z" fill="white"/>
</g>
<defs>
<clipPath id="clip0_1_5684">
<rect width="27" height="27" fill="white" transform="translate(0.5 0.5)"/>
</clipPath>
</defs>
</svg>
