<svg width="259" height="37" viewBox="0 0 259 37" fill="none" xmlns="http://www.w3.org/2000/svg">
<path d="M16.8981 0.616211C16.3503 0.881334 15.8215 1.1654 15.3115 1.48733C14.7354 1.83767 14.1877 2.21642 13.6588 2.63304C11.4773 4.33741 9.69242 6.54362 8.48361 9.06229C8.42695 9.19485 8.37028 9.31794 8.31362 9.45051C7.40701 11.4484 6.85927 13.6357 6.7365 15.946C6.7365 16.2585 6.71761 16.5615 6.71761 16.874C6.71761 17.4326 6.74594 17.9913 6.79316 18.5405C6.77427 18.5878 6.75538 18.6162 6.7365 18.6541C6.51929 18.2469 6.32097 17.8208 6.14153 17.3947C5.39547 15.6714 4.91383 13.8061 4.75329 11.8556C4.70607 11.4389 4.68718 11.0223 4.68718 10.5962C4.67773 10.4921 4.67773 10.3784 4.67773 10.2648C4.67773 9.63041 4.71551 9.00548 4.77217 8.38054C4.93272 6.80874 5.70712 5.3695 6.94426 4.40369C7.85087 3.69354 8.83303 3.0686 9.87186 2.54783C11.1751 1.87555 12.5728 1.35477 14.046 1.03283C14.9715 0.815054 15.9254 0.673023 16.8981 0.616211V0.616211Z" fill="#007AC3"/>
<path d="M12.1383 28.2176C11.6 28.1702 11.0711 28.104 10.5517 28.0093C8.66294 27.6779 6.86861 27.0529 5.23482 26.1818C5.05539 26.0871 4.8854 25.9924 4.71541 25.8883C3.82768 25.377 2.98718 24.7899 2.20334 24.146C1.00397 23.1424 0.229571 21.7221 0.097357 20.1692C0.0501377 19.6673 0.03125 19.156 0.03125 18.6353C0.03125 18.4932 0.03125 18.3512 0.0406939 18.2092C0.0784693 16.5521 0.333454 14.9614 0.796203 13.4464C1.04174 12.5753 1.36283 11.7326 1.75003 10.9277C1.74059 11.2307 1.73115 11.5337 1.73115 11.8462C1.73115 12.0924 1.73115 12.3386 1.75003 12.5848C1.77836 13.3517 1.85392 14.1092 1.98613 14.8478C2.43944 17.6032 3.52548 20.1502 5.09316 22.3375C5.14038 22.4038 5.1876 22.4795 5.23482 22.5458C6.47196 24.2313 7.98298 25.6705 9.71121 26.8446C10.4762 27.3559 11.2883 27.8104 12.1288 28.1986L12.1383 28.2176Z" fill="#007AC3"/>
<path d="M32.934 8.5037C32.4713 8.19123 31.9896 7.90717 31.4891 7.64204C30.9508 7.35798 30.3936 7.09286 29.827 6.87508C27.7399 6.01343 25.445 5.53999 23.0463 5.53999C22.5174 5.53999 21.9886 5.55893 21.4692 5.61574C21.4692 5.61574 21.4629 5.61259 21.4503 5.60627C21.4503 5.60627 21.4125 5.57787 21.4031 5.5684C21.4125 5.57787 21.4314 5.59681 21.4408 5.61574C19.0515 5.82405 16.7945 6.5058 14.764 7.56629C14.2635 7.82195 13.7724 8.10601 13.3002 8.41848C12.9319 8.64573 12.5731 8.90138 12.2236 9.1665C12.3747 8.91085 12.5353 8.66466 12.7053 8.42795C12.8469 8.21017 13.0075 8.00185 13.1586 7.79354C14.4052 6.16493 15.9256 4.74462 17.6444 3.62732C17.9088 3.44741 18.1733 3.28644 18.4471 3.13494C19.1743 2.70885 19.9393 2.3301 20.7326 2.00817C22.1586 1.43058 23.7546 1.44951 25.1712 2.05551C26.2289 2.51001 27.2394 3.06866 28.1743 3.71253C29.3076 4.48897 30.3464 5.38849 31.2625 6.40164C31.8763 7.05498 32.4335 7.76514 32.934 8.5037Z" fill="#007AC3"/>
<path d="M23.3291 28.5393C23.0552 28.937 22.7719 29.3157 22.4602 29.685C21.1947 31.2284 19.6743 32.5635 17.9649 33.6145C17.8327 33.6903 17.71 33.766 17.5777 33.8418C16.6806 34.3626 15.7267 34.8171 14.7446 35.1769C13.3091 35.6976 11.732 35.6124 10.3532 34.9591C9.58823 34.5993 8.85161 34.1827 8.16221 33.7282C7.08561 33.0085 6.08456 32.1848 5.18739 31.2663C4.37522 30.4425 3.64804 29.5335 3.00586 28.5677C3.60082 28.9749 4.22412 29.3441 4.87574 29.685H4.88519C5.37627 29.9407 5.85791 30.1679 6.37732 30.3762C8.46441 31.2284 10.7593 31.7019 13.158 31.7019C13.5735 31.7019 13.9891 31.6829 14.4046 31.6545C14.5557 31.645 14.6974 31.6356 14.8485 31.6166C17.0867 31.4178 19.2021 30.7929 21.1192 29.8365C21.8936 29.4578 22.6302 29.0222 23.3385 28.5393H23.3291Z" fill="#007AC3"/>
<path d="M31.2433 26.4752C31.2433 27.4694 31.1677 28.4447 31.0072 29.3915C30.7616 30.8876 29.9683 32.2322 28.7595 33.1317C27.8529 33.8134 26.8802 34.4005 25.8508 34.8929C24.8026 35.4042 23.6882 35.8113 22.536 36.1143C21.5633 36.37 20.5528 36.5404 19.5234 36.6162C20.0901 36.3321 20.6378 36.0102 21.1667 35.6598C21.5916 35.3852 22.0072 35.0917 22.4038 34.7792C24.6798 32.9991 26.5119 30.6888 27.7207 28.0281C27.8057 27.8671 27.8718 27.6966 27.9379 27.5357C28.7123 25.6988 29.194 23.7009 29.3167 21.6177C29.3356 21.2579 29.3451 20.8981 29.3451 20.5383C29.3451 20.0933 29.3262 19.6577 29.2978 19.2222C29.2695 18.8245 29.2317 18.4268 29.1656 18.0386C29.2978 18.2848 29.43 18.5309 29.5434 18.7866C29.7228 19.1654 29.8834 19.5536 30.0345 19.9418C30.7427 21.7503 31.1583 23.7009 31.2338 25.7366C31.2433 25.8692 31.2433 26.0017 31.2433 26.1438C31.2527 26.2479 31.2527 26.3616 31.2527 26.4752H31.2433Z" fill="#007AC3"/>
<path d="M36.0308 18.6351C36.0308 18.9475 36.0214 19.26 36.0119 19.563C35.9458 20.7182 35.7853 21.8355 35.5208 22.9149C35.2659 23.9659 34.9164 24.9886 34.482 25.9544C34.4915 25.8123 34.4915 25.6703 34.4915 25.5283C34.4915 24.998 34.4726 24.4678 34.4159 23.947C34.3781 23.4736 34.3215 23.0001 34.2365 22.5362C33.7832 19.7429 32.6782 17.1769 31.1011 14.9801C31.1106 14.8949 31.1105 14.8002 31.12 14.7055C31.1011 14.7813 31.0822 14.857 31.0539 14.9233C29.7317 13.0959 28.0791 11.5335 26.1809 10.3215C25.5292 9.89545 24.8493 9.5167 24.141 9.19477C24.1315 9.14742 24.1032 9.10008 24.0654 9.05273C24.4998 9.08114 24.9248 9.12848 25.3403 9.19477C27.3424 9.4883 29.2312 10.1132 30.9594 11.0222C31.1955 11.1358 31.4222 11.2589 31.6394 11.3915C32.2816 11.7608 33.1221 12.3952 33.8587 12.9917C35.0581 13.9575 35.8041 15.3684 35.9458 16.9023C36.0025 17.4704 36.0308 18.048 36.0308 18.6351Z" fill="#007AC3"/>
<path d="M18.0686 26.5226C22.4185 26.5226 25.9447 22.987 25.9447 18.6257C25.9447 14.2643 22.4185 10.7288 18.0686 10.7288C13.7187 10.7288 10.1924 14.2643 10.1924 18.6257C10.1924 22.987 13.7187 26.5226 18.0686 26.5226Z" fill="#007AC3"/>
<path d="M60.12 25.6162H62.7141V12.1724H60.12V17.7204H54.591V12.1724H51.9969V25.6162H54.591V20.1062H60.12V25.6162ZM71.1395 12.1724L65.9703 25.6162H68.7727L69.6626 23.1925H75.381L76.2709 25.6162H79.0733L73.8851 12.1724H71.1395ZM70.5336 20.8067L72.5218 15.4103L74.5099 20.8067H70.5336ZM82.3276 25.6162H87.137C90.1855 25.6162 91.795 24.0067 91.795 21.6588C91.795 19.6138 90.5453 18.4777 89.182 18.118C90.0909 17.7204 90.9429 16.7925 90.9429 15.4103C90.9429 13.5925 89.5228 12.1724 87.2506 12.1724H82.3276V25.6162ZM84.9216 23.344V19.4056H86.9477C88.5003 19.4056 89.2199 20.2198 89.2199 21.3937C89.2199 22.5866 88.5003 23.344 86.9855 23.344H84.9216ZM84.9216 17.3985V14.4446H86.7015C87.8565 14.4446 88.4435 14.9748 88.4435 15.9026C88.4435 16.7736 87.8755 17.3985 86.7394 17.3985H84.9216ZM95.4126 25.6162H103.195V23.2304H98.0067V20.0304H102.229V17.6825H98.0067V14.5582H103.024V12.1724H95.4126V25.6162ZM114.273 25.6162H117.038L113.894 20.731C115.447 20.0683 116.375 18.6671 116.375 16.7357C116.375 13.9902 114.481 12.1724 111.622 12.1724H106.907V25.6162H109.502V21.1665H111.509L114.273 25.6162ZM109.502 18.9133V14.5582H111.357C112.777 14.5582 113.743 15.1831 113.743 16.7357C113.743 18.3073 112.777 18.9133 111.357 18.9133H109.502ZM120.658 25.6162H128.497V23.2304H123.252V12.1724H120.658V25.6162ZM132.116 25.6162H139.898V23.2304H134.71V20.0304H138.933V17.6825H134.71V14.5582H139.728V12.1724H132.116V25.6162ZM150.977 25.6162H153.741L150.598 20.731C152.15 20.0683 153.078 18.6671 153.078 16.7357C153.078 13.9902 151.185 12.1724 148.326 12.1724H143.611V25.6162H146.205V21.1665H148.212L150.977 25.6162ZM146.205 18.9133V14.5582H148.061C149.481 14.5582 150.446 15.1831 150.446 16.7357C150.446 18.3073 149.481 18.9133 148.061 18.9133H146.205Z" fill="#007AC3"/>
</svg>
