<svg width="21" height="21" viewBox="0 0 21 21" fill="none" xmlns="http://www.w3.org/2000/svg">
<path fill-rule="evenodd" clip-rule="evenodd" d="M11.1949 4.25279C10.9207 4.53304 10.9207 4.98581 11.1968 5.26415L14.331 8.43167L14.4034 8.49566C14.6802 8.70887 15.0752 8.68666 15.3266 8.42977C15.4638 8.28964 15.5323 8.10758 15.5323 7.92552C15.5323 7.74155 15.4638 7.55853 15.3248 7.41841L12.1915 4.25089L12.1191 4.18712C11.8422 3.97464 11.4463 3.99678 11.1949 4.25279ZM3.19902 9.79053C2.85181 9.83467 2.58291 10.1356 2.58291 10.4999C2.58291 10.8945 2.89849 11.2148 3.28734 11.2148H15.6703L11.1967 15.7359L11.1334 15.8089C10.9224 16.0885 10.9434 16.4903 11.1948 16.7472C11.4691 17.0265 11.9152 17.0275 12.1904 16.7491L17.8728 11.006L17.9354 10.9341C18.0308 10.8083 18.0804 10.6548 18.0804 10.4999C18.0804 10.4074 18.0625 10.3149 18.0268 10.2272C17.9179 9.95939 17.6615 9.78495 17.3759 9.78495H3.28734L3.19902 9.79053Z" fill="#FEAB45"/>
</svg>
