<svg width="44" height="22" viewBox="0 0 44 22" fill="none" xmlns="http://www.w3.org/2000/svg">
<path fill-rule="evenodd" clip-rule="evenodd" d="M31.5401 0.354673C31.077 0.827835 31.077 1.5923 31.5433 2.06224L36.8351 7.41026L36.9573 7.51829C37.4246 7.87827 38.0916 7.84077 38.516 7.40704C38.7476 7.17046 38.8633 6.86307 38.8633 6.55567C38.8633 6.24506 38.7476 5.93605 38.5129 5.69947L33.2226 0.351454L33.1004 0.243791C32.6329 -0.114958 31.9646 -0.0775839 31.5401 0.354673ZM1.04023 9.70447C0.454009 9.779 0 10.2871 0 10.9021C0 11.5684 0.53283 12.1092 1.18935 12.1092H39.0966L31.5434 19.7425L31.4366 19.8658C31.0804 20.3378 31.1158 21.0164 31.5402 21.4501C32.0033 21.9216 32.7565 21.9232 33.2212 21.4533L42.8153 11.7567L42.9211 11.6353C43.0821 11.4229 43.1658 11.1636 43.1658 10.9021C43.1658 10.746 43.1356 10.5899 43.0754 10.4418C42.8914 9.98958 42.4585 9.69506 41.9764 9.69506H1.18935L1.04023 9.70447Z" fill="white"/>
</svg>
