<svg width="21" height="21" viewBox="0 0 21 21" fill="none" xmlns="http://www.w3.org/2000/svg">
<path fill-rule="evenodd" clip-rule="evenodd" d="M11.3608 4.08446C11.0865 4.3647 11.0865 4.81747 11.3627 5.09581L14.4969 8.26333L14.5693 8.32732C14.8461 8.54053 15.2411 8.51832 15.4925 8.26143C15.6296 8.12131 15.6982 7.93924 15.6982 7.75718C15.6982 7.57321 15.6296 7.39019 15.4906 7.25007L12.3573 4.08255L12.2849 4.01878C12.008 3.8063 11.6122 3.82844 11.3608 4.08446ZM3.36513 9.62218C3.01792 9.66632 2.74902 9.96724 2.74902 10.3315C2.74902 10.7261 3.06461 11.0464 3.45345 11.0464H15.8364L11.3628 15.5675L11.2995 15.6405C11.0886 15.9201 11.1095 16.322 11.3609 16.5789C11.6352 16.8582 12.0813 16.8591 12.3565 16.5808L18.0389 10.8377L18.1016 10.7658C18.1969 10.64 18.2465 10.4864 18.2465 10.3315C18.2465 10.2391 18.2286 10.1466 18.1929 10.0589C18.084 9.79104 17.8276 9.61661 17.542 9.61661H3.45345L3.36513 9.62218Z" fill="white"/>
</svg>
