<svg width="21" height="16" viewBox="0 0 21 16" fill="none" xmlns="http://www.w3.org/2000/svg">
<path fill-rule="evenodd" clip-rule="evenodd" d="M9.03089 0.254962C9.36376 0.595103 9.36376 1.14465 9.02861 1.48248L5.22449 5.32699L5.13666 5.40465C4.80072 5.66342 4.32124 5.63647 4.01611 5.32467C3.84967 5.1546 3.76645 4.93363 3.76645 4.71265C3.76645 4.48936 3.84967 4.26723 4.01839 4.09716L7.82137 0.252648L7.90921 0.175253C8.24532 -0.0826392 8.72575 -0.0557725 9.03089 0.254962ZM19.5784 6.97626C19.9998 7.02984 20.3262 7.39507 20.3262 7.8372C20.3262 8.31618 19.9431 8.70491 19.4712 8.70491L3.59876 8.70491L9.0285 14.1923L9.1053 14.2809C9.36134 14.6202 9.33591 15.108 9.03077 15.4198C8.6979 15.7588 8.15641 15.7599 7.8224 15.4221L0.925507 8.45154L0.849447 8.36425C0.733734 8.2116 0.673571 8.0252 0.673571 7.8372C0.673571 7.72498 0.69523 7.61276 0.738548 7.50632C0.870787 7.18122 1.182 6.9695 1.52856 6.9695L19.4712 6.9695L19.5784 6.97626Z" fill="#94BDD5"/>
</svg>
