<svg width="15" height="15" viewBox="0 0 15 15" fill="none" xmlns="http://www.w3.org/2000/svg">
<path d="M7.50001 0.9375C6.13298 0.939113 4.8224 1.48288 3.85577 2.44951C2.88913 3.41615 2.34537 4.72672 2.34376 6.09375C2.34212 7.21089 2.70703 8.29771 3.38251 9.1875C3.38251 9.1875 3.52313 9.37266 3.5461 9.39937L7.50001 14.0625L11.4558 9.39703C11.4764 9.37219 11.6175 9.1875 11.6175 9.1875L11.618 9.18609C12.2931 8.29669 12.6579 7.21037 12.6563 6.09375C12.6546 4.72672 12.1109 3.41615 11.1442 2.44951C10.1776 1.48288 8.86703 0.939113 7.50001 0.9375ZM7.50001 7.96875C7.12917 7.96875 6.76665 7.85878 6.45831 7.65276C6.14997 7.44673 5.90965 7.15389 5.76773 6.81128C5.62582 6.46867 5.58869 6.09167 5.66103 5.72796C5.73338 5.36424 5.91196 5.03015 6.17418 4.76792C6.4364 4.5057 6.7705 4.32712 7.13421 4.25478C7.49793 4.18243 7.87493 4.21956 8.21754 4.36148C8.56015 4.50339 8.85298 4.74371 9.05901 5.05206C9.26504 5.3604 9.37501 5.72291 9.37501 6.09375C9.37439 6.59084 9.17664 7.06739 8.82515 7.41889C8.47365 7.77039 7.9971 7.96813 7.50001 7.96875Z" fill="white"/>
</svg>
