<svg width="49" height="48" viewBox="0 0 49 48" fill="none" xmlns="http://www.w3.org/2000/svg">
<g clip-path="url(#clip0_22_227)">
<path d="M24.0635 26.1724C15.0253 26.1724 7.45129 23.5247 5.3834 19.955C5.01984 20.5833 4.80762 21.2362 4.80762 21.9137V27.7554C4.80762 32.2683 13.4312 35.9299 24.0635 35.9299C34.7023 35.9299 43.3292 32.2683 43.3292 27.7554V21.9137C43.3292 21.2362 43.1137 20.5833 42.7469 19.955C40.679 23.523 33.1115 26.1724 24.0635 26.1724Z" fill="#0E536C"/>
<path d="M24.0635 38.2397C15.0253 38.2397 7.45129 35.5887 5.3834 32.0256C5.01984 32.6506 4.80762 33.3035 4.80762 33.9794V39.826C4.80762 44.3405 13.4312 48.0004 24.0635 48.0004C34.7023 48.0004 43.3292 44.3422 43.3292 39.826V33.9794C43.3292 33.3035 43.1137 32.6506 42.7469 32.0272C40.679 35.5887 33.1115 38.2397 24.0635 38.2397Z" fill="#0E536C"/>
<path d="M42.8028 8.27185C42.4244 11.579 34.1957 14.2251 24.0635 14.2251C13.9363 14.2251 5.70749 11.579 5.33076 8.27349C5.00009 8.8739 4.80762 9.50056 4.80762 10.1453V15.987C4.80762 20.5015 13.4312 24.1614 24.0635 24.1614C34.7023 24.1614 43.3292 20.5032 43.3292 15.987V10.1453C43.3292 9.50056 43.1335 8.8739 42.8028 8.27185Z" fill="#0E536C"/>
<path d="M24.0632 12.3707C34.4322 12.3707 42.8338 9.60328 42.8338 6.18455C42.8338 2.7691 34.4322 0 24.0632 0C13.7007 0.00164046 5.2959 2.77074 5.2959 6.18619C5.2959 9.60328 13.7007 12.3707 24.0632 12.3707Z" fill="#0E536C"/>
</g>
<defs>
<clipPath id="clip0_22_227">
<rect width="48.1356" height="48" fill="white"/>
</clipPath>
</defs>
</svg>
