<svg width="33" height="34" viewBox="0 0 33 34" fill="none" xmlns="http://www.w3.org/2000/svg">
<path d="M16.4605 3.32788C8.8217 3.32788 2.60693 9.54623 2.60693 17.1896C2.60693 24.8332 8.8217 31.0514 16.4605 31.0514C24.0995 31.0514 30.3145 24.8332 30.3145 17.1896C30.3142 9.54623 24.0992 3.32788 16.4605 3.32788ZM16.4605 29.6842C9.57503 29.6842 3.97332 24.0793 3.97332 17.1896C3.97332 10.3002 9.57503 4.69505 16.4605 4.69505C23.3459 4.69505 28.9481 10.3002 28.9481 17.1896C28.9478 24.0793 23.3459 29.6842 16.4605 29.6842Z" fill="#273349" fill-opacity="0.75"/>
<path d="M20.7306 9.05591H17.7255C17.7184 9.05591 17.7116 9.05614 17.705 9.05682C14.671 9.06639 14.2747 11.1862 14.2731 13.0389C14.269 13.0562 14.2667 13.074 14.2667 13.0925V14.3931H12.1903C12.0646 14.3931 11.9626 14.4952 11.9626 14.621V17.8286C11.9626 17.9546 12.0646 18.0564 12.1903 18.0564H14.2667V25.0953C14.2667 25.2213 14.3688 25.3232 14.4945 25.3232H17.5249C17.6508 25.3232 17.7526 25.2213 17.7526 25.0953V18.0567H20.7304C20.8563 18.0567 20.9581 17.9548 20.9581 17.8288V14.6212C20.9581 14.4954 20.8563 14.3933 20.7304 14.3933H17.5249V12.6691H20.7304C20.8563 12.6691 20.9581 12.567 20.9581 12.4413V9.28377C20.9584 9.15799 20.8563 9.05591 20.7306 9.05591Z" fill="#273349" fill-opacity="0.75"/>
</svg>
