<svg width="36" height="44" viewBox="0 0 36 44" fill="none" xmlns="http://www.w3.org/2000/svg">
<path d="M8 40.0002H12V44.0002H0V40.0002H4V0.000244141H8V40.0002ZM30.34 14.0002L35.72 5.02024C35.9 4.7166 35.9965 4.37071 35.9996 4.01771C36.0027 3.66472 35.9123 3.31719 35.7376 3.01045C35.5629 2.7037 35.3101 2.44866 35.0049 2.27123C34.6997 2.0938 34.353 2.00031 34 2.00024H10V26.0002H34C34.353 26.0002 34.6997 25.9067 35.0049 25.7293C35.3101 25.5518 35.5629 25.2968 35.7376 24.99C35.9123 24.6833 36.0027 24.3358 35.9996 23.9828C35.9965 23.6298 35.9 23.2839 35.72 22.9802L30.34 14.0002Z" fill="#0E536C"/>
</svg>
