<svg width="14" height="14" viewBox="0 0 14 14" fill="none" xmlns="http://www.w3.org/2000/svg">
<path d="M7.00039 0C5.16333 0.0721275 3.48871 0.701038 2.18152 1.70044C2.17336 1.70823 2.16754 1.71446 2.15881 1.72276C1.01173 2.78288 1.24988 4.7983 2.31078 7C2.27643 6.46034 2.34805 5.83299 2.43539 5.27413C2.86336 2.54833 4.77379 0.445219 7.00039 0Z" fill="#1382C5"/>
<path d="M8.82404 0.0252539C7.30679 -0.184319 5.64428 0.92537 4.2002 2.8C4.67732 2.49036 5.38346 2.15609 5.91783 1.94127C8.48422 0.912271 11.1747 1.31151 12.6002 2.76909C11.8951 1.7097 10.9138 0.84678 9.75602 0.280933C9.45702 0.150474 9.14 0.0682164 8.82457 0.0257779" fill="#1382C5"/>
<path d="M7 14C8.87969 13.9084 10.5858 13.2699 11.9107 12.2679C12.951 11.1021 12.7566 9.14014 11.7108 7C11.7395 7.54886 11.6882 8.28767 11.6041 8.81093C11.1722 11.4713 9.25133 13.5315 7 14Z" fill="#1382C5"/>
<path d="M13.8247 5.29234C13.3399 3.94926 11.8009 3.11536 9.7998 2.80005C10.2145 3.04448 10.6682 3.40254 11.0411 3.72827C12.9466 5.39345 13.8196 7.86698 13.3404 9.80005C13.7616 8.84837 13.9998 7.7763 13.9998 6.64168C13.9998 6.37849 13.9859 6.11998 13.9617 5.86408C13.9325 5.66447 13.8897 5.47007 13.8247 5.29234Z" fill="#1382C5"/>
<path d="M4.63411 13.9757C5.86113 14.1754 7.209 13.1256 8.40039 11.3746C8.02521 11.6517 7.57111 11.9126 7.15173 12.1102C4.92677 13.1554 2.59494 12.7225 1.40039 11.2C1.98256 12.2535 2.79606 13.1177 3.75838 13.696C4.03571 13.845 4.34009 13.9297 4.63411 13.9762" fill="#1382C5"/>
<path d="M4.2 11.2C3.77887 10.9522 3.26476 10.5636 2.90141 10.2467C0.99482 8.58454 0.152112 6.09578 0.712714 4.19995C0.259086 5.15973 0 6.25423 0 7.41535C0 7.89271 0.0433315 8.35696 0.125932 8.80606C0.656292 10.0923 2.20901 10.9053 4.2 11.2Z" fill="#1382C5"/>
<path d="M9.8002 6.99949C9.8002 8.54649 8.54577 9.79995 7.00065 9.79995C5.45554 9.79995 4.2002 8.54649 4.2002 6.99949C4.2002 5.4525 5.45371 4.19995 7.00065 4.19995C8.5476 4.19995 9.8002 5.45342 9.8002 6.99949Z" fill="#1382C5"/>
</svg>
