<svg width="36" height="36" viewBox="0 0 36 36" fill="none" xmlns="http://www.w3.org/2000/svg">
<path d="M25.2922 28.3638L25.9993 27.6567L25.9993 27.6567L25.2922 28.3638ZM28.3638 25.2922L29.0709 24.5851L29.0709 24.5851L28.3638 25.2922ZM26.9571 22.4712C26.5666 22.0807 25.9334 22.0807 25.5429 22.4712C25.1523 22.8618 25.1523 23.4949 25.5429 23.8854L26.9571 22.4712ZM23.8854 25.5429C23.4949 25.1524 22.8617 25.1524 22.4712 25.5429C22.0807 25.9334 22.0807 26.5666 22.4712 26.9571L23.8854 25.5429ZM8 16.35C8 11.7384 11.7384 8 16.35 8V6C10.6338 6 6 10.6339 6 16.35H8ZM16.35 8C20.9616 8 24.7 11.7384 24.7 16.35H26.7C26.7 10.6339 22.0661 6 16.35 6V8ZM24.7 16.35C24.7 20.9616 20.9616 24.7 16.35 24.7V26.7C22.0661 26.7 26.7 22.0661 26.7 16.35H24.7ZM16.35 24.7C11.7384 24.7 8 20.9616 8 16.35H6C6 22.0661 10.6338 26.7 16.35 26.7V24.7ZM27.6567 27.6567C27.199 28.1144 26.457 28.1144 25.9993 27.6567L24.5851 29.0709C25.8238 30.3097 27.8322 30.3097 29.0709 29.0709L27.6567 27.6567ZM27.6567 25.9993C28.1144 26.457 28.1144 27.199 27.6567 27.6567L29.0709 29.0709C30.3097 27.8322 30.3097 25.8238 29.0709 24.5851L27.6567 25.9993ZM25.5429 23.8854L27.6567 25.9993L29.0709 24.5851L26.9571 22.4712L25.5429 23.8854ZM25.9993 27.6567L23.8854 25.5429L22.4712 26.9571L24.5851 29.0709L25.9993 27.6567Z" fill="#007AC3"/>
</svg>
