<svg width="44" height="44" viewBox="0 0 44 44" fill="none" xmlns="http://www.w3.org/2000/svg">
<g clip-path="url(#clip0_106_9201)">
<path d="M36.2251 33.7503C35.5416 33.0669 34.4336 33.0669 33.7502 33.7503C33.0668 34.4337 33.0668 35.5417 33.7502 36.2251L36.2251 33.7503ZM41.5909 44.0659C42.2743 44.7494 43.3823 44.7494 44.0658 44.0659C44.7492 43.3825 44.7492 42.2745 44.0658 41.5911L41.5909 44.0659ZM13.7614 17.892C12.7949 17.892 12.0114 18.6755 12.0114 19.642C12.0114 20.6085 12.7949 21.392 13.7614 21.392V17.892ZM25.5228 21.392C26.4893 21.392 27.2728 20.6085 27.2728 19.642C27.2728 18.6755 26.4893 17.892 25.5228 17.892V21.392ZM17.8921 25.5227C17.8921 26.4892 18.6756 27.2727 19.6421 27.2727C20.6086 27.2727 21.3921 26.4892 21.3921 25.5227H17.8921ZM21.3921 13.7613C21.3921 12.7948 20.6086 12.0113 19.6421 12.0113C18.6756 12.0113 17.8921 12.7948 17.8921 13.7613H21.3921ZM33.7502 36.2251L41.5909 44.0659L44.0658 41.5911L36.2251 33.7503L33.7502 36.2251ZM13.7614 21.392H25.5228V17.892H13.7614V21.392ZM21.3921 25.5227V13.7613H17.8921V25.5227H21.3921ZM19.6421 35.534C10.8651 35.534 3.75 28.4189 3.75 19.642H0.25C0.25 30.3519 8.93214 39.034 19.6421 39.034V35.534ZM35.5342 19.642C35.5342 28.4189 28.419 35.534 19.6421 35.534V39.034C30.352 39.034 39.0342 30.3519 39.0342 19.642H35.5342ZM19.6421 3.75C28.419 3.75 35.5342 10.8651 35.5342 19.642H39.0342C39.0342 8.93209 30.352 0.25 19.6421 0.25V3.75ZM19.6421 0.25C8.93214 0.25 0.25 8.93209 0.25 19.642H3.75C3.75 10.8651 10.8651 3.75 19.6421 3.75V0.25Z" fill="white"/>
</g>
<defs>
<clipPath id="clip0_106_9201">
<rect width="44" height="44" fill="white"/>
</clipPath>
</defs>
</svg>
